G04 #@! TF.GenerationSoftware,KiCad,Pcbnew,5.1.5+dfsg1-2build2*
G04 #@! TF.CreationDate,2021-01-26T01:31:42+03:00*
G04 #@! TF.ProjectId,usb_ISO,7573625f-4953-44f2-9e6b-696361645f70,rev?*
G04 #@! TF.SameCoordinates,Original*
G04 #@! TF.FileFunction,Paste,Top*
G04 #@! TF.FilePolarity,Positive*
%FSLAX46Y46*%
G04 Gerber Fmt 4.6, Leading zero omitted, Abs format (unit mm)*
G04 Created by KiCad (PCBNEW 5.1.5+dfsg1-2build2) date 2021-01-26 01:31:42*
%MOMM*%
%LPD*%
G04 APERTURE LIST*
%ADD10R,1.143000X0.635000*%
%ADD11R,1.397000X0.889000*%
%ADD12R,0.800100X1.000760*%
%ADD13R,0.635000X1.750000*%
G04 APERTURE END LIST*
D10*
X124206000Y-92964000D03*
X124206000Y-94488000D03*
D11*
X126238000Y-92773500D03*
X126238000Y-94678500D03*
D10*
X122428000Y-90170000D03*
X122428000Y-91694000D03*
X122428000Y-92964000D03*
X122428000Y-94488000D03*
X111076000Y-101075000D03*
X111076000Y-99551000D03*
X104902000Y-89154000D03*
X104902000Y-90678000D03*
X105664000Y-81534000D03*
X105664000Y-83058000D03*
X107442000Y-81534000D03*
X107442000Y-83058000D03*
X118046500Y-75057000D03*
X118046500Y-76581000D03*
D12*
X103886000Y-100921820D03*
X102933500Y-98722180D03*
X104838500Y-98722180D03*
X124523500Y-77299820D03*
X126428500Y-77299820D03*
X125476000Y-75100180D03*
D11*
X118237000Y-99377500D03*
X118237000Y-101282500D03*
X110871000Y-76771500D03*
X110871000Y-74866500D03*
D10*
X106680000Y-95758000D03*
X106680000Y-97282000D03*
X101092000Y-97282000D03*
X101092000Y-95758000D03*
X122682000Y-80264000D03*
X122682000Y-78740000D03*
D13*
X110455000Y-92329000D03*
X111725000Y-92329000D03*
X115535000Y-92329000D03*
X119345000Y-92329000D03*
X112995000Y-92329000D03*
X114265000Y-92329000D03*
X116805000Y-92329000D03*
X118075000Y-92329000D03*
X119345000Y-82931000D03*
X118075000Y-82931000D03*
X116805000Y-82931000D03*
X110455000Y-82931000D03*
X111725000Y-82931000D03*
X112995000Y-82931000D03*
X114265000Y-82931000D03*
X115535000Y-82931000D03*
D11*
X103632000Y-83248500D03*
X103632000Y-81343500D03*
D10*
X107442000Y-78740000D03*
X107442000Y-80264000D03*
X128270000Y-78740000D03*
X128270000Y-80264000D03*
X102870000Y-94488000D03*
X102870000Y-92964000D03*
X104902000Y-92964000D03*
X104902000Y-94488000D03*
X126492000Y-81534000D03*
X126492000Y-83058000D03*
X124460000Y-83058000D03*
X124460000Y-81534000D03*
X102870000Y-97282000D03*
X102870000Y-95758000D03*
X104902000Y-95758000D03*
X104902000Y-97282000D03*
X126492000Y-78740000D03*
X126492000Y-80264000D03*
X124460000Y-80264000D03*
X124460000Y-78740000D03*
M02*
