G04 #@! TF.GenerationSoftware,KiCad,Pcbnew,5.1.5+dfsg1-2build2*
G04 #@! TF.CreationDate,2021-01-26T01:31:42+03:00*
G04 #@! TF.ProjectId,usb_ISO,7573625f-4953-44f2-9e6b-696361645f70,rev?*
G04 #@! TF.SameCoordinates,Original*
G04 #@! TF.FileFunction,Copper,L2,Bot*
G04 #@! TF.FilePolarity,Positive*
%FSLAX46Y46*%
G04 Gerber Fmt 4.6, Leading zero omitted, Abs format (unit mm)*
G04 Created by KiCad (PCBNEW 5.1.5+dfsg1-2build2) date 2021-01-26 01:31:42*
%MOMM*%
%LPD*%
G04 APERTURE LIST*
%ADD10R,2.100580X1.000760*%
%ADD11C,2.999740*%
%ADD12C,1.600000*%
%ADD13C,1.524000*%
%ADD14C,1.200000*%
%ADD15C,1.000000*%
%ADD16C,1.000000*%
%ADD17C,0.700000*%
%ADD18C,0.500000*%
%ADD19C,0.900000*%
%ADD20C,0.254000*%
G04 APERTURE END LIST*
D10*
X120015000Y-91440000D03*
X120015000Y-83820000D03*
X109855000Y-83820000D03*
X109855000Y-88900000D03*
X109855000Y-91440000D03*
D11*
X121762000Y-100313000D03*
X108046000Y-100313000D03*
D12*
X118206000Y-97646000D03*
X115666000Y-97646000D03*
X113634000Y-97646000D03*
X111094000Y-97646000D03*
X118046500Y-78342000D03*
X115506500Y-78342000D03*
X113474500Y-78342000D03*
X110934500Y-78342000D03*
D11*
X121094500Y-75675000D03*
X107378500Y-75675000D03*
D13*
X101623000Y-82610000D03*
X101323000Y-90110000D03*
D14*
X103886000Y-95123000D03*
X102235000Y-100965000D03*
X119761000Y-94615000D03*
X121031000Y-92964000D03*
X124079000Y-97536000D03*
X105283000Y-78359000D03*
X104902000Y-83820000D03*
X125476000Y-80899000D03*
X120396000Y-81915000D03*
X127127000Y-74803000D03*
X108839000Y-81534000D03*
D15*
X123952000Y-72644000D03*
X123952000Y-74803000D03*
X107823000Y-88900000D03*
X114808000Y-94615000D03*
X118110000Y-94615000D03*
X105283000Y-103251000D03*
X105283000Y-100965000D03*
D16*
X102108000Y-100838000D02*
X102235000Y-100965000D01*
D17*
X113538000Y-95758000D02*
X119380000Y-95758000D01*
X119761000Y-95377000D02*
X119761000Y-94615000D01*
X119380000Y-95758000D02*
X119761000Y-95377000D01*
X113538000Y-95758000D02*
X106299000Y-95758000D01*
X106299000Y-95758000D02*
X104394000Y-95758000D01*
X104394000Y-95758000D02*
X103886000Y-95250000D01*
X103886000Y-95250000D02*
X103886000Y-95123000D01*
X111094000Y-97646000D02*
X111094000Y-95789000D01*
X111094000Y-95789000D02*
X111125000Y-95758000D01*
D18*
X106018710Y-89154000D02*
X101600000Y-89154000D01*
X101323000Y-89431000D02*
X101323000Y-90110000D01*
X108304710Y-91440000D02*
X106018710Y-89154000D01*
X101600000Y-89154000D02*
X101323000Y-89431000D01*
X109855000Y-91440000D02*
X108304710Y-91440000D01*
D19*
X101323000Y-90110000D02*
X101323000Y-99989500D01*
X101323000Y-99989500D02*
X102235000Y-100901500D01*
X103886000Y-95123000D02*
X101346000Y-95123000D01*
D17*
X121031000Y-92964000D02*
X121031000Y-93853000D01*
X121031000Y-93853000D02*
X124079000Y-96901000D01*
X124079000Y-96901000D02*
X124079000Y-97409000D01*
X124079000Y-97409000D02*
X124079000Y-97536000D01*
X105283000Y-83439000D02*
X104902000Y-83820000D01*
X105283000Y-78359000D02*
X105283000Y-83439000D01*
X120015000Y-83820000D02*
X114935000Y-83820000D01*
X107315000Y-80137000D02*
X109474000Y-80137000D01*
X107315000Y-80137000D02*
X105283000Y-80137000D01*
X109474000Y-80137000D02*
X113157000Y-83820000D01*
X113157000Y-83820000D02*
X115570000Y-83820000D01*
D18*
X109855000Y-83820000D02*
X109855000Y-81915000D01*
X109474000Y-81534000D02*
X108839000Y-81534000D01*
X109855000Y-81915000D02*
X109474000Y-81534000D01*
D16*
X127127000Y-74803000D02*
X127127000Y-80010000D01*
X127127000Y-80010000D02*
X126365000Y-80772000D01*
X126365000Y-80858528D02*
X126324528Y-80899000D01*
X126365000Y-80772000D02*
X126365000Y-80858528D01*
X126324528Y-80899000D02*
X125476000Y-80899000D01*
X125476000Y-80899000D02*
X120904000Y-80899000D01*
X120904000Y-80899000D02*
X120396000Y-81407000D01*
X120396000Y-81407000D02*
X120396000Y-81788000D01*
D18*
X123952000Y-72644000D02*
X123952000Y-74803000D01*
X109855000Y-88900000D02*
X107823000Y-88900000D01*
X114808000Y-94615000D02*
X118110000Y-94615000D01*
X105283000Y-103251000D02*
X105283000Y-100965000D01*
D20*
G36*
X110778791Y-82682056D02*
G01*
X110140750Y-82684620D01*
X109982000Y-82843370D01*
X109982000Y-83693000D01*
X111381540Y-83693000D01*
X111540290Y-83534250D01*
X111541570Y-83444835D01*
X112424735Y-84328000D01*
X111542612Y-84328000D01*
X111543362Y-84320380D01*
X111540290Y-84105750D01*
X111381540Y-83947000D01*
X109982000Y-83947000D01*
X109982000Y-83967000D01*
X109728000Y-83967000D01*
X109728000Y-83947000D01*
X108328460Y-83947000D01*
X108169710Y-84105750D01*
X108166638Y-84320380D01*
X108167388Y-84328000D01*
X105911435Y-84328000D01*
X105985690Y-84148734D01*
X106029000Y-83931000D01*
X106029000Y-83903760D01*
X106097162Y-83776237D01*
X106147310Y-83610922D01*
X106160000Y-83482079D01*
X106160000Y-83482070D01*
X106164242Y-83439001D01*
X106160000Y-83395931D01*
X106160000Y-83319620D01*
X108166638Y-83319620D01*
X108169710Y-83534250D01*
X108328460Y-83693000D01*
X109728000Y-83693000D01*
X109728000Y-82843370D01*
X109569250Y-82684620D01*
X108804710Y-82681548D01*
X108680228Y-82693808D01*
X108560530Y-82730118D01*
X108450216Y-82789083D01*
X108353525Y-82868435D01*
X108274173Y-82965126D01*
X108215208Y-83075440D01*
X108178898Y-83195138D01*
X108166638Y-83319620D01*
X106160000Y-83319620D01*
X106160000Y-81014000D01*
X109110735Y-81014000D01*
X110778791Y-82682056D01*
G37*
X110778791Y-82682056D02*
X110140750Y-82684620D01*
X109982000Y-82843370D01*
X109982000Y-83693000D01*
X111381540Y-83693000D01*
X111540290Y-83534250D01*
X111541570Y-83444835D01*
X112424735Y-84328000D01*
X111542612Y-84328000D01*
X111543362Y-84320380D01*
X111540290Y-84105750D01*
X111381540Y-83947000D01*
X109982000Y-83947000D01*
X109982000Y-83967000D01*
X109728000Y-83967000D01*
X109728000Y-83947000D01*
X108328460Y-83947000D01*
X108169710Y-84105750D01*
X108166638Y-84320380D01*
X108167388Y-84328000D01*
X105911435Y-84328000D01*
X105985690Y-84148734D01*
X106029000Y-83931000D01*
X106029000Y-83903760D01*
X106097162Y-83776237D01*
X106147310Y-83610922D01*
X106160000Y-83482079D01*
X106160000Y-83482070D01*
X106164242Y-83439001D01*
X106160000Y-83395931D01*
X106160000Y-83319620D01*
X108166638Y-83319620D01*
X108169710Y-83534250D01*
X108328460Y-83693000D01*
X109728000Y-83693000D01*
X109728000Y-82843370D01*
X109569250Y-82684620D01*
X108804710Y-82681548D01*
X108680228Y-82693808D01*
X108560530Y-82730118D01*
X108450216Y-82789083D01*
X108353525Y-82868435D01*
X108274173Y-82965126D01*
X108215208Y-83075440D01*
X108178898Y-83195138D01*
X108166638Y-83319620D01*
X106160000Y-83319620D01*
X106160000Y-81014000D01*
X109110735Y-81014000D01*
X110778791Y-82682056D01*
G36*
X122773000Y-71769206D02*
G01*
X122769967Y-71800000D01*
X122782073Y-71922913D01*
X122817925Y-72041103D01*
X122876147Y-72150028D01*
X122925557Y-72210235D01*
X122954499Y-72245501D01*
X122992522Y-72276705D01*
X122964467Y-72344435D01*
X122925000Y-72542849D01*
X122925000Y-72745151D01*
X122964467Y-72943565D01*
X123041885Y-73130467D01*
X123154277Y-73298674D01*
X123175000Y-73319397D01*
X123175001Y-74127602D01*
X123154277Y-74148326D01*
X123041885Y-74316533D01*
X122964467Y-74503435D01*
X122925000Y-74701849D01*
X122925000Y-74797751D01*
X122890689Y-74714917D01*
X122668873Y-74382946D01*
X122386554Y-74100627D01*
X122054583Y-73878811D01*
X121685716Y-73726022D01*
X121294129Y-73648130D01*
X120894871Y-73648130D01*
X120503284Y-73726022D01*
X120134417Y-73878811D01*
X119802446Y-74100627D01*
X119520127Y-74382946D01*
X119298311Y-74714917D01*
X119145522Y-75083784D01*
X119067630Y-75475371D01*
X119067630Y-75874629D01*
X119145522Y-76266216D01*
X119298311Y-76635083D01*
X119520127Y-76967054D01*
X119802446Y-77249373D01*
X120134417Y-77471189D01*
X120503284Y-77623978D01*
X120894871Y-77701870D01*
X121294129Y-77701870D01*
X121685716Y-77623978D01*
X122054583Y-77471189D01*
X122386554Y-77249373D01*
X122668873Y-76967054D01*
X122890689Y-76635083D01*
X123043478Y-76266216D01*
X123121370Y-75874629D01*
X123121370Y-75475371D01*
X123102409Y-75380048D01*
X123154277Y-75457674D01*
X123297326Y-75600723D01*
X123465533Y-75713115D01*
X123652435Y-75790533D01*
X123850849Y-75830000D01*
X124053151Y-75830000D01*
X124251565Y-75790533D01*
X124438467Y-75713115D01*
X124606674Y-75600723D01*
X124749723Y-75457674D01*
X124862115Y-75289467D01*
X124939533Y-75102565D01*
X124979000Y-74904151D01*
X124979000Y-74701849D01*
X124939533Y-74503435D01*
X124862115Y-74316533D01*
X124749723Y-74148326D01*
X124729000Y-74127603D01*
X124729000Y-73319397D01*
X124749723Y-73298674D01*
X124862115Y-73130467D01*
X124939533Y-72943565D01*
X124979000Y-72745151D01*
X124979000Y-72542849D01*
X124973858Y-72517000D01*
X128452394Y-72517000D01*
X128773001Y-72837607D01*
X128773001Y-84007393D01*
X128452394Y-84328000D01*
X121594089Y-84328000D01*
X121594839Y-84320380D01*
X121594839Y-83319620D01*
X121584664Y-83216310D01*
X121554529Y-83116970D01*
X121505594Y-83025418D01*
X121439738Y-82945172D01*
X121359492Y-82879316D01*
X121267940Y-82830381D01*
X121168600Y-82800246D01*
X121065290Y-82790071D01*
X118964710Y-82790071D01*
X118861400Y-82800246D01*
X118762060Y-82830381D01*
X118670508Y-82879316D01*
X118592909Y-82943000D01*
X113520265Y-82943000D01*
X110124597Y-79547332D01*
X110097133Y-79513867D01*
X109963592Y-79404273D01*
X109811237Y-79322838D01*
X109645922Y-79272690D01*
X109517079Y-79260000D01*
X109474000Y-79255757D01*
X109430921Y-79260000D01*
X106160000Y-79260000D01*
X106160000Y-79075023D01*
X106281734Y-78892835D01*
X106366690Y-78687734D01*
X106410000Y-78470000D01*
X106410000Y-78248000D01*
X106402701Y-78211302D01*
X109607500Y-78211302D01*
X109607500Y-78472698D01*
X109658496Y-78729072D01*
X109758528Y-78970570D01*
X109903752Y-79187913D01*
X110088587Y-79372748D01*
X110305930Y-79517972D01*
X110547428Y-79618004D01*
X110803802Y-79669000D01*
X111065198Y-79669000D01*
X111321572Y-79618004D01*
X111563070Y-79517972D01*
X111780413Y-79372748D01*
X111965248Y-79187913D01*
X112110472Y-78970570D01*
X112204500Y-78743567D01*
X112298528Y-78970570D01*
X112443752Y-79187913D01*
X112628587Y-79372748D01*
X112845930Y-79517972D01*
X113087428Y-79618004D01*
X113343802Y-79669000D01*
X113605198Y-79669000D01*
X113861572Y-79618004D01*
X114103070Y-79517972D01*
X114320413Y-79372748D01*
X114490500Y-79202661D01*
X114660587Y-79372748D01*
X114877930Y-79517972D01*
X115119428Y-79618004D01*
X115375802Y-79669000D01*
X115637198Y-79669000D01*
X115893572Y-79618004D01*
X116135070Y-79517972D01*
X116352413Y-79372748D01*
X116390459Y-79334702D01*
X117233403Y-79334702D01*
X117304986Y-79578671D01*
X117560496Y-79699571D01*
X117834684Y-79768300D01*
X118117012Y-79782217D01*
X118396630Y-79740787D01*
X118662792Y-79645603D01*
X118788014Y-79578671D01*
X118859597Y-79334702D01*
X118046500Y-78521605D01*
X117233403Y-79334702D01*
X116390459Y-79334702D01*
X116537248Y-79187913D01*
X116682472Y-78970570D01*
X116717256Y-78886593D01*
X116742897Y-78958292D01*
X116809829Y-79083514D01*
X117053798Y-79155097D01*
X117866895Y-78342000D01*
X118226105Y-78342000D01*
X119039202Y-79155097D01*
X119283171Y-79083514D01*
X119404071Y-78828004D01*
X119472800Y-78553816D01*
X119486717Y-78271488D01*
X119445287Y-77991870D01*
X119350103Y-77725708D01*
X119283171Y-77600486D01*
X119039202Y-77528903D01*
X118226105Y-78342000D01*
X117866895Y-78342000D01*
X117053798Y-77528903D01*
X116809829Y-77600486D01*
X116716974Y-77796725D01*
X116682472Y-77713430D01*
X116537248Y-77496087D01*
X116390459Y-77349298D01*
X117233403Y-77349298D01*
X118046500Y-78162395D01*
X118859597Y-77349298D01*
X118788014Y-77105329D01*
X118532504Y-76984429D01*
X118258316Y-76915700D01*
X117975988Y-76901783D01*
X117696370Y-76943213D01*
X117430208Y-77038397D01*
X117304986Y-77105329D01*
X117233403Y-77349298D01*
X116390459Y-77349298D01*
X116352413Y-77311252D01*
X116135070Y-77166028D01*
X115893572Y-77065996D01*
X115637198Y-77015000D01*
X115375802Y-77015000D01*
X115119428Y-77065996D01*
X114877930Y-77166028D01*
X114660587Y-77311252D01*
X114490500Y-77481339D01*
X114320413Y-77311252D01*
X114103070Y-77166028D01*
X113861572Y-77065996D01*
X113605198Y-77015000D01*
X113343802Y-77015000D01*
X113087428Y-77065996D01*
X112845930Y-77166028D01*
X112628587Y-77311252D01*
X112443752Y-77496087D01*
X112298528Y-77713430D01*
X112204500Y-77940433D01*
X112110472Y-77713430D01*
X111965248Y-77496087D01*
X111780413Y-77311252D01*
X111563070Y-77166028D01*
X111321572Y-77065996D01*
X111065198Y-77015000D01*
X110803802Y-77015000D01*
X110547428Y-77065996D01*
X110305930Y-77166028D01*
X110088587Y-77311252D01*
X109903752Y-77496087D01*
X109758528Y-77713430D01*
X109658496Y-77954928D01*
X109607500Y-78211302D01*
X106402701Y-78211302D01*
X106366690Y-78030266D01*
X106281734Y-77825165D01*
X106158398Y-77640579D01*
X106001421Y-77483602D01*
X105816835Y-77360266D01*
X105611734Y-77275310D01*
X105394000Y-77232000D01*
X105172000Y-77232000D01*
X104954266Y-77275310D01*
X104749165Y-77360266D01*
X104564579Y-77483602D01*
X104407602Y-77640579D01*
X104284266Y-77825165D01*
X104199310Y-78030266D01*
X104156000Y-78248000D01*
X104156000Y-78470000D01*
X104199310Y-78687734D01*
X104284266Y-78892835D01*
X104406000Y-79075024D01*
X104406000Y-80093917D01*
X104401757Y-80137000D01*
X104406000Y-80180083D01*
X104406001Y-82805594D01*
X104368165Y-82821266D01*
X104183579Y-82944602D01*
X104026602Y-83101579D01*
X103903266Y-83286165D01*
X103818310Y-83491266D01*
X103775000Y-83709000D01*
X103775000Y-83931000D01*
X103818310Y-84148734D01*
X103892565Y-84328000D01*
X100782606Y-84328000D01*
X100527000Y-84072394D01*
X100527000Y-83575565D01*
X100837040Y-83575565D01*
X100904020Y-83815656D01*
X101153048Y-83932756D01*
X101420135Y-83999023D01*
X101695017Y-84011910D01*
X101967133Y-83970922D01*
X102226023Y-83877636D01*
X102341980Y-83815656D01*
X102408960Y-83575565D01*
X101623000Y-82789605D01*
X100837040Y-83575565D01*
X100527000Y-83575565D01*
X100527000Y-83359572D01*
X100657435Y-83395960D01*
X101443395Y-82610000D01*
X101802605Y-82610000D01*
X102588565Y-83395960D01*
X102828656Y-83328980D01*
X102945756Y-83079952D01*
X103012023Y-82812865D01*
X103024910Y-82537983D01*
X102983922Y-82265867D01*
X102890636Y-82006977D01*
X102828656Y-81891020D01*
X102588565Y-81824040D01*
X101802605Y-82610000D01*
X101443395Y-82610000D01*
X100657435Y-81824040D01*
X100527000Y-81860428D01*
X100527000Y-81644435D01*
X100837040Y-81644435D01*
X101623000Y-82430395D01*
X102408960Y-81644435D01*
X102341980Y-81404344D01*
X102092952Y-81287244D01*
X101825865Y-81220977D01*
X101550983Y-81208090D01*
X101278867Y-81249078D01*
X101019977Y-81342364D01*
X100904020Y-81404344D01*
X100837040Y-81644435D01*
X100527000Y-81644435D01*
X100527000Y-75324855D01*
X100614061Y-75324855D01*
X100614061Y-75775145D01*
X100701908Y-76216784D01*
X100874227Y-76632798D01*
X101124395Y-77007201D01*
X101442799Y-77325605D01*
X101817202Y-77575773D01*
X102233216Y-77748092D01*
X102674855Y-77835939D01*
X103125145Y-77835939D01*
X103566784Y-77748092D01*
X103982798Y-77575773D01*
X104357201Y-77325605D01*
X104675605Y-77007201D01*
X104925773Y-76632798D01*
X105098092Y-76216784D01*
X105185939Y-75775145D01*
X105185939Y-75475371D01*
X105351630Y-75475371D01*
X105351630Y-75874629D01*
X105429522Y-76266216D01*
X105582311Y-76635083D01*
X105804127Y-76967054D01*
X106086446Y-77249373D01*
X106418417Y-77471189D01*
X106787284Y-77623978D01*
X107178871Y-77701870D01*
X107578129Y-77701870D01*
X107969716Y-77623978D01*
X108338583Y-77471189D01*
X108670554Y-77249373D01*
X108952873Y-76967054D01*
X109174689Y-76635083D01*
X109327478Y-76266216D01*
X109405370Y-75874629D01*
X109405370Y-75475371D01*
X109327478Y-75083784D01*
X109174689Y-74714917D01*
X108952873Y-74382946D01*
X108670554Y-74100627D01*
X108338583Y-73878811D01*
X107969716Y-73726022D01*
X107578129Y-73648130D01*
X107178871Y-73648130D01*
X106787284Y-73726022D01*
X106418417Y-73878811D01*
X106086446Y-74100627D01*
X105804127Y-74382946D01*
X105582311Y-74714917D01*
X105429522Y-75083784D01*
X105351630Y-75475371D01*
X105185939Y-75475371D01*
X105185939Y-75324855D01*
X105098092Y-74883216D01*
X104925773Y-74467202D01*
X104675605Y-74092799D01*
X104357201Y-73774395D01*
X103982798Y-73524227D01*
X103566784Y-73351908D01*
X103125145Y-73264061D01*
X102674855Y-73264061D01*
X102233216Y-73351908D01*
X101817202Y-73524227D01*
X101442799Y-73774395D01*
X101124395Y-74092799D01*
X100874227Y-74467202D01*
X100701908Y-74883216D01*
X100614061Y-75324855D01*
X100527000Y-75324855D01*
X100527000Y-66427000D01*
X122773001Y-66427000D01*
X122773000Y-71769206D01*
G37*
X122773000Y-71769206D02*
X122769967Y-71800000D01*
X122782073Y-71922913D01*
X122817925Y-72041103D01*
X122876147Y-72150028D01*
X122925557Y-72210235D01*
X122954499Y-72245501D01*
X122992522Y-72276705D01*
X122964467Y-72344435D01*
X122925000Y-72542849D01*
X122925000Y-72745151D01*
X122964467Y-72943565D01*
X123041885Y-73130467D01*
X123154277Y-73298674D01*
X123175000Y-73319397D01*
X123175001Y-74127602D01*
X123154277Y-74148326D01*
X123041885Y-74316533D01*
X122964467Y-74503435D01*
X122925000Y-74701849D01*
X122925000Y-74797751D01*
X122890689Y-74714917D01*
X122668873Y-74382946D01*
X122386554Y-74100627D01*
X122054583Y-73878811D01*
X121685716Y-73726022D01*
X121294129Y-73648130D01*
X120894871Y-73648130D01*
X120503284Y-73726022D01*
X120134417Y-73878811D01*
X119802446Y-74100627D01*
X119520127Y-74382946D01*
X119298311Y-74714917D01*
X119145522Y-75083784D01*
X119067630Y-75475371D01*
X119067630Y-75874629D01*
X119145522Y-76266216D01*
X119298311Y-76635083D01*
X119520127Y-76967054D01*
X119802446Y-77249373D01*
X120134417Y-77471189D01*
X120503284Y-77623978D01*
X120894871Y-77701870D01*
X121294129Y-77701870D01*
X121685716Y-77623978D01*
X122054583Y-77471189D01*
X122386554Y-77249373D01*
X122668873Y-76967054D01*
X122890689Y-76635083D01*
X123043478Y-76266216D01*
X123121370Y-75874629D01*
X123121370Y-75475371D01*
X123102409Y-75380048D01*
X123154277Y-75457674D01*
X123297326Y-75600723D01*
X123465533Y-75713115D01*
X123652435Y-75790533D01*
X123850849Y-75830000D01*
X124053151Y-75830000D01*
X124251565Y-75790533D01*
X124438467Y-75713115D01*
X124606674Y-75600723D01*
X124749723Y-75457674D01*
X124862115Y-75289467D01*
X124939533Y-75102565D01*
X124979000Y-74904151D01*
X124979000Y-74701849D01*
X124939533Y-74503435D01*
X124862115Y-74316533D01*
X124749723Y-74148326D01*
X124729000Y-74127603D01*
X124729000Y-73319397D01*
X124749723Y-73298674D01*
X124862115Y-73130467D01*
X124939533Y-72943565D01*
X124979000Y-72745151D01*
X124979000Y-72542849D01*
X124973858Y-72517000D01*
X128452394Y-72517000D01*
X128773001Y-72837607D01*
X128773001Y-84007393D01*
X128452394Y-84328000D01*
X121594089Y-84328000D01*
X121594839Y-84320380D01*
X121594839Y-83319620D01*
X121584664Y-83216310D01*
X121554529Y-83116970D01*
X121505594Y-83025418D01*
X121439738Y-82945172D01*
X121359492Y-82879316D01*
X121267940Y-82830381D01*
X121168600Y-82800246D01*
X121065290Y-82790071D01*
X118964710Y-82790071D01*
X118861400Y-82800246D01*
X118762060Y-82830381D01*
X118670508Y-82879316D01*
X118592909Y-82943000D01*
X113520265Y-82943000D01*
X110124597Y-79547332D01*
X110097133Y-79513867D01*
X109963592Y-79404273D01*
X109811237Y-79322838D01*
X109645922Y-79272690D01*
X109517079Y-79260000D01*
X109474000Y-79255757D01*
X109430921Y-79260000D01*
X106160000Y-79260000D01*
X106160000Y-79075023D01*
X106281734Y-78892835D01*
X106366690Y-78687734D01*
X106410000Y-78470000D01*
X106410000Y-78248000D01*
X106402701Y-78211302D01*
X109607500Y-78211302D01*
X109607500Y-78472698D01*
X109658496Y-78729072D01*
X109758528Y-78970570D01*
X109903752Y-79187913D01*
X110088587Y-79372748D01*
X110305930Y-79517972D01*
X110547428Y-79618004D01*
X110803802Y-79669000D01*
X111065198Y-79669000D01*
X111321572Y-79618004D01*
X111563070Y-79517972D01*
X111780413Y-79372748D01*
X111965248Y-79187913D01*
X112110472Y-78970570D01*
X112204500Y-78743567D01*
X112298528Y-78970570D01*
X112443752Y-79187913D01*
X112628587Y-79372748D01*
X112845930Y-79517972D01*
X113087428Y-79618004D01*
X113343802Y-79669000D01*
X113605198Y-79669000D01*
X113861572Y-79618004D01*
X114103070Y-79517972D01*
X114320413Y-79372748D01*
X114490500Y-79202661D01*
X114660587Y-79372748D01*
X114877930Y-79517972D01*
X115119428Y-79618004D01*
X115375802Y-79669000D01*
X115637198Y-79669000D01*
X115893572Y-79618004D01*
X116135070Y-79517972D01*
X116352413Y-79372748D01*
X116390459Y-79334702D01*
X117233403Y-79334702D01*
X117304986Y-79578671D01*
X117560496Y-79699571D01*
X117834684Y-79768300D01*
X118117012Y-79782217D01*
X118396630Y-79740787D01*
X118662792Y-79645603D01*
X118788014Y-79578671D01*
X118859597Y-79334702D01*
X118046500Y-78521605D01*
X117233403Y-79334702D01*
X116390459Y-79334702D01*
X116537248Y-79187913D01*
X116682472Y-78970570D01*
X116717256Y-78886593D01*
X116742897Y-78958292D01*
X116809829Y-79083514D01*
X117053798Y-79155097D01*
X117866895Y-78342000D01*
X118226105Y-78342000D01*
X119039202Y-79155097D01*
X119283171Y-79083514D01*
X119404071Y-78828004D01*
X119472800Y-78553816D01*
X119486717Y-78271488D01*
X119445287Y-77991870D01*
X119350103Y-77725708D01*
X119283171Y-77600486D01*
X119039202Y-77528903D01*
X118226105Y-78342000D01*
X117866895Y-78342000D01*
X117053798Y-77528903D01*
X116809829Y-77600486D01*
X116716974Y-77796725D01*
X116682472Y-77713430D01*
X116537248Y-77496087D01*
X116390459Y-77349298D01*
X117233403Y-77349298D01*
X118046500Y-78162395D01*
X118859597Y-77349298D01*
X118788014Y-77105329D01*
X118532504Y-76984429D01*
X118258316Y-76915700D01*
X117975988Y-76901783D01*
X117696370Y-76943213D01*
X117430208Y-77038397D01*
X117304986Y-77105329D01*
X117233403Y-77349298D01*
X116390459Y-77349298D01*
X116352413Y-77311252D01*
X116135070Y-77166028D01*
X115893572Y-77065996D01*
X115637198Y-77015000D01*
X115375802Y-77015000D01*
X115119428Y-77065996D01*
X114877930Y-77166028D01*
X114660587Y-77311252D01*
X114490500Y-77481339D01*
X114320413Y-77311252D01*
X114103070Y-77166028D01*
X113861572Y-77065996D01*
X113605198Y-77015000D01*
X113343802Y-77015000D01*
X113087428Y-77065996D01*
X112845930Y-77166028D01*
X112628587Y-77311252D01*
X112443752Y-77496087D01*
X112298528Y-77713430D01*
X112204500Y-77940433D01*
X112110472Y-77713430D01*
X111965248Y-77496087D01*
X111780413Y-77311252D01*
X111563070Y-77166028D01*
X111321572Y-77065996D01*
X111065198Y-77015000D01*
X110803802Y-77015000D01*
X110547428Y-77065996D01*
X110305930Y-77166028D01*
X110088587Y-77311252D01*
X109903752Y-77496087D01*
X109758528Y-77713430D01*
X109658496Y-77954928D01*
X109607500Y-78211302D01*
X106402701Y-78211302D01*
X106366690Y-78030266D01*
X106281734Y-77825165D01*
X106158398Y-77640579D01*
X106001421Y-77483602D01*
X105816835Y-77360266D01*
X105611734Y-77275310D01*
X105394000Y-77232000D01*
X105172000Y-77232000D01*
X104954266Y-77275310D01*
X104749165Y-77360266D01*
X104564579Y-77483602D01*
X104407602Y-77640579D01*
X104284266Y-77825165D01*
X104199310Y-78030266D01*
X104156000Y-78248000D01*
X104156000Y-78470000D01*
X104199310Y-78687734D01*
X104284266Y-78892835D01*
X104406000Y-79075024D01*
X104406000Y-80093917D01*
X104401757Y-80137000D01*
X104406000Y-80180083D01*
X104406001Y-82805594D01*
X104368165Y-82821266D01*
X104183579Y-82944602D01*
X104026602Y-83101579D01*
X103903266Y-83286165D01*
X103818310Y-83491266D01*
X103775000Y-83709000D01*
X103775000Y-83931000D01*
X103818310Y-84148734D01*
X103892565Y-84328000D01*
X100782606Y-84328000D01*
X100527000Y-84072394D01*
X100527000Y-83575565D01*
X100837040Y-83575565D01*
X100904020Y-83815656D01*
X101153048Y-83932756D01*
X101420135Y-83999023D01*
X101695017Y-84011910D01*
X101967133Y-83970922D01*
X102226023Y-83877636D01*
X102341980Y-83815656D01*
X102408960Y-83575565D01*
X101623000Y-82789605D01*
X100837040Y-83575565D01*
X100527000Y-83575565D01*
X100527000Y-83359572D01*
X100657435Y-83395960D01*
X101443395Y-82610000D01*
X101802605Y-82610000D01*
X102588565Y-83395960D01*
X102828656Y-83328980D01*
X102945756Y-83079952D01*
X103012023Y-82812865D01*
X103024910Y-82537983D01*
X102983922Y-82265867D01*
X102890636Y-82006977D01*
X102828656Y-81891020D01*
X102588565Y-81824040D01*
X101802605Y-82610000D01*
X101443395Y-82610000D01*
X100657435Y-81824040D01*
X100527000Y-81860428D01*
X100527000Y-81644435D01*
X100837040Y-81644435D01*
X101623000Y-82430395D01*
X102408960Y-81644435D01*
X102341980Y-81404344D01*
X102092952Y-81287244D01*
X101825865Y-81220977D01*
X101550983Y-81208090D01*
X101278867Y-81249078D01*
X101019977Y-81342364D01*
X100904020Y-81404344D01*
X100837040Y-81644435D01*
X100527000Y-81644435D01*
X100527000Y-75324855D01*
X100614061Y-75324855D01*
X100614061Y-75775145D01*
X100701908Y-76216784D01*
X100874227Y-76632798D01*
X101124395Y-77007201D01*
X101442799Y-77325605D01*
X101817202Y-77575773D01*
X102233216Y-77748092D01*
X102674855Y-77835939D01*
X103125145Y-77835939D01*
X103566784Y-77748092D01*
X103982798Y-77575773D01*
X104357201Y-77325605D01*
X104675605Y-77007201D01*
X104925773Y-76632798D01*
X105098092Y-76216784D01*
X105185939Y-75775145D01*
X105185939Y-75475371D01*
X105351630Y-75475371D01*
X105351630Y-75874629D01*
X105429522Y-76266216D01*
X105582311Y-76635083D01*
X105804127Y-76967054D01*
X106086446Y-77249373D01*
X106418417Y-77471189D01*
X106787284Y-77623978D01*
X107178871Y-77701870D01*
X107578129Y-77701870D01*
X107969716Y-77623978D01*
X108338583Y-77471189D01*
X108670554Y-77249373D01*
X108952873Y-76967054D01*
X109174689Y-76635083D01*
X109327478Y-76266216D01*
X109405370Y-75874629D01*
X109405370Y-75475371D01*
X109327478Y-75083784D01*
X109174689Y-74714917D01*
X108952873Y-74382946D01*
X108670554Y-74100627D01*
X108338583Y-73878811D01*
X107969716Y-73726022D01*
X107578129Y-73648130D01*
X107178871Y-73648130D01*
X106787284Y-73726022D01*
X106418417Y-73878811D01*
X106086446Y-74100627D01*
X105804127Y-74382946D01*
X105582311Y-74714917D01*
X105429522Y-75083784D01*
X105351630Y-75475371D01*
X105185939Y-75475371D01*
X105185939Y-75324855D01*
X105098092Y-74883216D01*
X104925773Y-74467202D01*
X104675605Y-74092799D01*
X104357201Y-73774395D01*
X103982798Y-73524227D01*
X103566784Y-73351908D01*
X103125145Y-73264061D01*
X102674855Y-73264061D01*
X102233216Y-73351908D01*
X101817202Y-73524227D01*
X101442799Y-73774395D01*
X101124395Y-74092799D01*
X100874227Y-74467202D01*
X100701908Y-74883216D01*
X100614061Y-75324855D01*
X100527000Y-75324855D01*
X100527000Y-66427000D01*
X122773001Y-66427000D01*
X122773000Y-71769206D01*
G36*
X106912885Y-88413533D02*
G01*
X106835467Y-88600435D01*
X106796000Y-88798849D01*
X106796000Y-89001151D01*
X106835467Y-89199565D01*
X106912885Y-89386467D01*
X107025277Y-89554674D01*
X107168326Y-89697723D01*
X107336533Y-89810115D01*
X107523435Y-89887533D01*
X107721849Y-89927000D01*
X107924151Y-89927000D01*
X108122565Y-89887533D01*
X108309467Y-89810115D01*
X108406185Y-89745490D01*
X108430262Y-89774828D01*
X108510508Y-89840684D01*
X108602060Y-89889619D01*
X108701400Y-89919754D01*
X108804710Y-89929929D01*
X110905290Y-89929929D01*
X111008600Y-89919754D01*
X111107940Y-89889619D01*
X111199492Y-89840684D01*
X111279738Y-89774828D01*
X111345594Y-89694582D01*
X111394529Y-89603030D01*
X111424664Y-89503690D01*
X111434839Y-89400380D01*
X111434839Y-88399620D01*
X111434089Y-88392000D01*
X128452394Y-88392000D01*
X128773001Y-88712607D01*
X128773000Y-109407394D01*
X128507394Y-109673000D01*
X106527000Y-109673000D01*
X106527000Y-104330794D01*
X106530033Y-104300000D01*
X106517927Y-104177087D01*
X106482075Y-104058897D01*
X106423853Y-103949972D01*
X106345501Y-103854499D01*
X106250028Y-103776147D01*
X106189049Y-103743553D01*
X106193115Y-103737467D01*
X106270533Y-103550565D01*
X106310000Y-103352151D01*
X106310000Y-103149849D01*
X106270533Y-102951435D01*
X106193115Y-102764533D01*
X106080723Y-102596326D01*
X106060000Y-102575603D01*
X106060000Y-101640397D01*
X106080723Y-101619674D01*
X106193115Y-101451467D01*
X106260425Y-101288968D01*
X106471627Y-101605054D01*
X106753946Y-101887373D01*
X107085917Y-102109189D01*
X107454784Y-102261978D01*
X107846371Y-102339870D01*
X108245629Y-102339870D01*
X108637216Y-102261978D01*
X109006083Y-102109189D01*
X109338054Y-101887373D01*
X109620373Y-101605054D01*
X109842189Y-101273083D01*
X109994978Y-100904216D01*
X110072870Y-100512629D01*
X110072870Y-100113371D01*
X119735130Y-100113371D01*
X119735130Y-100512629D01*
X119813022Y-100904216D01*
X119965811Y-101273083D01*
X120187627Y-101605054D01*
X120469946Y-101887373D01*
X120801917Y-102109189D01*
X121170784Y-102261978D01*
X121562371Y-102339870D01*
X121961629Y-102339870D01*
X122353216Y-102261978D01*
X122722083Y-102109189D01*
X123054054Y-101887373D01*
X123336373Y-101605054D01*
X123558189Y-101273083D01*
X123710978Y-100904216D01*
X123788870Y-100512629D01*
X123788870Y-100324855D01*
X124114061Y-100324855D01*
X124114061Y-100775145D01*
X124201908Y-101216784D01*
X124374227Y-101632798D01*
X124624395Y-102007201D01*
X124942799Y-102325605D01*
X125317202Y-102575773D01*
X125733216Y-102748092D01*
X126174855Y-102835939D01*
X126625145Y-102835939D01*
X127066784Y-102748092D01*
X127482798Y-102575773D01*
X127857201Y-102325605D01*
X128175605Y-102007201D01*
X128425773Y-101632798D01*
X128598092Y-101216784D01*
X128685939Y-100775145D01*
X128685939Y-100324855D01*
X128598092Y-99883216D01*
X128425773Y-99467202D01*
X128175605Y-99092799D01*
X127857201Y-98774395D01*
X127482798Y-98524227D01*
X127066784Y-98351908D01*
X126625145Y-98264061D01*
X126174855Y-98264061D01*
X125733216Y-98351908D01*
X125317202Y-98524227D01*
X124942799Y-98774395D01*
X124624395Y-99092799D01*
X124374227Y-99467202D01*
X124201908Y-99883216D01*
X124114061Y-100324855D01*
X123788870Y-100324855D01*
X123788870Y-100113371D01*
X123710978Y-99721784D01*
X123558189Y-99352917D01*
X123336373Y-99020946D01*
X123054054Y-98738627D01*
X122722083Y-98516811D01*
X122353216Y-98364022D01*
X121961629Y-98286130D01*
X121562371Y-98286130D01*
X121170784Y-98364022D01*
X120801917Y-98516811D01*
X120469946Y-98738627D01*
X120187627Y-99020946D01*
X119965811Y-99352917D01*
X119813022Y-99721784D01*
X119735130Y-100113371D01*
X110072870Y-100113371D01*
X109994978Y-99721784D01*
X109842189Y-99352917D01*
X109620373Y-99020946D01*
X109338054Y-98738627D01*
X109188506Y-98638702D01*
X110280903Y-98638702D01*
X110352486Y-98882671D01*
X110607996Y-99003571D01*
X110882184Y-99072300D01*
X111164512Y-99086217D01*
X111444130Y-99044787D01*
X111710292Y-98949603D01*
X111835514Y-98882671D01*
X111907097Y-98638702D01*
X111094000Y-97825605D01*
X110280903Y-98638702D01*
X109188506Y-98638702D01*
X109006083Y-98516811D01*
X108637216Y-98364022D01*
X108245629Y-98286130D01*
X107846371Y-98286130D01*
X107454784Y-98364022D01*
X107085917Y-98516811D01*
X106753946Y-98738627D01*
X106471627Y-99020946D01*
X106249811Y-99352917D01*
X106097022Y-99721784D01*
X106019130Y-100113371D01*
X106019130Y-100248733D01*
X105937674Y-100167277D01*
X105769467Y-100054885D01*
X105582565Y-99977467D01*
X105384151Y-99938000D01*
X105181849Y-99938000D01*
X104983435Y-99977467D01*
X104796533Y-100054885D01*
X104628326Y-100167277D01*
X104485277Y-100310326D01*
X104372885Y-100478533D01*
X104295467Y-100665435D01*
X104256000Y-100863849D01*
X104256000Y-101066151D01*
X104295467Y-101264565D01*
X104372885Y-101451467D01*
X104485277Y-101619674D01*
X104506001Y-101640398D01*
X104506000Y-102575603D01*
X104485277Y-102596326D01*
X104372885Y-102764533D01*
X104295467Y-102951435D01*
X104256000Y-103149849D01*
X104256000Y-103352151D01*
X104295467Y-103550565D01*
X104346182Y-103673000D01*
X100527000Y-103673000D01*
X100527000Y-97716512D01*
X109653783Y-97716512D01*
X109695213Y-97996130D01*
X109790397Y-98262292D01*
X109857329Y-98387514D01*
X110101298Y-98459097D01*
X110914395Y-97646000D01*
X111273605Y-97646000D01*
X112086702Y-98459097D01*
X112330671Y-98387514D01*
X112423526Y-98191275D01*
X112458028Y-98274570D01*
X112603252Y-98491913D01*
X112788087Y-98676748D01*
X113005430Y-98821972D01*
X113246928Y-98922004D01*
X113503302Y-98973000D01*
X113764698Y-98973000D01*
X114021072Y-98922004D01*
X114262570Y-98821972D01*
X114479913Y-98676748D01*
X114650000Y-98506661D01*
X114820087Y-98676748D01*
X115037430Y-98821972D01*
X115278928Y-98922004D01*
X115535302Y-98973000D01*
X115796698Y-98973000D01*
X116053072Y-98922004D01*
X116294570Y-98821972D01*
X116511913Y-98676748D01*
X116696748Y-98491913D01*
X116841972Y-98274570D01*
X116936000Y-98047567D01*
X117030028Y-98274570D01*
X117175252Y-98491913D01*
X117360087Y-98676748D01*
X117577430Y-98821972D01*
X117818928Y-98922004D01*
X118075302Y-98973000D01*
X118336698Y-98973000D01*
X118593072Y-98922004D01*
X118834570Y-98821972D01*
X119051913Y-98676748D01*
X119236748Y-98491913D01*
X119381972Y-98274570D01*
X119482004Y-98033072D01*
X119533000Y-97776698D01*
X119533000Y-97515302D01*
X119482004Y-97258928D01*
X119381972Y-97017430D01*
X119236748Y-96800087D01*
X119051913Y-96615252D01*
X118834570Y-96470028D01*
X118593072Y-96369996D01*
X118336698Y-96319000D01*
X118075302Y-96319000D01*
X117818928Y-96369996D01*
X117577430Y-96470028D01*
X117360087Y-96615252D01*
X117175252Y-96800087D01*
X117030028Y-97017430D01*
X116936000Y-97244433D01*
X116841972Y-97017430D01*
X116696748Y-96800087D01*
X116511913Y-96615252D01*
X116294570Y-96470028D01*
X116053072Y-96369996D01*
X115796698Y-96319000D01*
X115535302Y-96319000D01*
X115278928Y-96369996D01*
X115037430Y-96470028D01*
X114820087Y-96615252D01*
X114650000Y-96785339D01*
X114479913Y-96615252D01*
X114262570Y-96470028D01*
X114021072Y-96369996D01*
X113764698Y-96319000D01*
X113503302Y-96319000D01*
X113246928Y-96369996D01*
X113005430Y-96470028D01*
X112788087Y-96615252D01*
X112603252Y-96800087D01*
X112458028Y-97017430D01*
X112423244Y-97101407D01*
X112397603Y-97029708D01*
X112330671Y-96904486D01*
X112086702Y-96832903D01*
X111273605Y-97646000D01*
X110914395Y-97646000D01*
X110101298Y-96832903D01*
X109857329Y-96904486D01*
X109736429Y-97159996D01*
X109667700Y-97434184D01*
X109653783Y-97716512D01*
X100527000Y-97716512D01*
X100527000Y-96653298D01*
X110280903Y-96653298D01*
X111094000Y-97466395D01*
X111907097Y-96653298D01*
X111835514Y-96409329D01*
X111580004Y-96288429D01*
X111305816Y-96219700D01*
X111023488Y-96205783D01*
X110743870Y-96247213D01*
X110477708Y-96342397D01*
X110352486Y-96409329D01*
X110280903Y-96653298D01*
X100527000Y-96653298D01*
X100527000Y-94513849D01*
X113781000Y-94513849D01*
X113781000Y-94716151D01*
X113820467Y-94914565D01*
X113897885Y-95101467D01*
X114010277Y-95269674D01*
X114153326Y-95412723D01*
X114321533Y-95525115D01*
X114508435Y-95602533D01*
X114706849Y-95642000D01*
X114909151Y-95642000D01*
X115107565Y-95602533D01*
X115294467Y-95525115D01*
X115462674Y-95412723D01*
X115483397Y-95392000D01*
X117434603Y-95392000D01*
X117455326Y-95412723D01*
X117623533Y-95525115D01*
X117810435Y-95602533D01*
X118008849Y-95642000D01*
X118211151Y-95642000D01*
X118409565Y-95602533D01*
X118596467Y-95525115D01*
X118764674Y-95412723D01*
X118907723Y-95269674D01*
X119020115Y-95101467D01*
X119097533Y-94914565D01*
X119137000Y-94716151D01*
X119137000Y-94513849D01*
X119097533Y-94315435D01*
X119020115Y-94128533D01*
X118907723Y-93960326D01*
X118764674Y-93817277D01*
X118596467Y-93704885D01*
X118409565Y-93627467D01*
X118211151Y-93588000D01*
X118008849Y-93588000D01*
X117810435Y-93627467D01*
X117623533Y-93704885D01*
X117455326Y-93817277D01*
X117434603Y-93838000D01*
X115483397Y-93838000D01*
X115462674Y-93817277D01*
X115294467Y-93704885D01*
X115107565Y-93627467D01*
X114909151Y-93588000D01*
X114706849Y-93588000D01*
X114508435Y-93627467D01*
X114321533Y-93704885D01*
X114153326Y-93817277D01*
X114010277Y-93960326D01*
X113897885Y-94128533D01*
X113820467Y-94315435D01*
X113781000Y-94513849D01*
X100527000Y-94513849D01*
X100527000Y-91940380D01*
X108166638Y-91940380D01*
X108178898Y-92064862D01*
X108215208Y-92184560D01*
X108274173Y-92294874D01*
X108353525Y-92391565D01*
X108450216Y-92470917D01*
X108560530Y-92529882D01*
X108680228Y-92566192D01*
X108804710Y-92578452D01*
X109569250Y-92575380D01*
X109728000Y-92416630D01*
X109728000Y-91567000D01*
X109982000Y-91567000D01*
X109982000Y-92416630D01*
X110140750Y-92575380D01*
X110905290Y-92578452D01*
X111029772Y-92566192D01*
X111149470Y-92529882D01*
X111259784Y-92470917D01*
X111356475Y-92391565D01*
X111435827Y-92294874D01*
X111494792Y-92184560D01*
X111531102Y-92064862D01*
X111543362Y-91940380D01*
X111540290Y-91725750D01*
X111381540Y-91567000D01*
X109982000Y-91567000D01*
X109728000Y-91567000D01*
X108328460Y-91567000D01*
X108169710Y-91725750D01*
X108166638Y-91940380D01*
X100527000Y-91940380D01*
X100527000Y-91085608D01*
X100537041Y-91075567D01*
X100604020Y-91315656D01*
X100853048Y-91432756D01*
X101120135Y-91499023D01*
X101395017Y-91511910D01*
X101667133Y-91470922D01*
X101926023Y-91377636D01*
X102041980Y-91315656D01*
X102108960Y-91075565D01*
X101973015Y-90939620D01*
X108166638Y-90939620D01*
X108169710Y-91154250D01*
X108328460Y-91313000D01*
X109728000Y-91313000D01*
X109728000Y-90463370D01*
X109982000Y-90463370D01*
X109982000Y-91313000D01*
X111381540Y-91313000D01*
X111540290Y-91154250D01*
X111543362Y-90939620D01*
X118435161Y-90939620D01*
X118435161Y-91940380D01*
X118445336Y-92043690D01*
X118475471Y-92143030D01*
X118524406Y-92234582D01*
X118590262Y-92314828D01*
X118670508Y-92380684D01*
X118762060Y-92429619D01*
X118861400Y-92459754D01*
X118964710Y-92469929D01*
X120015795Y-92469929D01*
X119947310Y-92635266D01*
X119904000Y-92853000D01*
X119904000Y-93075000D01*
X119947310Y-93292734D01*
X120032266Y-93497835D01*
X120154000Y-93680023D01*
X120154000Y-93809921D01*
X120149757Y-93853000D01*
X120166690Y-94024922D01*
X120216838Y-94190236D01*
X120298274Y-94342592D01*
X120380406Y-94442671D01*
X120380409Y-94442674D01*
X120407868Y-94476133D01*
X120441327Y-94503592D01*
X123039153Y-97101419D01*
X122995310Y-97207266D01*
X122952000Y-97425000D01*
X122952000Y-97647000D01*
X122995310Y-97864734D01*
X123080266Y-98069835D01*
X123203602Y-98254421D01*
X123360579Y-98411398D01*
X123545165Y-98534734D01*
X123750266Y-98619690D01*
X123968000Y-98663000D01*
X124190000Y-98663000D01*
X124407734Y-98619690D01*
X124612835Y-98534734D01*
X124797421Y-98411398D01*
X124954398Y-98254421D01*
X125077734Y-98069835D01*
X125162690Y-97864734D01*
X125206000Y-97647000D01*
X125206000Y-97425000D01*
X125162690Y-97207266D01*
X125077734Y-97002165D01*
X124954398Y-96817579D01*
X124951768Y-96814949D01*
X124943310Y-96729077D01*
X124893162Y-96563763D01*
X124833589Y-96452310D01*
X124811727Y-96411408D01*
X124702133Y-96277867D01*
X124668675Y-96250409D01*
X121984219Y-93565954D01*
X122029734Y-93497835D01*
X122114690Y-93292734D01*
X122158000Y-93075000D01*
X122158000Y-92853000D01*
X122114690Y-92635266D01*
X122029734Y-92430165D01*
X121906398Y-92245579D01*
X121749421Y-92088602D01*
X121590687Y-91982540D01*
X121594839Y-91940380D01*
X121594839Y-90939620D01*
X121584664Y-90836310D01*
X121554529Y-90736970D01*
X121505594Y-90645418D01*
X121439738Y-90565172D01*
X121359492Y-90499316D01*
X121267940Y-90450381D01*
X121168600Y-90420246D01*
X121065290Y-90410071D01*
X118964710Y-90410071D01*
X118861400Y-90420246D01*
X118762060Y-90450381D01*
X118670508Y-90499316D01*
X118590262Y-90565172D01*
X118524406Y-90645418D01*
X118475471Y-90736970D01*
X118445336Y-90836310D01*
X118435161Y-90939620D01*
X111543362Y-90939620D01*
X111531102Y-90815138D01*
X111494792Y-90695440D01*
X111435827Y-90585126D01*
X111356475Y-90488435D01*
X111259784Y-90409083D01*
X111149470Y-90350118D01*
X111029772Y-90313808D01*
X110905290Y-90301548D01*
X110140750Y-90304620D01*
X109982000Y-90463370D01*
X109728000Y-90463370D01*
X109569250Y-90304620D01*
X108804710Y-90301548D01*
X108680228Y-90313808D01*
X108560530Y-90350118D01*
X108450216Y-90409083D01*
X108353525Y-90488435D01*
X108274173Y-90585126D01*
X108215208Y-90695440D01*
X108178898Y-90815138D01*
X108166638Y-90939620D01*
X101973015Y-90939620D01*
X101323000Y-90289605D01*
X101308858Y-90303748D01*
X101129253Y-90124143D01*
X101143395Y-90110000D01*
X101502605Y-90110000D01*
X102288565Y-90895960D01*
X102528656Y-90828980D01*
X102645756Y-90579952D01*
X102712023Y-90312865D01*
X102724910Y-90037983D01*
X102683922Y-89765867D01*
X102590636Y-89506977D01*
X102528656Y-89391020D01*
X102288565Y-89324040D01*
X101502605Y-90110000D01*
X101143395Y-90110000D01*
X101129253Y-90095858D01*
X101308858Y-89916253D01*
X101323000Y-89930395D01*
X102108960Y-89144435D01*
X102041980Y-88904344D01*
X101792952Y-88787244D01*
X101525865Y-88720977D01*
X101250983Y-88708090D01*
X100978867Y-88749078D01*
X100719977Y-88842364D01*
X100604020Y-88904344D01*
X100537041Y-89144433D01*
X100527000Y-89134392D01*
X100527000Y-88647606D01*
X100782606Y-88392000D01*
X106927273Y-88392000D01*
X106912885Y-88413533D01*
G37*
X106912885Y-88413533D02*
X106835467Y-88600435D01*
X106796000Y-88798849D01*
X106796000Y-89001151D01*
X106835467Y-89199565D01*
X106912885Y-89386467D01*
X107025277Y-89554674D01*
X107168326Y-89697723D01*
X107336533Y-89810115D01*
X107523435Y-89887533D01*
X107721849Y-89927000D01*
X107924151Y-89927000D01*
X108122565Y-89887533D01*
X108309467Y-89810115D01*
X108406185Y-89745490D01*
X108430262Y-89774828D01*
X108510508Y-89840684D01*
X108602060Y-89889619D01*
X108701400Y-89919754D01*
X108804710Y-89929929D01*
X110905290Y-89929929D01*
X111008600Y-89919754D01*
X111107940Y-89889619D01*
X111199492Y-89840684D01*
X111279738Y-89774828D01*
X111345594Y-89694582D01*
X111394529Y-89603030D01*
X111424664Y-89503690D01*
X111434839Y-89400380D01*
X111434839Y-88399620D01*
X111434089Y-88392000D01*
X128452394Y-88392000D01*
X128773001Y-88712607D01*
X128773000Y-109407394D01*
X128507394Y-109673000D01*
X106527000Y-109673000D01*
X106527000Y-104330794D01*
X106530033Y-104300000D01*
X106517927Y-104177087D01*
X106482075Y-104058897D01*
X106423853Y-103949972D01*
X106345501Y-103854499D01*
X106250028Y-103776147D01*
X106189049Y-103743553D01*
X106193115Y-103737467D01*
X106270533Y-103550565D01*
X106310000Y-103352151D01*
X106310000Y-103149849D01*
X106270533Y-102951435D01*
X106193115Y-102764533D01*
X106080723Y-102596326D01*
X106060000Y-102575603D01*
X106060000Y-101640397D01*
X106080723Y-101619674D01*
X106193115Y-101451467D01*
X106260425Y-101288968D01*
X106471627Y-101605054D01*
X106753946Y-101887373D01*
X107085917Y-102109189D01*
X107454784Y-102261978D01*
X107846371Y-102339870D01*
X108245629Y-102339870D01*
X108637216Y-102261978D01*
X109006083Y-102109189D01*
X109338054Y-101887373D01*
X109620373Y-101605054D01*
X109842189Y-101273083D01*
X109994978Y-100904216D01*
X110072870Y-100512629D01*
X110072870Y-100113371D01*
X119735130Y-100113371D01*
X119735130Y-100512629D01*
X119813022Y-100904216D01*
X119965811Y-101273083D01*
X120187627Y-101605054D01*
X120469946Y-101887373D01*
X120801917Y-102109189D01*
X121170784Y-102261978D01*
X121562371Y-102339870D01*
X121961629Y-102339870D01*
X122353216Y-102261978D01*
X122722083Y-102109189D01*
X123054054Y-101887373D01*
X123336373Y-101605054D01*
X123558189Y-101273083D01*
X123710978Y-100904216D01*
X123788870Y-100512629D01*
X123788870Y-100324855D01*
X124114061Y-100324855D01*
X124114061Y-100775145D01*
X124201908Y-101216784D01*
X124374227Y-101632798D01*
X124624395Y-102007201D01*
X124942799Y-102325605D01*
X125317202Y-102575773D01*
X125733216Y-102748092D01*
X126174855Y-102835939D01*
X126625145Y-102835939D01*
X127066784Y-102748092D01*
X127482798Y-102575773D01*
X127857201Y-102325605D01*
X128175605Y-102007201D01*
X128425773Y-101632798D01*
X128598092Y-101216784D01*
X128685939Y-100775145D01*
X128685939Y-100324855D01*
X128598092Y-99883216D01*
X128425773Y-99467202D01*
X128175605Y-99092799D01*
X127857201Y-98774395D01*
X127482798Y-98524227D01*
X127066784Y-98351908D01*
X126625145Y-98264061D01*
X126174855Y-98264061D01*
X125733216Y-98351908D01*
X125317202Y-98524227D01*
X124942799Y-98774395D01*
X124624395Y-99092799D01*
X124374227Y-99467202D01*
X124201908Y-99883216D01*
X124114061Y-100324855D01*
X123788870Y-100324855D01*
X123788870Y-100113371D01*
X123710978Y-99721784D01*
X123558189Y-99352917D01*
X123336373Y-99020946D01*
X123054054Y-98738627D01*
X122722083Y-98516811D01*
X122353216Y-98364022D01*
X121961629Y-98286130D01*
X121562371Y-98286130D01*
X121170784Y-98364022D01*
X120801917Y-98516811D01*
X120469946Y-98738627D01*
X120187627Y-99020946D01*
X119965811Y-99352917D01*
X119813022Y-99721784D01*
X119735130Y-100113371D01*
X110072870Y-100113371D01*
X109994978Y-99721784D01*
X109842189Y-99352917D01*
X109620373Y-99020946D01*
X109338054Y-98738627D01*
X109188506Y-98638702D01*
X110280903Y-98638702D01*
X110352486Y-98882671D01*
X110607996Y-99003571D01*
X110882184Y-99072300D01*
X111164512Y-99086217D01*
X111444130Y-99044787D01*
X111710292Y-98949603D01*
X111835514Y-98882671D01*
X111907097Y-98638702D01*
X111094000Y-97825605D01*
X110280903Y-98638702D01*
X109188506Y-98638702D01*
X109006083Y-98516811D01*
X108637216Y-98364022D01*
X108245629Y-98286130D01*
X107846371Y-98286130D01*
X107454784Y-98364022D01*
X107085917Y-98516811D01*
X106753946Y-98738627D01*
X106471627Y-99020946D01*
X106249811Y-99352917D01*
X106097022Y-99721784D01*
X106019130Y-100113371D01*
X106019130Y-100248733D01*
X105937674Y-100167277D01*
X105769467Y-100054885D01*
X105582565Y-99977467D01*
X105384151Y-99938000D01*
X105181849Y-99938000D01*
X104983435Y-99977467D01*
X104796533Y-100054885D01*
X104628326Y-100167277D01*
X104485277Y-100310326D01*
X104372885Y-100478533D01*
X104295467Y-100665435D01*
X104256000Y-100863849D01*
X104256000Y-101066151D01*
X104295467Y-101264565D01*
X104372885Y-101451467D01*
X104485277Y-101619674D01*
X104506001Y-101640398D01*
X104506000Y-102575603D01*
X104485277Y-102596326D01*
X104372885Y-102764533D01*
X104295467Y-102951435D01*
X104256000Y-103149849D01*
X104256000Y-103352151D01*
X104295467Y-103550565D01*
X104346182Y-103673000D01*
X100527000Y-103673000D01*
X100527000Y-97716512D01*
X109653783Y-97716512D01*
X109695213Y-97996130D01*
X109790397Y-98262292D01*
X109857329Y-98387514D01*
X110101298Y-98459097D01*
X110914395Y-97646000D01*
X111273605Y-97646000D01*
X112086702Y-98459097D01*
X112330671Y-98387514D01*
X112423526Y-98191275D01*
X112458028Y-98274570D01*
X112603252Y-98491913D01*
X112788087Y-98676748D01*
X113005430Y-98821972D01*
X113246928Y-98922004D01*
X113503302Y-98973000D01*
X113764698Y-98973000D01*
X114021072Y-98922004D01*
X114262570Y-98821972D01*
X114479913Y-98676748D01*
X114650000Y-98506661D01*
X114820087Y-98676748D01*
X115037430Y-98821972D01*
X115278928Y-98922004D01*
X115535302Y-98973000D01*
X115796698Y-98973000D01*
X116053072Y-98922004D01*
X116294570Y-98821972D01*
X116511913Y-98676748D01*
X116696748Y-98491913D01*
X116841972Y-98274570D01*
X116936000Y-98047567D01*
X117030028Y-98274570D01*
X117175252Y-98491913D01*
X117360087Y-98676748D01*
X117577430Y-98821972D01*
X117818928Y-98922004D01*
X118075302Y-98973000D01*
X118336698Y-98973000D01*
X118593072Y-98922004D01*
X118834570Y-98821972D01*
X119051913Y-98676748D01*
X119236748Y-98491913D01*
X119381972Y-98274570D01*
X119482004Y-98033072D01*
X119533000Y-97776698D01*
X119533000Y-97515302D01*
X119482004Y-97258928D01*
X119381972Y-97017430D01*
X119236748Y-96800087D01*
X119051913Y-96615252D01*
X118834570Y-96470028D01*
X118593072Y-96369996D01*
X118336698Y-96319000D01*
X118075302Y-96319000D01*
X117818928Y-96369996D01*
X117577430Y-96470028D01*
X117360087Y-96615252D01*
X117175252Y-96800087D01*
X117030028Y-97017430D01*
X116936000Y-97244433D01*
X116841972Y-97017430D01*
X116696748Y-96800087D01*
X116511913Y-96615252D01*
X116294570Y-96470028D01*
X116053072Y-96369996D01*
X115796698Y-96319000D01*
X115535302Y-96319000D01*
X115278928Y-96369996D01*
X115037430Y-96470028D01*
X114820087Y-96615252D01*
X114650000Y-96785339D01*
X114479913Y-96615252D01*
X114262570Y-96470028D01*
X114021072Y-96369996D01*
X113764698Y-96319000D01*
X113503302Y-96319000D01*
X113246928Y-96369996D01*
X113005430Y-96470028D01*
X112788087Y-96615252D01*
X112603252Y-96800087D01*
X112458028Y-97017430D01*
X112423244Y-97101407D01*
X112397603Y-97029708D01*
X112330671Y-96904486D01*
X112086702Y-96832903D01*
X111273605Y-97646000D01*
X110914395Y-97646000D01*
X110101298Y-96832903D01*
X109857329Y-96904486D01*
X109736429Y-97159996D01*
X109667700Y-97434184D01*
X109653783Y-97716512D01*
X100527000Y-97716512D01*
X100527000Y-96653298D01*
X110280903Y-96653298D01*
X111094000Y-97466395D01*
X111907097Y-96653298D01*
X111835514Y-96409329D01*
X111580004Y-96288429D01*
X111305816Y-96219700D01*
X111023488Y-96205783D01*
X110743870Y-96247213D01*
X110477708Y-96342397D01*
X110352486Y-96409329D01*
X110280903Y-96653298D01*
X100527000Y-96653298D01*
X100527000Y-94513849D01*
X113781000Y-94513849D01*
X113781000Y-94716151D01*
X113820467Y-94914565D01*
X113897885Y-95101467D01*
X114010277Y-95269674D01*
X114153326Y-95412723D01*
X114321533Y-95525115D01*
X114508435Y-95602533D01*
X114706849Y-95642000D01*
X114909151Y-95642000D01*
X115107565Y-95602533D01*
X115294467Y-95525115D01*
X115462674Y-95412723D01*
X115483397Y-95392000D01*
X117434603Y-95392000D01*
X117455326Y-95412723D01*
X117623533Y-95525115D01*
X117810435Y-95602533D01*
X118008849Y-95642000D01*
X118211151Y-95642000D01*
X118409565Y-95602533D01*
X118596467Y-95525115D01*
X118764674Y-95412723D01*
X118907723Y-95269674D01*
X119020115Y-95101467D01*
X119097533Y-94914565D01*
X119137000Y-94716151D01*
X119137000Y-94513849D01*
X119097533Y-94315435D01*
X119020115Y-94128533D01*
X118907723Y-93960326D01*
X118764674Y-93817277D01*
X118596467Y-93704885D01*
X118409565Y-93627467D01*
X118211151Y-93588000D01*
X118008849Y-93588000D01*
X117810435Y-93627467D01*
X117623533Y-93704885D01*
X117455326Y-93817277D01*
X117434603Y-93838000D01*
X115483397Y-93838000D01*
X115462674Y-93817277D01*
X115294467Y-93704885D01*
X115107565Y-93627467D01*
X114909151Y-93588000D01*
X114706849Y-93588000D01*
X114508435Y-93627467D01*
X114321533Y-93704885D01*
X114153326Y-93817277D01*
X114010277Y-93960326D01*
X113897885Y-94128533D01*
X113820467Y-94315435D01*
X113781000Y-94513849D01*
X100527000Y-94513849D01*
X100527000Y-91940380D01*
X108166638Y-91940380D01*
X108178898Y-92064862D01*
X108215208Y-92184560D01*
X108274173Y-92294874D01*
X108353525Y-92391565D01*
X108450216Y-92470917D01*
X108560530Y-92529882D01*
X108680228Y-92566192D01*
X108804710Y-92578452D01*
X109569250Y-92575380D01*
X109728000Y-92416630D01*
X109728000Y-91567000D01*
X109982000Y-91567000D01*
X109982000Y-92416630D01*
X110140750Y-92575380D01*
X110905290Y-92578452D01*
X111029772Y-92566192D01*
X111149470Y-92529882D01*
X111259784Y-92470917D01*
X111356475Y-92391565D01*
X111435827Y-92294874D01*
X111494792Y-92184560D01*
X111531102Y-92064862D01*
X111543362Y-91940380D01*
X111540290Y-91725750D01*
X111381540Y-91567000D01*
X109982000Y-91567000D01*
X109728000Y-91567000D01*
X108328460Y-91567000D01*
X108169710Y-91725750D01*
X108166638Y-91940380D01*
X100527000Y-91940380D01*
X100527000Y-91085608D01*
X100537041Y-91075567D01*
X100604020Y-91315656D01*
X100853048Y-91432756D01*
X101120135Y-91499023D01*
X101395017Y-91511910D01*
X101667133Y-91470922D01*
X101926023Y-91377636D01*
X102041980Y-91315656D01*
X102108960Y-91075565D01*
X101973015Y-90939620D01*
X108166638Y-90939620D01*
X108169710Y-91154250D01*
X108328460Y-91313000D01*
X109728000Y-91313000D01*
X109728000Y-90463370D01*
X109982000Y-90463370D01*
X109982000Y-91313000D01*
X111381540Y-91313000D01*
X111540290Y-91154250D01*
X111543362Y-90939620D01*
X118435161Y-90939620D01*
X118435161Y-91940380D01*
X118445336Y-92043690D01*
X118475471Y-92143030D01*
X118524406Y-92234582D01*
X118590262Y-92314828D01*
X118670508Y-92380684D01*
X118762060Y-92429619D01*
X118861400Y-92459754D01*
X118964710Y-92469929D01*
X120015795Y-92469929D01*
X119947310Y-92635266D01*
X119904000Y-92853000D01*
X119904000Y-93075000D01*
X119947310Y-93292734D01*
X120032266Y-93497835D01*
X120154000Y-93680023D01*
X120154000Y-93809921D01*
X120149757Y-93853000D01*
X120166690Y-94024922D01*
X120216838Y-94190236D01*
X120298274Y-94342592D01*
X120380406Y-94442671D01*
X120380409Y-94442674D01*
X120407868Y-94476133D01*
X120441327Y-94503592D01*
X123039153Y-97101419D01*
X122995310Y-97207266D01*
X122952000Y-97425000D01*
X122952000Y-97647000D01*
X122995310Y-97864734D01*
X123080266Y-98069835D01*
X123203602Y-98254421D01*
X123360579Y-98411398D01*
X123545165Y-98534734D01*
X123750266Y-98619690D01*
X123968000Y-98663000D01*
X124190000Y-98663000D01*
X124407734Y-98619690D01*
X124612835Y-98534734D01*
X124797421Y-98411398D01*
X124954398Y-98254421D01*
X125077734Y-98069835D01*
X125162690Y-97864734D01*
X125206000Y-97647000D01*
X125206000Y-97425000D01*
X125162690Y-97207266D01*
X125077734Y-97002165D01*
X124954398Y-96817579D01*
X124951768Y-96814949D01*
X124943310Y-96729077D01*
X124893162Y-96563763D01*
X124833589Y-96452310D01*
X124811727Y-96411408D01*
X124702133Y-96277867D01*
X124668675Y-96250409D01*
X121984219Y-93565954D01*
X122029734Y-93497835D01*
X122114690Y-93292734D01*
X122158000Y-93075000D01*
X122158000Y-92853000D01*
X122114690Y-92635266D01*
X122029734Y-92430165D01*
X121906398Y-92245579D01*
X121749421Y-92088602D01*
X121590687Y-91982540D01*
X121594839Y-91940380D01*
X121594839Y-90939620D01*
X121584664Y-90836310D01*
X121554529Y-90736970D01*
X121505594Y-90645418D01*
X121439738Y-90565172D01*
X121359492Y-90499316D01*
X121267940Y-90450381D01*
X121168600Y-90420246D01*
X121065290Y-90410071D01*
X118964710Y-90410071D01*
X118861400Y-90420246D01*
X118762060Y-90450381D01*
X118670508Y-90499316D01*
X118590262Y-90565172D01*
X118524406Y-90645418D01*
X118475471Y-90736970D01*
X118445336Y-90836310D01*
X118435161Y-90939620D01*
X111543362Y-90939620D01*
X111531102Y-90815138D01*
X111494792Y-90695440D01*
X111435827Y-90585126D01*
X111356475Y-90488435D01*
X111259784Y-90409083D01*
X111149470Y-90350118D01*
X111029772Y-90313808D01*
X110905290Y-90301548D01*
X110140750Y-90304620D01*
X109982000Y-90463370D01*
X109728000Y-90463370D01*
X109569250Y-90304620D01*
X108804710Y-90301548D01*
X108680228Y-90313808D01*
X108560530Y-90350118D01*
X108450216Y-90409083D01*
X108353525Y-90488435D01*
X108274173Y-90585126D01*
X108215208Y-90695440D01*
X108178898Y-90815138D01*
X108166638Y-90939620D01*
X101973015Y-90939620D01*
X101323000Y-90289605D01*
X101308858Y-90303748D01*
X101129253Y-90124143D01*
X101143395Y-90110000D01*
X101502605Y-90110000D01*
X102288565Y-90895960D01*
X102528656Y-90828980D01*
X102645756Y-90579952D01*
X102712023Y-90312865D01*
X102724910Y-90037983D01*
X102683922Y-89765867D01*
X102590636Y-89506977D01*
X102528656Y-89391020D01*
X102288565Y-89324040D01*
X101502605Y-90110000D01*
X101143395Y-90110000D01*
X101129253Y-90095858D01*
X101308858Y-89916253D01*
X101323000Y-89930395D01*
X102108960Y-89144435D01*
X102041980Y-88904344D01*
X101792952Y-88787244D01*
X101525865Y-88720977D01*
X101250983Y-88708090D01*
X100978867Y-88749078D01*
X100719977Y-88842364D01*
X100604020Y-88904344D01*
X100537041Y-89144433D01*
X100527000Y-89134392D01*
X100527000Y-88647606D01*
X100782606Y-88392000D01*
X106927273Y-88392000D01*
X106912885Y-88413533D01*
M02*
