G04 #@! TF.GenerationSoftware,KiCad,Pcbnew,5.1.5+dfsg1-2build2*
G04 #@! TF.CreationDate,2021-01-26T01:31:42+03:00*
G04 #@! TF.ProjectId,usb_ISO,7573625f-4953-44f2-9e6b-696361645f70,rev?*
G04 #@! TF.SameCoordinates,Original*
G04 #@! TF.FileFunction,Legend,Top*
G04 #@! TF.FilePolarity,Positive*
%FSLAX46Y46*%
G04 Gerber Fmt 4.6, Leading zero omitted, Abs format (unit mm)*
G04 Created by KiCad (PCBNEW 5.1.5+dfsg1-2build2) date 2021-01-26 01:31:42*
%MOMM*%
%LPD*%
G04 APERTURE LIST*
%ADD10C,0.127000*%
%ADD11C,0.099060*%
%ADD12C,0.200000*%
%ADD13C,0.190000*%
%ADD14C,0.140000*%
%ADD15C,0.150000*%
G04 APERTURE END LIST*
D10*
X124968000Y-92456000D02*
X124968000Y-94996000D01*
X124968000Y-94996000D02*
X123444000Y-94996000D01*
X123444000Y-94996000D02*
X123444000Y-92456000D01*
X123444000Y-92456000D02*
X124968000Y-92456000D01*
X125349000Y-92138500D02*
X125349000Y-95313500D01*
X127127000Y-95313500D02*
X127127000Y-92138500D01*
X127127000Y-92138500D02*
X125349000Y-92138500D01*
X125349000Y-95313500D02*
X127127000Y-95313500D01*
D11*
X125539500Y-92011500D02*
G75*
G03X125539500Y-92011500I-127000J0D01*
G01*
D10*
X123190000Y-89662000D02*
X123190000Y-92202000D01*
X123190000Y-92202000D02*
X121666000Y-92202000D01*
X121666000Y-92202000D02*
X121666000Y-89662000D01*
X121666000Y-89662000D02*
X123190000Y-89662000D01*
X123190000Y-94996000D02*
X121666000Y-94996000D01*
X123190000Y-92456000D02*
X123190000Y-94996000D01*
X121666000Y-92456000D02*
X123190000Y-92456000D01*
X121666000Y-94996000D02*
X121666000Y-92456000D01*
X110314000Y-99043000D02*
X111838000Y-99043000D01*
X110314000Y-101583000D02*
X110314000Y-99043000D01*
X111838000Y-101583000D02*
X110314000Y-101583000D01*
X111838000Y-99043000D02*
X111838000Y-101583000D01*
X105664000Y-88646000D02*
X105664000Y-91186000D01*
X105664000Y-91186000D02*
X104140000Y-91186000D01*
X104140000Y-91186000D02*
X104140000Y-88646000D01*
X104140000Y-88646000D02*
X105664000Y-88646000D01*
X106426000Y-83566000D02*
X104902000Y-83566000D01*
X106426000Y-81026000D02*
X106426000Y-83566000D01*
X104902000Y-81026000D02*
X106426000Y-81026000D01*
X104902000Y-83566000D02*
X104902000Y-81026000D01*
X108204000Y-83566000D02*
X106680000Y-83566000D01*
X108204000Y-81026000D02*
X108204000Y-83566000D01*
X106680000Y-81026000D02*
X108204000Y-81026000D01*
X106680000Y-83566000D02*
X106680000Y-81026000D01*
X118808500Y-74549000D02*
X118808500Y-77089000D01*
X118808500Y-77089000D02*
X117284500Y-77089000D01*
X117284500Y-77089000D02*
X117284500Y-74549000D01*
X117284500Y-74549000D02*
X118808500Y-74549000D01*
X102362000Y-98044000D02*
X103505000Y-98044000D01*
X103505000Y-98044000D02*
X103505000Y-99377500D01*
X105410000Y-98044000D02*
X104267000Y-98044000D01*
X104267000Y-98044000D02*
X104267000Y-99377500D01*
X104457500Y-100330000D02*
X103314500Y-100330000D01*
X105410000Y-99377500D02*
X102362000Y-99377500D01*
X105410000Y-98044000D02*
X105410000Y-99377500D01*
X105410000Y-99377500D02*
X105410000Y-100330000D01*
X105410000Y-100330000D02*
X104457500Y-100330000D01*
X104457500Y-100330000D02*
X104457500Y-101600000D01*
X104457500Y-101600000D02*
X103314500Y-101600000D01*
X103314500Y-101600000D02*
X103314500Y-100330000D01*
X103314500Y-100330000D02*
X102362000Y-100330000D01*
X102362000Y-100330000D02*
X102362000Y-98044000D01*
X127000000Y-75692000D02*
X127000000Y-77978000D01*
X126047500Y-75692000D02*
X127000000Y-75692000D01*
X126047500Y-74422000D02*
X126047500Y-75692000D01*
X124904500Y-74422000D02*
X126047500Y-74422000D01*
X124904500Y-75692000D02*
X124904500Y-74422000D01*
X123952000Y-75692000D02*
X124904500Y-75692000D01*
X123952000Y-76644500D02*
X123952000Y-75692000D01*
X123952000Y-77978000D02*
X123952000Y-76644500D01*
X123952000Y-76644500D02*
X127000000Y-76644500D01*
X124904500Y-75692000D02*
X126047500Y-75692000D01*
X125095000Y-77978000D02*
X125095000Y-76644500D01*
X123952000Y-77978000D02*
X125095000Y-77978000D01*
X125857000Y-77978000D02*
X125857000Y-76644500D01*
X127000000Y-77978000D02*
X125857000Y-77978000D01*
X117348000Y-98742500D02*
X117348000Y-101917500D01*
X119126000Y-101917500D02*
X119126000Y-98742500D01*
X119126000Y-98742500D02*
X117348000Y-98742500D01*
X117348000Y-101917500D02*
X119126000Y-101917500D01*
D11*
X117538500Y-98615500D02*
G75*
G03X117538500Y-98615500I-127000J0D01*
G01*
X110172500Y-74104500D02*
G75*
G03X110172500Y-74104500I-127000J0D01*
G01*
D10*
X109982000Y-77406500D02*
X111760000Y-77406500D01*
X111760000Y-74231500D02*
X109982000Y-74231500D01*
X111760000Y-77406500D02*
X111760000Y-74231500D01*
X109982000Y-74231500D02*
X109982000Y-77406500D01*
X107442000Y-95250000D02*
X107442000Y-97790000D01*
X107442000Y-97790000D02*
X105918000Y-97790000D01*
X105918000Y-97790000D02*
X105918000Y-95250000D01*
X105918000Y-95250000D02*
X107442000Y-95250000D01*
X100330000Y-95250000D02*
X101854000Y-95250000D01*
X100330000Y-97790000D02*
X100330000Y-95250000D01*
X101854000Y-97790000D02*
X100330000Y-97790000D01*
X101854000Y-95250000D02*
X101854000Y-97790000D01*
X121920000Y-78232000D02*
X123444000Y-78232000D01*
X121920000Y-80772000D02*
X121920000Y-78232000D01*
X123444000Y-80772000D02*
X121920000Y-80772000D01*
X123444000Y-78232000D02*
X123444000Y-80772000D01*
D12*
X111150000Y-90380000D02*
G75*
G03X111150000Y-90380000I-500000J0D01*
G01*
X109650000Y-91380000D02*
X109650000Y-83880000D01*
X120150000Y-91380000D02*
X109650000Y-91380000D01*
X120150000Y-83880000D02*
X120150000Y-91380000D01*
X109650000Y-83880000D02*
X120150000Y-83880000D01*
D10*
X104521000Y-83883500D02*
X104521000Y-80708500D01*
X102743000Y-80708500D02*
X102743000Y-83883500D01*
X102743000Y-83883500D02*
X104521000Y-83883500D01*
X104521000Y-80708500D02*
X102743000Y-80708500D01*
D11*
X104584500Y-84010500D02*
G75*
G03X104584500Y-84010500I-127000J0D01*
G01*
D10*
X108204000Y-78232000D02*
X108204000Y-80772000D01*
X108204000Y-80772000D02*
X106680000Y-80772000D01*
X106680000Y-80772000D02*
X106680000Y-78232000D01*
X106680000Y-78232000D02*
X108204000Y-78232000D01*
X129032000Y-78232000D02*
X129032000Y-80772000D01*
X129032000Y-80772000D02*
X127508000Y-80772000D01*
X127508000Y-80772000D02*
X127508000Y-78232000D01*
X127508000Y-78232000D02*
X129032000Y-78232000D01*
X102108000Y-92456000D02*
X103632000Y-92456000D01*
X102108000Y-94996000D02*
X102108000Y-92456000D01*
X103632000Y-94996000D02*
X102108000Y-94996000D01*
X103632000Y-92456000D02*
X103632000Y-94996000D01*
X105664000Y-92456000D02*
X105664000Y-94996000D01*
X105664000Y-94996000D02*
X104140000Y-94996000D01*
X104140000Y-94996000D02*
X104140000Y-92456000D01*
X104140000Y-92456000D02*
X105664000Y-92456000D01*
X127254000Y-83566000D02*
X125730000Y-83566000D01*
X127254000Y-81026000D02*
X127254000Y-83566000D01*
X125730000Y-81026000D02*
X127254000Y-81026000D01*
X125730000Y-83566000D02*
X125730000Y-81026000D01*
X123698000Y-83566000D02*
X123698000Y-81026000D01*
X123698000Y-81026000D02*
X125222000Y-81026000D01*
X125222000Y-81026000D02*
X125222000Y-83566000D01*
X125222000Y-83566000D02*
X123698000Y-83566000D01*
X102108000Y-95250000D02*
X103632000Y-95250000D01*
X102108000Y-97790000D02*
X102108000Y-95250000D01*
X103632000Y-97790000D02*
X102108000Y-97790000D01*
X103632000Y-95250000D02*
X103632000Y-97790000D01*
X105664000Y-95250000D02*
X105664000Y-97790000D01*
X105664000Y-97790000D02*
X104140000Y-97790000D01*
X104140000Y-97790000D02*
X104140000Y-95250000D01*
X104140000Y-95250000D02*
X105664000Y-95250000D01*
X127254000Y-80772000D02*
X125730000Y-80772000D01*
X127254000Y-78232000D02*
X127254000Y-80772000D01*
X125730000Y-78232000D02*
X127254000Y-78232000D01*
X125730000Y-80772000D02*
X125730000Y-78232000D01*
X123698000Y-80772000D02*
X123698000Y-78232000D01*
X123698000Y-78232000D02*
X125222000Y-78232000D01*
X125222000Y-78232000D02*
X125222000Y-80772000D01*
X125222000Y-80772000D02*
X123698000Y-80772000D01*
D13*
X124690142Y-98248647D02*
X124737761Y-98296266D01*
X124785380Y-98439123D01*
X124785380Y-98534361D01*
X124737761Y-98677219D01*
X124642523Y-98772457D01*
X124547285Y-98820076D01*
X124356809Y-98867695D01*
X124213952Y-98867695D01*
X124023476Y-98820076D01*
X123928238Y-98772457D01*
X123833000Y-98677219D01*
X123785380Y-98534361D01*
X123785380Y-98439123D01*
X123833000Y-98296266D01*
X123880619Y-98248647D01*
X124785380Y-97296266D02*
X124785380Y-97867695D01*
X124785380Y-97581980D02*
X123785380Y-97581980D01*
X123928238Y-97677219D01*
X124023476Y-97772457D01*
X124071095Y-97867695D01*
X123785380Y-96677219D02*
X123785380Y-96581980D01*
X123833000Y-96486742D01*
X123880619Y-96439123D01*
X123975857Y-96391504D01*
X124166333Y-96343885D01*
X124404428Y-96343885D01*
X124594904Y-96391504D01*
X124690142Y-96439123D01*
X124737761Y-96486742D01*
X124785380Y-96581980D01*
X124785380Y-96677219D01*
X124737761Y-96772457D01*
X124690142Y-96820076D01*
X124594904Y-96867695D01*
X124404428Y-96915314D01*
X124166333Y-96915314D01*
X123975857Y-96867695D01*
X123880619Y-96820076D01*
X123833000Y-96772457D01*
X123785380Y-96677219D01*
X123785380Y-96010552D02*
X123785380Y-95391504D01*
X124166333Y-95724838D01*
X124166333Y-95581980D01*
X124213952Y-95486742D01*
X124261571Y-95439123D01*
X124356809Y-95391504D01*
X124594904Y-95391504D01*
X124690142Y-95439123D01*
X124737761Y-95486742D01*
X124785380Y-95581980D01*
X124785380Y-95867695D01*
X124737761Y-95962933D01*
X124690142Y-96010552D01*
X126722142Y-98147047D02*
X126769761Y-98194666D01*
X126817380Y-98337523D01*
X126817380Y-98432761D01*
X126769761Y-98575619D01*
X126674523Y-98670857D01*
X126579285Y-98718476D01*
X126388809Y-98766095D01*
X126245952Y-98766095D01*
X126055476Y-98718476D01*
X125960238Y-98670857D01*
X125865000Y-98575619D01*
X125817380Y-98432761D01*
X125817380Y-98337523D01*
X125865000Y-98194666D01*
X125912619Y-98147047D01*
X126817380Y-97194666D02*
X126817380Y-97766095D01*
X126817380Y-97480380D02*
X125817380Y-97480380D01*
X125960238Y-97575619D01*
X126055476Y-97670857D01*
X126103095Y-97766095D01*
X125817380Y-96575619D02*
X125817380Y-96480380D01*
X125865000Y-96385142D01*
X125912619Y-96337523D01*
X126007857Y-96289904D01*
X126198333Y-96242285D01*
X126436428Y-96242285D01*
X126626904Y-96289904D01*
X126722142Y-96337523D01*
X126769761Y-96385142D01*
X126817380Y-96480380D01*
X126817380Y-96575619D01*
X126769761Y-96670857D01*
X126722142Y-96718476D01*
X126626904Y-96766095D01*
X126436428Y-96813714D01*
X126198333Y-96813714D01*
X126007857Y-96766095D01*
X125912619Y-96718476D01*
X125865000Y-96670857D01*
X125817380Y-96575619D01*
X125912619Y-95861333D02*
X125865000Y-95813714D01*
X125817380Y-95718476D01*
X125817380Y-95480380D01*
X125865000Y-95385142D01*
X125912619Y-95337523D01*
X126007857Y-95289904D01*
X126103095Y-95289904D01*
X126245952Y-95337523D01*
X126817380Y-95908952D01*
X126817380Y-95289904D01*
X122880380Y-88876047D02*
X122404190Y-89209380D01*
X122880380Y-89447476D02*
X121880380Y-89447476D01*
X121880380Y-89066523D01*
X121928000Y-88971285D01*
X121975619Y-88923666D01*
X122070857Y-88876047D01*
X122213714Y-88876047D01*
X122308952Y-88923666D01*
X122356571Y-88971285D01*
X122404190Y-89066523D01*
X122404190Y-89447476D01*
X122880380Y-87923666D02*
X122880380Y-88495095D01*
X122880380Y-88209380D02*
X121880380Y-88209380D01*
X122023238Y-88304619D01*
X122118476Y-88399857D01*
X122166095Y-88495095D01*
X121880380Y-87304619D02*
X121880380Y-87209380D01*
X121928000Y-87114142D01*
X121975619Y-87066523D01*
X122070857Y-87018904D01*
X122261333Y-86971285D01*
X122499428Y-86971285D01*
X122689904Y-87018904D01*
X122785142Y-87066523D01*
X122832761Y-87114142D01*
X122880380Y-87209380D01*
X122880380Y-87304619D01*
X122832761Y-87399857D01*
X122785142Y-87447476D01*
X122689904Y-87495095D01*
X122499428Y-87542714D01*
X122261333Y-87542714D01*
X122070857Y-87495095D01*
X121975619Y-87447476D01*
X121928000Y-87399857D01*
X121880380Y-87304619D01*
X121880380Y-86637952D02*
X121880380Y-86018904D01*
X122261333Y-86352238D01*
X122261333Y-86209380D01*
X122308952Y-86114142D01*
X122356571Y-86066523D01*
X122451809Y-86018904D01*
X122689904Y-86018904D01*
X122785142Y-86066523D01*
X122832761Y-86114142D01*
X122880380Y-86209380D01*
X122880380Y-86495095D01*
X122832761Y-86590333D01*
X122785142Y-86637952D01*
X122835942Y-98274047D02*
X122883561Y-98321666D01*
X122931180Y-98464523D01*
X122931180Y-98559761D01*
X122883561Y-98702619D01*
X122788323Y-98797857D01*
X122693085Y-98845476D01*
X122502609Y-98893095D01*
X122359752Y-98893095D01*
X122169276Y-98845476D01*
X122074038Y-98797857D01*
X121978800Y-98702619D01*
X121931180Y-98559761D01*
X121931180Y-98464523D01*
X121978800Y-98321666D01*
X122026419Y-98274047D01*
X122931180Y-97321666D02*
X122931180Y-97893095D01*
X122931180Y-97607380D02*
X121931180Y-97607380D01*
X122074038Y-97702619D01*
X122169276Y-97797857D01*
X122216895Y-97893095D01*
X121931180Y-96702619D02*
X121931180Y-96607380D01*
X121978800Y-96512142D01*
X122026419Y-96464523D01*
X122121657Y-96416904D01*
X122312133Y-96369285D01*
X122550228Y-96369285D01*
X122740704Y-96416904D01*
X122835942Y-96464523D01*
X122883561Y-96512142D01*
X122931180Y-96607380D01*
X122931180Y-96702619D01*
X122883561Y-96797857D01*
X122835942Y-96845476D01*
X122740704Y-96893095D01*
X122550228Y-96940714D01*
X122312133Y-96940714D01*
X122121657Y-96893095D01*
X122026419Y-96845476D01*
X121978800Y-96797857D01*
X121931180Y-96702619D01*
X122264514Y-95512142D02*
X122931180Y-95512142D01*
X121883561Y-95750238D02*
X122597847Y-95988333D01*
X122597847Y-95369285D01*
X111545642Y-104878047D02*
X111593261Y-104925666D01*
X111640880Y-105068523D01*
X111640880Y-105163761D01*
X111593261Y-105306619D01*
X111498023Y-105401857D01*
X111402785Y-105449476D01*
X111212309Y-105497095D01*
X111069452Y-105497095D01*
X110878976Y-105449476D01*
X110783738Y-105401857D01*
X110688500Y-105306619D01*
X110640880Y-105163761D01*
X110640880Y-105068523D01*
X110688500Y-104925666D01*
X110736119Y-104878047D01*
X111640880Y-103925666D02*
X111640880Y-104497095D01*
X111640880Y-104211380D02*
X110640880Y-104211380D01*
X110783738Y-104306619D01*
X110878976Y-104401857D01*
X110926595Y-104497095D01*
X110640880Y-103306619D02*
X110640880Y-103211380D01*
X110688500Y-103116142D01*
X110736119Y-103068523D01*
X110831357Y-103020904D01*
X111021833Y-102973285D01*
X111259928Y-102973285D01*
X111450404Y-103020904D01*
X111545642Y-103068523D01*
X111593261Y-103116142D01*
X111640880Y-103211380D01*
X111640880Y-103306619D01*
X111593261Y-103401857D01*
X111545642Y-103449476D01*
X111450404Y-103497095D01*
X111259928Y-103544714D01*
X111021833Y-103544714D01*
X110831357Y-103497095D01*
X110736119Y-103449476D01*
X110688500Y-103401857D01*
X110640880Y-103306619D01*
X111640880Y-102020904D02*
X111640880Y-102592333D01*
X111640880Y-102306619D02*
X110640880Y-102306619D01*
X110783738Y-102401857D01*
X110878976Y-102497095D01*
X110926595Y-102592333D01*
X106656142Y-90654047D02*
X106703761Y-90701666D01*
X106751380Y-90844523D01*
X106751380Y-90939761D01*
X106703761Y-91082619D01*
X106608523Y-91177857D01*
X106513285Y-91225476D01*
X106322809Y-91273095D01*
X106179952Y-91273095D01*
X105989476Y-91225476D01*
X105894238Y-91177857D01*
X105799000Y-91082619D01*
X105751380Y-90939761D01*
X105751380Y-90844523D01*
X105799000Y-90701666D01*
X105846619Y-90654047D01*
X106751380Y-89701666D02*
X106751380Y-90273095D01*
X106751380Y-89987380D02*
X105751380Y-89987380D01*
X105894238Y-90082619D01*
X105989476Y-90177857D01*
X106037095Y-90273095D01*
X105751380Y-89082619D02*
X105751380Y-88987380D01*
X105799000Y-88892142D01*
X105846619Y-88844523D01*
X105941857Y-88796904D01*
X106132333Y-88749285D01*
X106370428Y-88749285D01*
X106560904Y-88796904D01*
X106656142Y-88844523D01*
X106703761Y-88892142D01*
X106751380Y-88987380D01*
X106751380Y-89082619D01*
X106703761Y-89177857D01*
X106656142Y-89225476D01*
X106560904Y-89273095D01*
X106370428Y-89320714D01*
X106132333Y-89320714D01*
X105941857Y-89273095D01*
X105846619Y-89225476D01*
X105799000Y-89177857D01*
X105751380Y-89082619D01*
X105751380Y-87844523D02*
X105751380Y-88320714D01*
X106227571Y-88368333D01*
X106179952Y-88320714D01*
X106132333Y-88225476D01*
X106132333Y-87987380D01*
X106179952Y-87892142D01*
X106227571Y-87844523D01*
X106322809Y-87796904D01*
X106560904Y-87796904D01*
X106656142Y-87844523D01*
X106703761Y-87892142D01*
X106751380Y-87987380D01*
X106751380Y-88225476D01*
X106703761Y-88320714D01*
X106656142Y-88368333D01*
X106021142Y-79986047D02*
X106068761Y-80033666D01*
X106116380Y-80176523D01*
X106116380Y-80271761D01*
X106068761Y-80414619D01*
X105973523Y-80509857D01*
X105878285Y-80557476D01*
X105687809Y-80605095D01*
X105544952Y-80605095D01*
X105354476Y-80557476D01*
X105259238Y-80509857D01*
X105164000Y-80414619D01*
X105116380Y-80271761D01*
X105116380Y-80176523D01*
X105164000Y-80033666D01*
X105211619Y-79986047D01*
X106116380Y-79033666D02*
X106116380Y-79605095D01*
X106116380Y-79319380D02*
X105116380Y-79319380D01*
X105259238Y-79414619D01*
X105354476Y-79509857D01*
X105402095Y-79605095D01*
X105116380Y-78414619D02*
X105116380Y-78319380D01*
X105164000Y-78224142D01*
X105211619Y-78176523D01*
X105306857Y-78128904D01*
X105497333Y-78081285D01*
X105735428Y-78081285D01*
X105925904Y-78128904D01*
X106021142Y-78176523D01*
X106068761Y-78224142D01*
X106116380Y-78319380D01*
X106116380Y-78414619D01*
X106068761Y-78509857D01*
X106021142Y-78557476D01*
X105925904Y-78605095D01*
X105735428Y-78652714D01*
X105497333Y-78652714D01*
X105306857Y-78605095D01*
X105211619Y-78557476D01*
X105164000Y-78509857D01*
X105116380Y-78414619D01*
X105116380Y-77224142D02*
X105116380Y-77414619D01*
X105164000Y-77509857D01*
X105211619Y-77557476D01*
X105354476Y-77652714D01*
X105544952Y-77700333D01*
X105925904Y-77700333D01*
X106021142Y-77652714D01*
X106068761Y-77605095D01*
X106116380Y-77509857D01*
X106116380Y-77319380D01*
X106068761Y-77224142D01*
X106021142Y-77176523D01*
X105925904Y-77128904D01*
X105687809Y-77128904D01*
X105592571Y-77176523D01*
X105544952Y-77224142D01*
X105497333Y-77319380D01*
X105497333Y-77509857D01*
X105544952Y-77605095D01*
X105592571Y-77652714D01*
X105687809Y-77700333D01*
X109323142Y-82907047D02*
X109370761Y-82954666D01*
X109418380Y-83097523D01*
X109418380Y-83192761D01*
X109370761Y-83335619D01*
X109275523Y-83430857D01*
X109180285Y-83478476D01*
X108989809Y-83526095D01*
X108846952Y-83526095D01*
X108656476Y-83478476D01*
X108561238Y-83430857D01*
X108466000Y-83335619D01*
X108418380Y-83192761D01*
X108418380Y-83097523D01*
X108466000Y-82954666D01*
X108513619Y-82907047D01*
X109418380Y-81954666D02*
X109418380Y-82526095D01*
X109418380Y-82240380D02*
X108418380Y-82240380D01*
X108561238Y-82335619D01*
X108656476Y-82430857D01*
X108704095Y-82526095D01*
X108418380Y-81335619D02*
X108418380Y-81240380D01*
X108466000Y-81145142D01*
X108513619Y-81097523D01*
X108608857Y-81049904D01*
X108799333Y-81002285D01*
X109037428Y-81002285D01*
X109227904Y-81049904D01*
X109323142Y-81097523D01*
X109370761Y-81145142D01*
X109418380Y-81240380D01*
X109418380Y-81335619D01*
X109370761Y-81430857D01*
X109323142Y-81478476D01*
X109227904Y-81526095D01*
X109037428Y-81573714D01*
X108799333Y-81573714D01*
X108608857Y-81526095D01*
X108513619Y-81478476D01*
X108466000Y-81430857D01*
X108418380Y-81335619D01*
X108846952Y-80430857D02*
X108799333Y-80526095D01*
X108751714Y-80573714D01*
X108656476Y-80621333D01*
X108608857Y-80621333D01*
X108513619Y-80573714D01*
X108466000Y-80526095D01*
X108418380Y-80430857D01*
X108418380Y-80240380D01*
X108466000Y-80145142D01*
X108513619Y-80097523D01*
X108608857Y-80049904D01*
X108656476Y-80049904D01*
X108751714Y-80097523D01*
X108799333Y-80145142D01*
X108846952Y-80240380D01*
X108846952Y-80430857D01*
X108894571Y-80526095D01*
X108942190Y-80573714D01*
X109037428Y-80621333D01*
X109227904Y-80621333D01*
X109323142Y-80573714D01*
X109370761Y-80526095D01*
X109418380Y-80430857D01*
X109418380Y-80240380D01*
X109370761Y-80145142D01*
X109323142Y-80097523D01*
X109227904Y-80049904D01*
X109037428Y-80049904D01*
X108942190Y-80097523D01*
X108894571Y-80145142D01*
X108846952Y-80240380D01*
X118467142Y-73509047D02*
X118514761Y-73556666D01*
X118562380Y-73699523D01*
X118562380Y-73794761D01*
X118514761Y-73937619D01*
X118419523Y-74032857D01*
X118324285Y-74080476D01*
X118133809Y-74128095D01*
X117990952Y-74128095D01*
X117800476Y-74080476D01*
X117705238Y-74032857D01*
X117610000Y-73937619D01*
X117562380Y-73794761D01*
X117562380Y-73699523D01*
X117610000Y-73556666D01*
X117657619Y-73509047D01*
X118562380Y-72556666D02*
X118562380Y-73128095D01*
X118562380Y-72842380D02*
X117562380Y-72842380D01*
X117705238Y-72937619D01*
X117800476Y-73032857D01*
X117848095Y-73128095D01*
X118562380Y-71604285D02*
X118562380Y-72175714D01*
X118562380Y-71890000D02*
X117562380Y-71890000D01*
X117705238Y-71985238D01*
X117800476Y-72080476D01*
X117848095Y-72175714D01*
X117562380Y-70985238D02*
X117562380Y-70890000D01*
X117610000Y-70794761D01*
X117657619Y-70747142D01*
X117752857Y-70699523D01*
X117943333Y-70651904D01*
X118181428Y-70651904D01*
X118371904Y-70699523D01*
X118467142Y-70747142D01*
X118514761Y-70794761D01*
X118562380Y-70890000D01*
X118562380Y-70985238D01*
X118514761Y-71080476D01*
X118467142Y-71128095D01*
X118371904Y-71175714D01*
X118181428Y-71223333D01*
X117943333Y-71223333D01*
X117752857Y-71175714D01*
X117657619Y-71128095D01*
X117610000Y-71080476D01*
X117562380Y-70985238D01*
X106497380Y-101258476D02*
X105497380Y-101258476D01*
X105497380Y-101020380D01*
X105545000Y-100877523D01*
X105640238Y-100782285D01*
X105735476Y-100734666D01*
X105925952Y-100687047D01*
X106068809Y-100687047D01*
X106259285Y-100734666D01*
X106354523Y-100782285D01*
X106449761Y-100877523D01*
X106497380Y-101020380D01*
X106497380Y-101258476D01*
X106497380Y-99734666D02*
X106497380Y-100306095D01*
X106497380Y-100020380D02*
X105497380Y-100020380D01*
X105640238Y-100115619D01*
X105735476Y-100210857D01*
X105783095Y-100306095D01*
X105497380Y-99115619D02*
X105497380Y-99020380D01*
X105545000Y-98925142D01*
X105592619Y-98877523D01*
X105687857Y-98829904D01*
X105878333Y-98782285D01*
X106116428Y-98782285D01*
X106306904Y-98829904D01*
X106402142Y-98877523D01*
X106449761Y-98925142D01*
X106497380Y-99020380D01*
X106497380Y-99115619D01*
X106449761Y-99210857D01*
X106402142Y-99258476D01*
X106306904Y-99306095D01*
X106116428Y-99353714D01*
X105878333Y-99353714D01*
X105687857Y-99306095D01*
X105592619Y-99258476D01*
X105545000Y-99210857D01*
X105497380Y-99115619D01*
X106497380Y-97829904D02*
X106497380Y-98401333D01*
X106497380Y-98115619D02*
X105497380Y-98115619D01*
X105640238Y-98210857D01*
X105735476Y-98306095D01*
X105783095Y-98401333D01*
X120356523Y-78049380D02*
X120356523Y-77049380D01*
X120594619Y-77049380D01*
X120737476Y-77097000D01*
X120832714Y-77192238D01*
X120880333Y-77287476D01*
X120927952Y-77477952D01*
X120927952Y-77620809D01*
X120880333Y-77811285D01*
X120832714Y-77906523D01*
X120737476Y-78001761D01*
X120594619Y-78049380D01*
X120356523Y-78049380D01*
X121880333Y-78049380D02*
X121308904Y-78049380D01*
X121594619Y-78049380D02*
X121594619Y-77049380D01*
X121499380Y-77192238D01*
X121404142Y-77287476D01*
X121308904Y-77335095D01*
X122499380Y-77049380D02*
X122594619Y-77049380D01*
X122689857Y-77097000D01*
X122737476Y-77144619D01*
X122785095Y-77239857D01*
X122832714Y-77430333D01*
X122832714Y-77668428D01*
X122785095Y-77858904D01*
X122737476Y-77954142D01*
X122689857Y-78001761D01*
X122594619Y-78049380D01*
X122499380Y-78049380D01*
X122404142Y-78001761D01*
X122356523Y-77954142D01*
X122308904Y-77858904D01*
X122261285Y-77668428D01*
X122261285Y-77430333D01*
X122308904Y-77239857D01*
X122356523Y-77144619D01*
X122404142Y-77097000D01*
X122499380Y-77049380D01*
X123213666Y-77144619D02*
X123261285Y-77097000D01*
X123356523Y-77049380D01*
X123594619Y-77049380D01*
X123689857Y-77097000D01*
X123737476Y-77144619D01*
X123785095Y-77239857D01*
X123785095Y-77335095D01*
X123737476Y-77477952D01*
X123166047Y-78049380D01*
X123785095Y-78049380D01*
X118674880Y-104895047D02*
X118674880Y-105371238D01*
X117674880Y-105371238D01*
X118674880Y-104037904D02*
X118674880Y-104609333D01*
X118674880Y-104323619D02*
X117674880Y-104323619D01*
X117817738Y-104418857D01*
X117912976Y-104514095D01*
X117960595Y-104609333D01*
X117674880Y-103418857D02*
X117674880Y-103323619D01*
X117722500Y-103228380D01*
X117770119Y-103180761D01*
X117865357Y-103133142D01*
X118055833Y-103085523D01*
X118293928Y-103085523D01*
X118484404Y-103133142D01*
X118579642Y-103180761D01*
X118627261Y-103228380D01*
X118674880Y-103323619D01*
X118674880Y-103418857D01*
X118627261Y-103514095D01*
X118579642Y-103561714D01*
X118484404Y-103609333D01*
X118293928Y-103656952D01*
X118055833Y-103656952D01*
X117865357Y-103609333D01*
X117770119Y-103561714D01*
X117722500Y-103514095D01*
X117674880Y-103418857D01*
X118674880Y-102133142D02*
X118674880Y-102704571D01*
X118674880Y-102418857D02*
X117674880Y-102418857D01*
X117817738Y-102514095D01*
X117912976Y-102609333D01*
X117960595Y-102704571D01*
D14*
X118194142Y-101444285D02*
X118194142Y-101644285D01*
X118508428Y-101644285D02*
X117908428Y-101644285D01*
X117908428Y-101358571D01*
X118479857Y-100901428D02*
X118508428Y-100958571D01*
X118508428Y-101072857D01*
X118479857Y-101130000D01*
X118422714Y-101158571D01*
X118194142Y-101158571D01*
X118137000Y-101130000D01*
X118108428Y-101072857D01*
X118108428Y-100958571D01*
X118137000Y-100901428D01*
X118194142Y-100872857D01*
X118251285Y-100872857D01*
X118308428Y-101158571D01*
X118508428Y-100615714D02*
X118108428Y-100615714D01*
X118222714Y-100615714D02*
X118165571Y-100587142D01*
X118137000Y-100558571D01*
X118108428Y-100501428D01*
X118108428Y-100444285D01*
X118508428Y-100244285D02*
X118108428Y-100244285D01*
X118222714Y-100244285D02*
X118165571Y-100215714D01*
X118137000Y-100187142D01*
X118108428Y-100130000D01*
X118108428Y-100072857D01*
X118508428Y-99872857D02*
X118108428Y-99872857D01*
X117908428Y-99872857D02*
X117937000Y-99901428D01*
X117965571Y-99872857D01*
X117937000Y-99844285D01*
X117908428Y-99872857D01*
X117965571Y-99872857D01*
X118108428Y-99672857D02*
X118108428Y-99444285D01*
X117908428Y-99587142D02*
X118422714Y-99587142D01*
X118479857Y-99558571D01*
X118508428Y-99501428D01*
X118508428Y-99444285D01*
X118479857Y-99015714D02*
X118508428Y-99072857D01*
X118508428Y-99187142D01*
X118479857Y-99244285D01*
X118422714Y-99272857D01*
X118194142Y-99272857D01*
X118137000Y-99244285D01*
X118108428Y-99187142D01*
X118108428Y-99072857D01*
X118137000Y-99015714D01*
X118194142Y-98987142D01*
X118251285Y-98987142D01*
X118308428Y-99272857D01*
D13*
X111308880Y-73526047D02*
X111308880Y-74002238D01*
X110308880Y-74002238D01*
X111308880Y-72668904D02*
X111308880Y-73240333D01*
X111308880Y-72954619D02*
X110308880Y-72954619D01*
X110451738Y-73049857D01*
X110546976Y-73145095D01*
X110594595Y-73240333D01*
X110308880Y-72049857D02*
X110308880Y-71954619D01*
X110356500Y-71859380D01*
X110404119Y-71811761D01*
X110499357Y-71764142D01*
X110689833Y-71716523D01*
X110927928Y-71716523D01*
X111118404Y-71764142D01*
X111213642Y-71811761D01*
X111261261Y-71859380D01*
X111308880Y-71954619D01*
X111308880Y-72049857D01*
X111261261Y-72145095D01*
X111213642Y-72192714D01*
X111118404Y-72240333D01*
X110927928Y-72287952D01*
X110689833Y-72287952D01*
X110499357Y-72240333D01*
X110404119Y-72192714D01*
X110356500Y-72145095D01*
X110308880Y-72049857D01*
X110404119Y-71335571D02*
X110356500Y-71287952D01*
X110308880Y-71192714D01*
X110308880Y-70954619D01*
X110356500Y-70859380D01*
X110404119Y-70811761D01*
X110499357Y-70764142D01*
X110594595Y-70764142D01*
X110737452Y-70811761D01*
X111308880Y-71383190D01*
X111308880Y-70764142D01*
X108656380Y-97512047D02*
X108180190Y-97845380D01*
X108656380Y-98083476D02*
X107656380Y-98083476D01*
X107656380Y-97702523D01*
X107704000Y-97607285D01*
X107751619Y-97559666D01*
X107846857Y-97512047D01*
X107989714Y-97512047D01*
X108084952Y-97559666D01*
X108132571Y-97607285D01*
X108180190Y-97702523D01*
X108180190Y-98083476D01*
X108656380Y-96559666D02*
X108656380Y-97131095D01*
X108656380Y-96845380D02*
X107656380Y-96845380D01*
X107799238Y-96940619D01*
X107894476Y-97035857D01*
X107942095Y-97131095D01*
X107656380Y-95940619D02*
X107656380Y-95845380D01*
X107704000Y-95750142D01*
X107751619Y-95702523D01*
X107846857Y-95654904D01*
X108037333Y-95607285D01*
X108275428Y-95607285D01*
X108465904Y-95654904D01*
X108561142Y-95702523D01*
X108608761Y-95750142D01*
X108656380Y-95845380D01*
X108656380Y-95940619D01*
X108608761Y-96035857D01*
X108561142Y-96083476D01*
X108465904Y-96131095D01*
X108275428Y-96178714D01*
X108037333Y-96178714D01*
X107846857Y-96131095D01*
X107751619Y-96083476D01*
X107704000Y-96035857D01*
X107656380Y-95940619D01*
X108656380Y-94654904D02*
X108656380Y-95226333D01*
X108656380Y-94940619D02*
X107656380Y-94940619D01*
X107799238Y-95035857D01*
X107894476Y-95131095D01*
X107942095Y-95226333D01*
X101544380Y-100814047D02*
X101068190Y-101147380D01*
X101544380Y-101385476D02*
X100544380Y-101385476D01*
X100544380Y-101004523D01*
X100592000Y-100909285D01*
X100639619Y-100861666D01*
X100734857Y-100814047D01*
X100877714Y-100814047D01*
X100972952Y-100861666D01*
X101020571Y-100909285D01*
X101068190Y-101004523D01*
X101068190Y-101385476D01*
X101544380Y-99861666D02*
X101544380Y-100433095D01*
X101544380Y-100147380D02*
X100544380Y-100147380D01*
X100687238Y-100242619D01*
X100782476Y-100337857D01*
X100830095Y-100433095D01*
X100544380Y-99242619D02*
X100544380Y-99147380D01*
X100592000Y-99052142D01*
X100639619Y-99004523D01*
X100734857Y-98956904D01*
X100925333Y-98909285D01*
X101163428Y-98909285D01*
X101353904Y-98956904D01*
X101449142Y-99004523D01*
X101496761Y-99052142D01*
X101544380Y-99147380D01*
X101544380Y-99242619D01*
X101496761Y-99337857D01*
X101449142Y-99385476D01*
X101353904Y-99433095D01*
X101163428Y-99480714D01*
X100925333Y-99480714D01*
X100734857Y-99433095D01*
X100639619Y-99385476D01*
X100592000Y-99337857D01*
X100544380Y-99242619D01*
X100639619Y-98528333D02*
X100592000Y-98480714D01*
X100544380Y-98385476D01*
X100544380Y-98147380D01*
X100592000Y-98052142D01*
X100639619Y-98004523D01*
X100734857Y-97956904D01*
X100830095Y-97956904D01*
X100972952Y-98004523D01*
X101544380Y-98575952D01*
X101544380Y-97956904D01*
X121610380Y-81129047D02*
X121134190Y-81462380D01*
X121610380Y-81700476D02*
X120610380Y-81700476D01*
X120610380Y-81319523D01*
X120658000Y-81224285D01*
X120705619Y-81176666D01*
X120800857Y-81129047D01*
X120943714Y-81129047D01*
X121038952Y-81176666D01*
X121086571Y-81224285D01*
X121134190Y-81319523D01*
X121134190Y-81700476D01*
X121610380Y-80176666D02*
X121610380Y-80748095D01*
X121610380Y-80462380D02*
X120610380Y-80462380D01*
X120753238Y-80557619D01*
X120848476Y-80652857D01*
X120896095Y-80748095D01*
X120610380Y-79557619D02*
X120610380Y-79462380D01*
X120658000Y-79367142D01*
X120705619Y-79319523D01*
X120800857Y-79271904D01*
X120991333Y-79224285D01*
X121229428Y-79224285D01*
X121419904Y-79271904D01*
X121515142Y-79319523D01*
X121562761Y-79367142D01*
X121610380Y-79462380D01*
X121610380Y-79557619D01*
X121562761Y-79652857D01*
X121515142Y-79700476D01*
X121419904Y-79748095D01*
X121229428Y-79795714D01*
X120991333Y-79795714D01*
X120800857Y-79748095D01*
X120705619Y-79700476D01*
X120658000Y-79652857D01*
X120610380Y-79557619D01*
X120943714Y-78367142D02*
X121610380Y-78367142D01*
X120562761Y-78605238D02*
X121277047Y-78843333D01*
X121277047Y-78224285D01*
D15*
X108227880Y-88074285D02*
X109037404Y-88074285D01*
X109132642Y-88026666D01*
X109180261Y-87979047D01*
X109227880Y-87883809D01*
X109227880Y-87693333D01*
X109180261Y-87598095D01*
X109132642Y-87550476D01*
X109037404Y-87502857D01*
X108227880Y-87502857D01*
X109227880Y-86502857D02*
X109227880Y-87074285D01*
X109227880Y-86788571D02*
X108227880Y-86788571D01*
X108370738Y-86883809D01*
X108465976Y-86979047D01*
X108513595Y-87074285D01*
X108227880Y-85883809D02*
X108227880Y-85788571D01*
X108275500Y-85693333D01*
X108323119Y-85645714D01*
X108418357Y-85598095D01*
X108608833Y-85550476D01*
X108846928Y-85550476D01*
X109037404Y-85598095D01*
X109132642Y-85645714D01*
X109180261Y-85693333D01*
X109227880Y-85788571D01*
X109227880Y-85883809D01*
X109180261Y-85979047D01*
X109132642Y-86026666D01*
X109037404Y-86074285D01*
X108846928Y-86121904D01*
X108608833Y-86121904D01*
X108418357Y-86074285D01*
X108323119Y-86026666D01*
X108275500Y-85979047D01*
X108227880Y-85883809D01*
X108323119Y-85169523D02*
X108275500Y-85121904D01*
X108227880Y-85026666D01*
X108227880Y-84788571D01*
X108275500Y-84693333D01*
X108323119Y-84645714D01*
X108418357Y-84598095D01*
X108513595Y-84598095D01*
X108656452Y-84645714D01*
X109227880Y-85217142D01*
X109227880Y-84598095D01*
D13*
X103989142Y-79986047D02*
X104036761Y-80033666D01*
X104084380Y-80176523D01*
X104084380Y-80271761D01*
X104036761Y-80414619D01*
X103941523Y-80509857D01*
X103846285Y-80557476D01*
X103655809Y-80605095D01*
X103512952Y-80605095D01*
X103322476Y-80557476D01*
X103227238Y-80509857D01*
X103132000Y-80414619D01*
X103084380Y-80271761D01*
X103084380Y-80176523D01*
X103132000Y-80033666D01*
X103179619Y-79986047D01*
X104084380Y-79033666D02*
X104084380Y-79605095D01*
X104084380Y-79319380D02*
X103084380Y-79319380D01*
X103227238Y-79414619D01*
X103322476Y-79509857D01*
X103370095Y-79605095D01*
X103084380Y-78414619D02*
X103084380Y-78319380D01*
X103132000Y-78224142D01*
X103179619Y-78176523D01*
X103274857Y-78128904D01*
X103465333Y-78081285D01*
X103703428Y-78081285D01*
X103893904Y-78128904D01*
X103989142Y-78176523D01*
X104036761Y-78224142D01*
X104084380Y-78319380D01*
X104084380Y-78414619D01*
X104036761Y-78509857D01*
X103989142Y-78557476D01*
X103893904Y-78605095D01*
X103703428Y-78652714D01*
X103465333Y-78652714D01*
X103274857Y-78605095D01*
X103179619Y-78557476D01*
X103132000Y-78509857D01*
X103084380Y-78414619D01*
X103084380Y-77747952D02*
X103084380Y-77081285D01*
X104084380Y-77509857D01*
X109323142Y-79224047D02*
X109370761Y-79271666D01*
X109418380Y-79414523D01*
X109418380Y-79509761D01*
X109370761Y-79652619D01*
X109275523Y-79747857D01*
X109180285Y-79795476D01*
X108989809Y-79843095D01*
X108846952Y-79843095D01*
X108656476Y-79795476D01*
X108561238Y-79747857D01*
X108466000Y-79652619D01*
X108418380Y-79509761D01*
X108418380Y-79414523D01*
X108466000Y-79271666D01*
X108513619Y-79224047D01*
X109418380Y-78271666D02*
X109418380Y-78843095D01*
X109418380Y-78557380D02*
X108418380Y-78557380D01*
X108561238Y-78652619D01*
X108656476Y-78747857D01*
X108704095Y-78843095D01*
X108418380Y-77652619D02*
X108418380Y-77557380D01*
X108466000Y-77462142D01*
X108513619Y-77414523D01*
X108608857Y-77366904D01*
X108799333Y-77319285D01*
X109037428Y-77319285D01*
X109227904Y-77366904D01*
X109323142Y-77414523D01*
X109370761Y-77462142D01*
X109418380Y-77557380D01*
X109418380Y-77652619D01*
X109370761Y-77747857D01*
X109323142Y-77795476D01*
X109227904Y-77843095D01*
X109037428Y-77890714D01*
X108799333Y-77890714D01*
X108608857Y-77843095D01*
X108513619Y-77795476D01*
X108466000Y-77747857D01*
X108418380Y-77652619D01*
X109418380Y-76843095D02*
X109418380Y-76652619D01*
X109370761Y-76557380D01*
X109323142Y-76509761D01*
X109180285Y-76414523D01*
X108989809Y-76366904D01*
X108608857Y-76366904D01*
X108513619Y-76414523D01*
X108466000Y-76462142D01*
X108418380Y-76557380D01*
X108418380Y-76747857D01*
X108466000Y-76843095D01*
X108513619Y-76890714D01*
X108608857Y-76938333D01*
X108846952Y-76938333D01*
X108942190Y-76890714D01*
X108989809Y-76843095D01*
X109037428Y-76747857D01*
X109037428Y-76557380D01*
X108989809Y-76462142D01*
X108942190Y-76414523D01*
X108846952Y-76366904D01*
X128722380Y-77446047D02*
X128246190Y-77779380D01*
X128722380Y-78017476D02*
X127722380Y-78017476D01*
X127722380Y-77636523D01*
X127770000Y-77541285D01*
X127817619Y-77493666D01*
X127912857Y-77446047D01*
X128055714Y-77446047D01*
X128150952Y-77493666D01*
X128198571Y-77541285D01*
X128246190Y-77636523D01*
X128246190Y-78017476D01*
X128722380Y-76493666D02*
X128722380Y-77065095D01*
X128722380Y-76779380D02*
X127722380Y-76779380D01*
X127865238Y-76874619D01*
X127960476Y-76969857D01*
X128008095Y-77065095D01*
X127722380Y-75874619D02*
X127722380Y-75779380D01*
X127770000Y-75684142D01*
X127817619Y-75636523D01*
X127912857Y-75588904D01*
X128103333Y-75541285D01*
X128341428Y-75541285D01*
X128531904Y-75588904D01*
X128627142Y-75636523D01*
X128674761Y-75684142D01*
X128722380Y-75779380D01*
X128722380Y-75874619D01*
X128674761Y-75969857D01*
X128627142Y-76017476D01*
X128531904Y-76065095D01*
X128341428Y-76112714D01*
X128103333Y-76112714D01*
X127912857Y-76065095D01*
X127817619Y-76017476D01*
X127770000Y-75969857D01*
X127722380Y-75874619D01*
X127722380Y-74636523D02*
X127722380Y-75112714D01*
X128198571Y-75160333D01*
X128150952Y-75112714D01*
X128103333Y-75017476D01*
X128103333Y-74779380D01*
X128150952Y-74684142D01*
X128198571Y-74636523D01*
X128293809Y-74588904D01*
X128531904Y-74588904D01*
X128627142Y-74636523D01*
X128674761Y-74684142D01*
X128722380Y-74779380D01*
X128722380Y-75017476D01*
X128674761Y-75112714D01*
X128627142Y-75160333D01*
X101703142Y-94337047D02*
X101750761Y-94384666D01*
X101798380Y-94527523D01*
X101798380Y-94622761D01*
X101750761Y-94765619D01*
X101655523Y-94860857D01*
X101560285Y-94908476D01*
X101369809Y-94956095D01*
X101226952Y-94956095D01*
X101036476Y-94908476D01*
X100941238Y-94860857D01*
X100846000Y-94765619D01*
X100798380Y-94622761D01*
X100798380Y-94527523D01*
X100846000Y-94384666D01*
X100893619Y-94337047D01*
X101798380Y-93384666D02*
X101798380Y-93956095D01*
X101798380Y-93670380D02*
X100798380Y-93670380D01*
X100941238Y-93765619D01*
X101036476Y-93860857D01*
X101084095Y-93956095D01*
X101798380Y-92432285D02*
X101798380Y-93003714D01*
X101798380Y-92718000D02*
X100798380Y-92718000D01*
X100941238Y-92813238D01*
X101036476Y-92908476D01*
X101084095Y-93003714D01*
X101798380Y-91479904D02*
X101798380Y-92051333D01*
X101798380Y-91765619D02*
X100798380Y-91765619D01*
X100941238Y-91860857D01*
X101036476Y-91956095D01*
X101084095Y-92051333D01*
X106783142Y-94337047D02*
X106830761Y-94384666D01*
X106878380Y-94527523D01*
X106878380Y-94622761D01*
X106830761Y-94765619D01*
X106735523Y-94860857D01*
X106640285Y-94908476D01*
X106449809Y-94956095D01*
X106306952Y-94956095D01*
X106116476Y-94908476D01*
X106021238Y-94860857D01*
X105926000Y-94765619D01*
X105878380Y-94622761D01*
X105878380Y-94527523D01*
X105926000Y-94384666D01*
X105973619Y-94337047D01*
X106878380Y-93384666D02*
X106878380Y-93956095D01*
X106878380Y-93670380D02*
X105878380Y-93670380D01*
X106021238Y-93765619D01*
X106116476Y-93860857D01*
X106164095Y-93956095D01*
X106878380Y-92432285D02*
X106878380Y-93003714D01*
X106878380Y-92718000D02*
X105878380Y-92718000D01*
X106021238Y-92813238D01*
X106116476Y-92908476D01*
X106164095Y-93003714D01*
X105973619Y-92051333D02*
X105926000Y-92003714D01*
X105878380Y-91908476D01*
X105878380Y-91670380D01*
X105926000Y-91575142D01*
X105973619Y-91527523D01*
X106068857Y-91479904D01*
X106164095Y-91479904D01*
X106306952Y-91527523D01*
X106878380Y-92098952D01*
X106878380Y-91479904D01*
X128627142Y-84050047D02*
X128674761Y-84097666D01*
X128722380Y-84240523D01*
X128722380Y-84335761D01*
X128674761Y-84478619D01*
X128579523Y-84573857D01*
X128484285Y-84621476D01*
X128293809Y-84669095D01*
X128150952Y-84669095D01*
X127960476Y-84621476D01*
X127865238Y-84573857D01*
X127770000Y-84478619D01*
X127722380Y-84335761D01*
X127722380Y-84240523D01*
X127770000Y-84097666D01*
X127817619Y-84050047D01*
X128722380Y-83097666D02*
X128722380Y-83669095D01*
X128722380Y-83383380D02*
X127722380Y-83383380D01*
X127865238Y-83478619D01*
X127960476Y-83573857D01*
X128008095Y-83669095D01*
X128722380Y-82145285D02*
X128722380Y-82716714D01*
X128722380Y-82431000D02*
X127722380Y-82431000D01*
X127865238Y-82526238D01*
X127960476Y-82621476D01*
X128008095Y-82716714D01*
X128055714Y-81288142D02*
X128722380Y-81288142D01*
X127674761Y-81526238D02*
X128389047Y-81764333D01*
X128389047Y-81145285D01*
X123166142Y-84050047D02*
X123213761Y-84097666D01*
X123261380Y-84240523D01*
X123261380Y-84335761D01*
X123213761Y-84478619D01*
X123118523Y-84573857D01*
X123023285Y-84621476D01*
X122832809Y-84669095D01*
X122689952Y-84669095D01*
X122499476Y-84621476D01*
X122404238Y-84573857D01*
X122309000Y-84478619D01*
X122261380Y-84335761D01*
X122261380Y-84240523D01*
X122309000Y-84097666D01*
X122356619Y-84050047D01*
X123261380Y-83097666D02*
X123261380Y-83669095D01*
X123261380Y-83383380D02*
X122261380Y-83383380D01*
X122404238Y-83478619D01*
X122499476Y-83573857D01*
X122547095Y-83669095D01*
X123261380Y-82145285D02*
X123261380Y-82716714D01*
X123261380Y-82431000D02*
X122261380Y-82431000D01*
X122404238Y-82526238D01*
X122499476Y-82621476D01*
X122547095Y-82716714D01*
X122261380Y-81240523D02*
X122261380Y-81716714D01*
X122737571Y-81764333D01*
X122689952Y-81716714D01*
X122642333Y-81621476D01*
X122642333Y-81383380D01*
X122689952Y-81288142D01*
X122737571Y-81240523D01*
X122832809Y-81192904D01*
X123070904Y-81192904D01*
X123166142Y-81240523D01*
X123213761Y-81288142D01*
X123261380Y-81383380D01*
X123261380Y-81621476D01*
X123213761Y-81716714D01*
X123166142Y-81764333D01*
X103068380Y-103354047D02*
X102592190Y-103687380D01*
X103068380Y-103925476D02*
X102068380Y-103925476D01*
X102068380Y-103544523D01*
X102116000Y-103449285D01*
X102163619Y-103401666D01*
X102258857Y-103354047D01*
X102401714Y-103354047D01*
X102496952Y-103401666D01*
X102544571Y-103449285D01*
X102592190Y-103544523D01*
X102592190Y-103925476D01*
X103068380Y-102401666D02*
X103068380Y-102973095D01*
X103068380Y-102687380D02*
X102068380Y-102687380D01*
X102211238Y-102782619D01*
X102306476Y-102877857D01*
X102354095Y-102973095D01*
X102068380Y-101782619D02*
X102068380Y-101687380D01*
X102116000Y-101592142D01*
X102163619Y-101544523D01*
X102258857Y-101496904D01*
X102449333Y-101449285D01*
X102687428Y-101449285D01*
X102877904Y-101496904D01*
X102973142Y-101544523D01*
X103020761Y-101592142D01*
X103068380Y-101687380D01*
X103068380Y-101782619D01*
X103020761Y-101877857D01*
X102973142Y-101925476D01*
X102877904Y-101973095D01*
X102687428Y-102020714D01*
X102449333Y-102020714D01*
X102258857Y-101973095D01*
X102163619Y-101925476D01*
X102116000Y-101877857D01*
X102068380Y-101782619D01*
X102068380Y-100592142D02*
X102068380Y-100782619D01*
X102116000Y-100877857D01*
X102163619Y-100925476D01*
X102306476Y-101020714D01*
X102496952Y-101068333D01*
X102877904Y-101068333D01*
X102973142Y-101020714D01*
X103020761Y-100973095D01*
X103068380Y-100877857D01*
X103068380Y-100687380D01*
X103020761Y-100592142D01*
X102973142Y-100544523D01*
X102877904Y-100496904D01*
X102639809Y-100496904D01*
X102544571Y-100544523D01*
X102496952Y-100592142D01*
X102449333Y-100687380D01*
X102449333Y-100877857D01*
X102496952Y-100973095D01*
X102544571Y-101020714D01*
X102639809Y-101068333D01*
X105735380Y-103354047D02*
X105259190Y-103687380D01*
X105735380Y-103925476D02*
X104735380Y-103925476D01*
X104735380Y-103544523D01*
X104783000Y-103449285D01*
X104830619Y-103401666D01*
X104925857Y-103354047D01*
X105068714Y-103354047D01*
X105163952Y-103401666D01*
X105211571Y-103449285D01*
X105259190Y-103544523D01*
X105259190Y-103925476D01*
X105735380Y-102401666D02*
X105735380Y-102973095D01*
X105735380Y-102687380D02*
X104735380Y-102687380D01*
X104878238Y-102782619D01*
X104973476Y-102877857D01*
X105021095Y-102973095D01*
X104735380Y-101782619D02*
X104735380Y-101687380D01*
X104783000Y-101592142D01*
X104830619Y-101544523D01*
X104925857Y-101496904D01*
X105116333Y-101449285D01*
X105354428Y-101449285D01*
X105544904Y-101496904D01*
X105640142Y-101544523D01*
X105687761Y-101592142D01*
X105735380Y-101687380D01*
X105735380Y-101782619D01*
X105687761Y-101877857D01*
X105640142Y-101925476D01*
X105544904Y-101973095D01*
X105354428Y-102020714D01*
X105116333Y-102020714D01*
X104925857Y-101973095D01*
X104830619Y-101925476D01*
X104783000Y-101877857D01*
X104735380Y-101782619D01*
X104735380Y-101115952D02*
X104735380Y-100449285D01*
X105735380Y-100877857D01*
X127325380Y-74779047D02*
X126849190Y-75112380D01*
X127325380Y-75350476D02*
X126325380Y-75350476D01*
X126325380Y-74969523D01*
X126373000Y-74874285D01*
X126420619Y-74826666D01*
X126515857Y-74779047D01*
X126658714Y-74779047D01*
X126753952Y-74826666D01*
X126801571Y-74874285D01*
X126849190Y-74969523D01*
X126849190Y-75350476D01*
X127325380Y-73826666D02*
X127325380Y-74398095D01*
X127325380Y-74112380D02*
X126325380Y-74112380D01*
X126468238Y-74207619D01*
X126563476Y-74302857D01*
X126611095Y-74398095D01*
X126325380Y-73207619D02*
X126325380Y-73112380D01*
X126373000Y-73017142D01*
X126420619Y-72969523D01*
X126515857Y-72921904D01*
X126706333Y-72874285D01*
X126944428Y-72874285D01*
X127134904Y-72921904D01*
X127230142Y-72969523D01*
X127277761Y-73017142D01*
X127325380Y-73112380D01*
X127325380Y-73207619D01*
X127277761Y-73302857D01*
X127230142Y-73350476D01*
X127134904Y-73398095D01*
X126944428Y-73445714D01*
X126706333Y-73445714D01*
X126515857Y-73398095D01*
X126420619Y-73350476D01*
X126373000Y-73302857D01*
X126325380Y-73207619D01*
X126753952Y-72302857D02*
X126706333Y-72398095D01*
X126658714Y-72445714D01*
X126563476Y-72493333D01*
X126515857Y-72493333D01*
X126420619Y-72445714D01*
X126373000Y-72398095D01*
X126325380Y-72302857D01*
X126325380Y-72112380D01*
X126373000Y-72017142D01*
X126420619Y-71969523D01*
X126515857Y-71921904D01*
X126563476Y-71921904D01*
X126658714Y-71969523D01*
X126706333Y-72017142D01*
X126753952Y-72112380D01*
X126753952Y-72302857D01*
X126801571Y-72398095D01*
X126849190Y-72445714D01*
X126944428Y-72493333D01*
X127134904Y-72493333D01*
X127230142Y-72445714D01*
X127277761Y-72398095D01*
X127325380Y-72302857D01*
X127325380Y-72112380D01*
X127277761Y-72017142D01*
X127230142Y-71969523D01*
X127134904Y-71921904D01*
X126944428Y-71921904D01*
X126849190Y-71969523D01*
X126801571Y-72017142D01*
X126753952Y-72112380D01*
X124658380Y-74906047D02*
X124182190Y-75239380D01*
X124658380Y-75477476D02*
X123658380Y-75477476D01*
X123658380Y-75096523D01*
X123706000Y-75001285D01*
X123753619Y-74953666D01*
X123848857Y-74906047D01*
X123991714Y-74906047D01*
X124086952Y-74953666D01*
X124134571Y-75001285D01*
X124182190Y-75096523D01*
X124182190Y-75477476D01*
X124658380Y-73953666D02*
X124658380Y-74525095D01*
X124658380Y-74239380D02*
X123658380Y-74239380D01*
X123801238Y-74334619D01*
X123896476Y-74429857D01*
X123944095Y-74525095D01*
X123658380Y-73334619D02*
X123658380Y-73239380D01*
X123706000Y-73144142D01*
X123753619Y-73096523D01*
X123848857Y-73048904D01*
X124039333Y-73001285D01*
X124277428Y-73001285D01*
X124467904Y-73048904D01*
X124563142Y-73096523D01*
X124610761Y-73144142D01*
X124658380Y-73239380D01*
X124658380Y-73334619D01*
X124610761Y-73429857D01*
X124563142Y-73477476D01*
X124467904Y-73525095D01*
X124277428Y-73572714D01*
X124039333Y-73572714D01*
X123848857Y-73525095D01*
X123753619Y-73477476D01*
X123706000Y-73429857D01*
X123658380Y-73334619D01*
X124658380Y-72525095D02*
X124658380Y-72334619D01*
X124610761Y-72239380D01*
X124563142Y-72191761D01*
X124420285Y-72096523D01*
X124229809Y-72048904D01*
X123848857Y-72048904D01*
X123753619Y-72096523D01*
X123706000Y-72144142D01*
X123658380Y-72239380D01*
X123658380Y-72429857D01*
X123706000Y-72525095D01*
X123753619Y-72572714D01*
X123848857Y-72620333D01*
X124086952Y-72620333D01*
X124182190Y-72572714D01*
X124229809Y-72525095D01*
X124277428Y-72429857D01*
X124277428Y-72239380D01*
X124229809Y-72144142D01*
X124182190Y-72096523D01*
X124086952Y-72048904D01*
M02*
