G04 #@! TF.GenerationSoftware,KiCad,Pcbnew,5.1.5+dfsg1-2build2*
G04 #@! TF.CreationDate,2021-01-26T01:31:42+03:00*
G04 #@! TF.ProjectId,usb_ISO,7573625f-4953-44f2-9e6b-696361645f70,rev?*
G04 #@! TF.SameCoordinates,Original*
G04 #@! TF.FileFunction,Legend,Bot*
G04 #@! TF.FilePolarity,Positive*
%FSLAX46Y46*%
G04 Gerber Fmt 4.6, Leading zero omitted, Abs format (unit mm)*
G04 Created by KiCad (PCBNEW 5.1.5+dfsg1-2build2) date 2021-01-26 01:31:42*
%MOMM*%
%LPD*%
G04 APERTURE LIST*
%ADD10C,0.254000*%
%ADD11C,0.150000*%
%ADD12C,0.127000*%
%ADD13C,0.200000*%
%ADD14C,0.190000*%
%ADD15C,0.140000*%
G04 APERTURE END LIST*
D10*
X112915775Y-93190060D02*
G75*
G03X112915775Y-93190060I-558875J0D01*
G01*
X118353840Y-94193360D02*
X118353840Y-81193640D01*
X118353840Y-81193640D02*
X111356140Y-81193640D01*
X111356140Y-81193640D02*
X111356140Y-94193360D01*
X111356140Y-94193360D02*
X118353840Y-94193360D01*
D11*
X116400000Y-102646000D02*
X116400000Y-109646000D01*
X116400000Y-109646000D02*
X119150000Y-109646000D01*
X118650000Y-103146000D02*
X118650000Y-107646000D01*
X116900000Y-107646000D02*
X117400000Y-108146000D01*
X119150000Y-109646000D02*
X119150000Y-102646000D01*
X119150000Y-102646000D02*
X118650000Y-102646000D01*
X116900000Y-103146000D02*
X116900000Y-107646000D01*
X118650000Y-107646000D02*
X118150000Y-108146000D01*
X118150000Y-108146000D02*
X117400000Y-108146000D01*
X116900000Y-102646000D02*
X116400000Y-102646000D01*
X118650000Y-102646000D02*
X118650000Y-103146000D01*
X116900000Y-103146000D02*
X116900000Y-102646000D01*
X110650000Y-102646000D02*
X110150000Y-102646000D01*
X110650000Y-103146000D02*
X110650000Y-102646000D01*
X112400000Y-102646000D02*
X112400000Y-103146000D01*
X112900000Y-102646000D02*
X112400000Y-102646000D01*
X111900000Y-108146000D02*
X111150000Y-108146000D01*
X110650000Y-103146000D02*
X110650000Y-107646000D01*
X110650000Y-107646000D02*
X111150000Y-108146000D01*
X112400000Y-107646000D02*
X111900000Y-108146000D01*
X112400000Y-103146000D02*
X112400000Y-107646000D01*
X112900000Y-109646000D02*
X112900000Y-102646000D01*
X110150000Y-109646000D02*
X112900000Y-109646000D01*
X110150000Y-102646000D02*
X110150000Y-109646000D01*
D12*
X107157000Y-110600000D02*
X122143000Y-110600000D01*
X107157000Y-96503000D02*
X122143000Y-96503000D01*
X122143000Y-110600000D02*
X122143000Y-96503000D01*
X107157000Y-96503000D02*
X107157000Y-110600000D01*
X121983500Y-79485000D02*
X121983500Y-65388000D01*
X106997500Y-65388000D02*
X106997500Y-79485000D01*
X121983500Y-79485000D02*
X106997500Y-79485000D01*
X121983500Y-65388000D02*
X106997500Y-65388000D01*
D11*
X118990500Y-73342000D02*
X118990500Y-66342000D01*
X118990500Y-66342000D02*
X116240500Y-66342000D01*
X116240500Y-66342000D02*
X116240500Y-73342000D01*
X116740500Y-72842000D02*
X116740500Y-68342000D01*
X116740500Y-68342000D02*
X117240500Y-67842000D01*
X118490500Y-68342000D02*
X117990500Y-67842000D01*
X118490500Y-72842000D02*
X118490500Y-68342000D01*
X117240500Y-67842000D02*
X117990500Y-67842000D01*
X116240500Y-73342000D02*
X116740500Y-73342000D01*
X116740500Y-73342000D02*
X116740500Y-72842000D01*
X118490500Y-72842000D02*
X118490500Y-73342000D01*
X118490500Y-73342000D02*
X118990500Y-73342000D01*
X112240500Y-72842000D02*
X112240500Y-73342000D01*
X110490500Y-73342000D02*
X110490500Y-72842000D01*
X112240500Y-73342000D02*
X112740500Y-73342000D01*
X110990500Y-67842000D02*
X111740500Y-67842000D01*
X110490500Y-68342000D02*
X110990500Y-67842000D01*
X112240500Y-72842000D02*
X112240500Y-68342000D01*
X109990500Y-73342000D02*
X110490500Y-73342000D01*
X109990500Y-66342000D02*
X109990500Y-73342000D01*
X112240500Y-68342000D02*
X111740500Y-67842000D01*
X110490500Y-72842000D02*
X110490500Y-68342000D01*
X112740500Y-66342000D02*
X109990500Y-66342000D01*
X112740500Y-73342000D02*
X112740500Y-66342000D01*
D13*
X99949000Y-80645000D02*
X99949000Y-92075000D01*
X102997000Y-80645000D02*
X102997000Y-92075000D01*
X99949000Y-80645000D02*
X102997000Y-80645000D01*
X99949000Y-92075000D02*
X102997000Y-92075000D01*
D14*
X119467380Y-93980214D02*
X120276904Y-93980214D01*
X120372142Y-94027833D01*
X120419761Y-94075452D01*
X120467380Y-94170690D01*
X120467380Y-94361166D01*
X120419761Y-94456404D01*
X120372142Y-94504023D01*
X120276904Y-94551642D01*
X119467380Y-94551642D01*
X120467380Y-95551642D02*
X120467380Y-94980214D01*
X120467380Y-95265928D02*
X119467380Y-95265928D01*
X119610238Y-95170690D01*
X119705476Y-95075452D01*
X119753095Y-94980214D01*
X119467380Y-96170690D02*
X119467380Y-96265928D01*
X119515000Y-96361166D01*
X119562619Y-96408785D01*
X119657857Y-96456404D01*
X119848333Y-96504023D01*
X120086428Y-96504023D01*
X120276904Y-96456404D01*
X120372142Y-96408785D01*
X120419761Y-96361166D01*
X120467380Y-96265928D01*
X120467380Y-96170690D01*
X120419761Y-96075452D01*
X120372142Y-96027833D01*
X120276904Y-95980214D01*
X120086428Y-95932595D01*
X119848333Y-95932595D01*
X119657857Y-95980214D01*
X119562619Y-96027833D01*
X119515000Y-96075452D01*
X119467380Y-96170690D01*
X120467380Y-97456404D02*
X120467380Y-96884976D01*
X120467380Y-97170690D02*
X119467380Y-97170690D01*
X119610238Y-97075452D01*
X119705476Y-96980214D01*
X119753095Y-96884976D01*
D11*
X115893857Y-83229976D02*
X115893857Y-82963309D01*
X116312904Y-82963309D02*
X115512904Y-82963309D01*
X115512904Y-83344261D01*
X115512904Y-83801404D02*
X115512904Y-83877595D01*
X115551000Y-83953785D01*
X115589095Y-83991880D01*
X115665285Y-84029976D01*
X115817666Y-84068071D01*
X116008142Y-84068071D01*
X116160523Y-84029976D01*
X116236714Y-83991880D01*
X116274809Y-83953785D01*
X116312904Y-83877595D01*
X116312904Y-83801404D01*
X116274809Y-83725214D01*
X116236714Y-83687119D01*
X116160523Y-83649023D01*
X116008142Y-83610928D01*
X115817666Y-83610928D01*
X115665285Y-83649023D01*
X115589095Y-83687119D01*
X115551000Y-83725214D01*
X115512904Y-83801404D01*
X115512904Y-84791880D02*
X115512904Y-84410928D01*
X115893857Y-84372833D01*
X115855761Y-84410928D01*
X115817666Y-84487119D01*
X115817666Y-84677595D01*
X115855761Y-84753785D01*
X115893857Y-84791880D01*
X115970047Y-84829976D01*
X116160523Y-84829976D01*
X116236714Y-84791880D01*
X116274809Y-84753785D01*
X116312904Y-84677595D01*
X116312904Y-84487119D01*
X116274809Y-84410928D01*
X116236714Y-84372833D01*
X115512904Y-85325214D02*
X115512904Y-85401404D01*
X115551000Y-85477595D01*
X115589095Y-85515690D01*
X115665285Y-85553785D01*
X115817666Y-85591880D01*
X116008142Y-85591880D01*
X116160523Y-85553785D01*
X116236714Y-85515690D01*
X116274809Y-85477595D01*
X116312904Y-85401404D01*
X116312904Y-85325214D01*
X116274809Y-85249023D01*
X116236714Y-85210928D01*
X116160523Y-85172833D01*
X116008142Y-85134738D01*
X115817666Y-85134738D01*
X115665285Y-85172833D01*
X115589095Y-85210928D01*
X115551000Y-85249023D01*
X115512904Y-85325214D01*
X115512904Y-86315690D02*
X115512904Y-85934738D01*
X115893857Y-85896642D01*
X115855761Y-85934738D01*
X115817666Y-86010928D01*
X115817666Y-86201404D01*
X115855761Y-86277595D01*
X115893857Y-86315690D01*
X115970047Y-86353785D01*
X116160523Y-86353785D01*
X116236714Y-86315690D01*
X116274809Y-86277595D01*
X116312904Y-86201404D01*
X116312904Y-86010928D01*
X116274809Y-85934738D01*
X116236714Y-85896642D01*
X115512904Y-86620452D02*
X116312904Y-87153785D01*
X115512904Y-87153785D02*
X116312904Y-86620452D01*
X115512904Y-87344261D02*
X115512904Y-87801404D01*
X116312904Y-87572833D02*
X115512904Y-87572833D01*
X116008142Y-88068071D02*
X116008142Y-88677595D01*
X115589095Y-89020452D02*
X115551000Y-89058547D01*
X115512904Y-89134738D01*
X115512904Y-89325214D01*
X115551000Y-89401404D01*
X115589095Y-89439500D01*
X115665285Y-89477595D01*
X115741476Y-89477595D01*
X115855761Y-89439500D01*
X116312904Y-88982357D01*
X116312904Y-89477595D01*
X115512904Y-89744261D02*
X116312904Y-89934738D01*
X115741476Y-90087119D01*
X116312904Y-90239500D01*
X115512904Y-90429976D01*
X116312904Y-91191880D02*
X115931952Y-90925214D01*
X116312904Y-90734738D02*
X115512904Y-90734738D01*
X115512904Y-91039500D01*
X115551000Y-91115690D01*
X115589095Y-91153785D01*
X115665285Y-91191880D01*
X115779571Y-91191880D01*
X115855761Y-91153785D01*
X115893857Y-91115690D01*
X115931952Y-91039500D01*
X115931952Y-90734738D01*
X115589095Y-91496642D02*
X115551000Y-91534738D01*
X115512904Y-91610928D01*
X115512904Y-91801404D01*
X115551000Y-91877595D01*
X115589095Y-91915690D01*
X115665285Y-91953785D01*
X115741476Y-91953785D01*
X115855761Y-91915690D01*
X116312904Y-91458547D01*
X116312904Y-91953785D01*
D14*
X126185714Y-108909380D02*
X126185714Y-109623666D01*
X126233333Y-109766523D01*
X126328571Y-109861761D01*
X126471428Y-109909380D01*
X126566666Y-109909380D01*
X125709523Y-109909380D02*
X125709523Y-108909380D01*
X125328571Y-108909380D01*
X125233333Y-108957000D01*
X125185714Y-109004619D01*
X125138095Y-109099857D01*
X125138095Y-109242714D01*
X125185714Y-109337952D01*
X125233333Y-109385571D01*
X125328571Y-109433190D01*
X125709523Y-109433190D01*
X124185714Y-109909380D02*
X124757142Y-109909380D01*
X124471428Y-109909380D02*
X124471428Y-108909380D01*
X124566666Y-109052238D01*
X124661904Y-109147476D01*
X124757142Y-109195095D01*
X123566666Y-108909380D02*
X123471428Y-108909380D01*
X123376190Y-108957000D01*
X123328571Y-109004619D01*
X123280952Y-109099857D01*
X123233333Y-109290333D01*
X123233333Y-109528428D01*
X123280952Y-109718904D01*
X123328571Y-109814142D01*
X123376190Y-109861761D01*
X123471428Y-109909380D01*
X123566666Y-109909380D01*
X123661904Y-109861761D01*
X123709523Y-109814142D01*
X123757142Y-109718904D01*
X123804761Y-109528428D01*
X123804761Y-109290333D01*
X123757142Y-109099857D01*
X123709523Y-109004619D01*
X123661904Y-108957000D01*
X123566666Y-108909380D01*
X122280952Y-109909380D02*
X122852380Y-109909380D01*
X122566666Y-109909380D02*
X122566666Y-108909380D01*
X122661904Y-109052238D01*
X122757142Y-109147476D01*
X122852380Y-109195095D01*
X106370214Y-66110380D02*
X106370214Y-66824666D01*
X106417833Y-66967523D01*
X106513071Y-67062761D01*
X106655928Y-67110380D01*
X106751166Y-67110380D01*
X105894023Y-67110380D02*
X105894023Y-66110380D01*
X105513071Y-66110380D01*
X105417833Y-66158000D01*
X105370214Y-66205619D01*
X105322595Y-66300857D01*
X105322595Y-66443714D01*
X105370214Y-66538952D01*
X105417833Y-66586571D01*
X105513071Y-66634190D01*
X105894023Y-66634190D01*
X104370214Y-67110380D02*
X104941642Y-67110380D01*
X104655928Y-67110380D02*
X104655928Y-66110380D01*
X104751166Y-66253238D01*
X104846404Y-66348476D01*
X104941642Y-66396095D01*
X103751166Y-66110380D02*
X103655928Y-66110380D01*
X103560690Y-66158000D01*
X103513071Y-66205619D01*
X103465452Y-66300857D01*
X103417833Y-66491333D01*
X103417833Y-66729428D01*
X103465452Y-66919904D01*
X103513071Y-67015142D01*
X103560690Y-67062761D01*
X103655928Y-67110380D01*
X103751166Y-67110380D01*
X103846404Y-67062761D01*
X103894023Y-67015142D01*
X103941642Y-66919904D01*
X103989261Y-66729428D01*
X103989261Y-66491333D01*
X103941642Y-66300857D01*
X103894023Y-66205619D01*
X103846404Y-66158000D01*
X103751166Y-66110380D01*
X103036880Y-66205619D02*
X102989261Y-66158000D01*
X102894023Y-66110380D01*
X102655928Y-66110380D01*
X102560690Y-66158000D01*
X102513071Y-66205619D01*
X102465452Y-66300857D01*
X102465452Y-66396095D01*
X102513071Y-66538952D01*
X103084500Y-67110380D01*
X102465452Y-67110380D01*
X104116142Y-85249552D02*
X104163761Y-85201933D01*
X104211380Y-85059076D01*
X104211380Y-84963838D01*
X104163761Y-84820980D01*
X104068523Y-84725742D01*
X103973285Y-84678123D01*
X103782809Y-84630504D01*
X103639952Y-84630504D01*
X103449476Y-84678123D01*
X103354238Y-84725742D01*
X103259000Y-84820980D01*
X103211380Y-84963838D01*
X103211380Y-85059076D01*
X103259000Y-85201933D01*
X103306619Y-85249552D01*
X104211380Y-86201933D02*
X104211380Y-85630504D01*
X104211380Y-85916219D02*
X103211380Y-85916219D01*
X103354238Y-85820980D01*
X103449476Y-85725742D01*
X103497095Y-85630504D01*
X104211380Y-87154314D02*
X104211380Y-86582885D01*
X104211380Y-86868600D02*
X103211380Y-86868600D01*
X103354238Y-86773361D01*
X103449476Y-86678123D01*
X103497095Y-86582885D01*
X103211380Y-87487647D02*
X103211380Y-88106695D01*
X103592333Y-87773361D01*
X103592333Y-87916219D01*
X103639952Y-88011457D01*
X103687571Y-88059076D01*
X103782809Y-88106695D01*
X104020904Y-88106695D01*
X104116142Y-88059076D01*
X104163761Y-88011457D01*
X104211380Y-87916219D01*
X104211380Y-87630504D01*
X104163761Y-87535266D01*
X104116142Y-87487647D01*
D15*
X101744428Y-85102857D02*
X101744428Y-84760000D01*
X101744428Y-84931428D02*
X101144428Y-84931428D01*
X101230142Y-84874285D01*
X101287285Y-84817142D01*
X101315857Y-84760000D01*
X101344428Y-85360000D02*
X101744428Y-85360000D01*
X101401571Y-85360000D02*
X101373000Y-85388571D01*
X101344428Y-85445714D01*
X101344428Y-85531428D01*
X101373000Y-85588571D01*
X101430142Y-85617142D01*
X101744428Y-85617142D01*
X101715857Y-85931428D02*
X101744428Y-85931428D01*
X101801571Y-85902857D01*
X101830142Y-85874285D01*
X101144428Y-86588571D02*
X101144428Y-86960000D01*
X101373000Y-86760000D01*
X101373000Y-86845714D01*
X101401571Y-86902857D01*
X101430142Y-86931428D01*
X101487285Y-86960000D01*
X101630142Y-86960000D01*
X101687285Y-86931428D01*
X101715857Y-86902857D01*
X101744428Y-86845714D01*
X101744428Y-86674285D01*
X101715857Y-86617142D01*
X101687285Y-86588571D01*
X101744428Y-87217142D02*
X101144428Y-87217142D01*
X101515857Y-87274285D02*
X101744428Y-87445714D01*
X101344428Y-87445714D02*
X101573000Y-87217142D01*
X101144428Y-87617142D02*
X101744428Y-87817142D01*
X101144428Y-88017142D01*
M02*
