M48
; DRILL file {KiCad 5.1.5+dfsg1-2build2} date Tue Jan 26 12:23:35 2021
; FORMAT={-:-/ absolute / metric / decimal}
; #@! TF.CreationDate,2021-01-26T12:23:35+03:00
; #@! TF.GenerationSoftware,Kicad,Pcbnew,5.1.5+dfsg1-2build2
; #@! TF.FileFunction,Plated,1,2,PTH
FMAT,2
METRIC
T1C0.600
T2C0.762
T3C0.900
T4C2.301
%
G90
G05
T1
X102.235Y-100.965
X103.886Y-95.123
X104.902Y-83.82
X105.283Y-78.359
X105.283Y-100.965
X105.283Y-103.251
X107.823Y-88.9
X108.839Y-81.534
X114.808Y-94.615
X118.11Y-94.615
X119.761Y-94.615
X120.396Y-81.915
X121.031Y-92.964
X123.952Y-72.644
X123.952Y-74.803
X124.079Y-97.536
X125.476Y-80.899
X127.127Y-74.803
T2
X101.323Y-90.11
X101.623Y-82.61
T3
X110.934Y-78.342
X113.474Y-78.342
X115.506Y-78.342
X118.046Y-78.342
X111.094Y-97.646
X113.634Y-97.646
X115.666Y-97.646
X118.206Y-97.646
T4
X107.378Y-75.675
X121.094Y-75.675
X108.046Y-100.313
X121.762Y-100.313
T0
M30
