G04 #@! TF.GenerationSoftware,KiCad,Pcbnew,5.1.5+dfsg1-2build2*
G04 #@! TF.CreationDate,2021-01-26T01:31:42+03:00*
G04 #@! TF.ProjectId,usb_ISO,7573625f-4953-44f2-9e6b-696361645f70,rev?*
G04 #@! TF.SameCoordinates,Original*
G04 #@! TF.FileFunction,Copper,L1,Top*
G04 #@! TF.FilePolarity,Positive*
%FSLAX46Y46*%
G04 Gerber Fmt 4.6, Leading zero omitted, Abs format (unit mm)*
G04 Created by KiCad (PCBNEW 5.1.5+dfsg1-2build2) date 2021-01-26 01:31:42*
%MOMM*%
%LPD*%
G04 APERTURE LIST*
%ADD10R,1.143000X0.635000*%
%ADD11R,1.397000X0.889000*%
%ADD12R,0.800100X1.000760*%
%ADD13C,2.999740*%
%ADD14C,1.600000*%
%ADD15R,0.635000X1.750000*%
%ADD16C,1.524000*%
%ADD17C,1.200000*%
%ADD18C,1.000000*%
%ADD19C,0.500000*%
%ADD20C,0.700000*%
%ADD21C,0.600000*%
%ADD22C,0.254000*%
G04 APERTURE END LIST*
D10*
X124206000Y-92964000D03*
X124206000Y-94488000D03*
D11*
X126238000Y-92773500D03*
X126238000Y-94678500D03*
D10*
X122428000Y-90170000D03*
X122428000Y-91694000D03*
X122428000Y-92964000D03*
X122428000Y-94488000D03*
X111076000Y-101075000D03*
X111076000Y-99551000D03*
X104902000Y-89154000D03*
X104902000Y-90678000D03*
X105664000Y-81534000D03*
X105664000Y-83058000D03*
X107442000Y-81534000D03*
X107442000Y-83058000D03*
X118046500Y-75057000D03*
X118046500Y-76581000D03*
D12*
X103886000Y-100921820D03*
X102933500Y-98722180D03*
X104838500Y-98722180D03*
X124523500Y-77299820D03*
X126428500Y-77299820D03*
X125476000Y-75100180D03*
D13*
X121762000Y-100313000D03*
X108046000Y-100313000D03*
D14*
X118206000Y-97646000D03*
X115666000Y-97646000D03*
X113634000Y-97646000D03*
X111094000Y-97646000D03*
X118046500Y-78342000D03*
X115506500Y-78342000D03*
X113474500Y-78342000D03*
X110934500Y-78342000D03*
D13*
X121094500Y-75675000D03*
X107378500Y-75675000D03*
D11*
X118237000Y-99377500D03*
X118237000Y-101282500D03*
X110871000Y-76771500D03*
X110871000Y-74866500D03*
D10*
X106680000Y-95758000D03*
X106680000Y-97282000D03*
X101092000Y-97282000D03*
X101092000Y-95758000D03*
X122682000Y-80264000D03*
X122682000Y-78740000D03*
D15*
X110455000Y-92329000D03*
X111725000Y-92329000D03*
X115535000Y-92329000D03*
X119345000Y-92329000D03*
X112995000Y-92329000D03*
X114265000Y-92329000D03*
X116805000Y-92329000D03*
X118075000Y-92329000D03*
X119345000Y-82931000D03*
X118075000Y-82931000D03*
X116805000Y-82931000D03*
X110455000Y-82931000D03*
X111725000Y-82931000D03*
X112995000Y-82931000D03*
X114265000Y-82931000D03*
X115535000Y-82931000D03*
D11*
X103632000Y-83248500D03*
X103632000Y-81343500D03*
D10*
X107442000Y-78740000D03*
X107442000Y-80264000D03*
X128270000Y-78740000D03*
X128270000Y-80264000D03*
X102870000Y-94488000D03*
X102870000Y-92964000D03*
X104902000Y-92964000D03*
X104902000Y-94488000D03*
X126492000Y-81534000D03*
X126492000Y-83058000D03*
X124460000Y-83058000D03*
X124460000Y-81534000D03*
X102870000Y-97282000D03*
X102870000Y-95758000D03*
X104902000Y-95758000D03*
X104902000Y-97282000D03*
X126492000Y-78740000D03*
X126492000Y-80264000D03*
X124460000Y-80264000D03*
X124460000Y-78740000D03*
D16*
X101623000Y-82610000D03*
X101323000Y-90110000D03*
D17*
X103886000Y-95123000D03*
X102235000Y-100965000D03*
X119761000Y-94615000D03*
X121031000Y-92964000D03*
X124079000Y-97536000D03*
X105283000Y-78359000D03*
X104902000Y-83820000D03*
X125476000Y-80899000D03*
X120396000Y-81915000D03*
X127127000Y-74803000D03*
X108839000Y-81534000D03*
D18*
X123952000Y-72644000D03*
X123952000Y-74803000D03*
X107823000Y-88900000D03*
X114808000Y-94615000D03*
X118110000Y-94615000D03*
X105283000Y-103251000D03*
X105283000Y-100965000D03*
D19*
X108808000Y-99551000D02*
X108046000Y-100313000D01*
X108808000Y-101075000D02*
X108046000Y-100313000D01*
X111076000Y-101075000D02*
X108808000Y-101075000D01*
X111725000Y-92329000D02*
X111725000Y-93380000D01*
X111725000Y-93380000D02*
X111252000Y-93853000D01*
X111252000Y-93853000D02*
X109601000Y-93853000D01*
X109601000Y-93853000D02*
X109347000Y-93599000D01*
X104902000Y-95758000D02*
X103886000Y-95758000D01*
X103886000Y-95758000D02*
X102870000Y-95758000D01*
X103886000Y-94488000D02*
X102870000Y-94488000D01*
X103886000Y-94488000D02*
X104902000Y-94488000D01*
X103886000Y-95758000D02*
X103886000Y-95123000D01*
X103886000Y-95123000D02*
X103886000Y-94488000D01*
X104902000Y-89154000D02*
X105973500Y-89154000D01*
X109347000Y-92527500D02*
X109347000Y-93345000D01*
X109347000Y-93345000D02*
X109347000Y-93599000D01*
X103886000Y-100921820D02*
X103802180Y-100921820D01*
X103759000Y-100965000D02*
X102235000Y-100965000D01*
X103802180Y-100921820D02*
X103759000Y-100965000D01*
X124206000Y-94488000D02*
X122428000Y-94488000D01*
X126047500Y-94488000D02*
X126238000Y-94678500D01*
X124206000Y-94488000D02*
X126047500Y-94488000D01*
X122428000Y-94488000D02*
X119888000Y-94488000D01*
X119345000Y-93945000D02*
X119345000Y-92329000D01*
X119888000Y-94488000D02*
X119345000Y-93945000D01*
X105973500Y-89154000D02*
X109347000Y-92527500D01*
X119345000Y-93945000D02*
X119345000Y-94199000D01*
X119345000Y-94199000D02*
X119761000Y-94615000D01*
X111094000Y-99533000D02*
X111076000Y-99551000D01*
X111094000Y-97646000D02*
X111094000Y-99533000D01*
X104902000Y-89154000D02*
X101473000Y-89154000D01*
X101323000Y-89304000D02*
X101323000Y-90110000D01*
X101473000Y-89154000D02*
X101323000Y-89304000D01*
X122428000Y-91694000D02*
X122428000Y-92964000D01*
D20*
X122428000Y-92964000D02*
X121031000Y-92964000D01*
D19*
X110455000Y-90954000D02*
X110731000Y-90678000D01*
X110455000Y-92329000D02*
X110455000Y-90954000D01*
X110731000Y-90678000D02*
X120396000Y-90678000D01*
X120396000Y-90678000D02*
X121031000Y-91313000D01*
X121031000Y-91313000D02*
X121031000Y-92964000D01*
D20*
X118237000Y-102427000D02*
X118237000Y-101282500D01*
X119188000Y-103378000D02*
X118237000Y-102427000D01*
X123444000Y-103378000D02*
X119188000Y-103378000D01*
X124088498Y-102733502D02*
X123444000Y-103378000D01*
X124088498Y-97536000D02*
X124088498Y-102733502D01*
D19*
X115535000Y-92329000D02*
X114265000Y-92329000D01*
X114265000Y-92329000D02*
X112995000Y-92329000D01*
X104902000Y-90678000D02*
X106172000Y-90678000D01*
X106172000Y-90678000D02*
X108331000Y-92837000D01*
X112995000Y-94142000D02*
X112995000Y-92329000D01*
X112525020Y-94611980D02*
X112995000Y-94142000D01*
X108331000Y-93980000D02*
X108962980Y-94611980D01*
X108331000Y-93345000D02*
X108331000Y-93980000D01*
X108331000Y-92837000D02*
X108331000Y-93345000D01*
X112525020Y-94611980D02*
X108966000Y-94611980D01*
X107442000Y-83058000D02*
X105664000Y-83058000D01*
X103822500Y-83058000D02*
X103632000Y-83248500D01*
X105664000Y-83058000D02*
X103822500Y-83058000D01*
X110328000Y-83058000D02*
X110455000Y-82931000D01*
X107442000Y-83058000D02*
X110328000Y-83058000D01*
D20*
X110871000Y-74866500D02*
X110871000Y-73533000D01*
X110871000Y-73533000D02*
X109728000Y-72390000D01*
X109728000Y-72390000D02*
X106045000Y-72390000D01*
X105283000Y-73152000D02*
X105283000Y-78359000D01*
X106045000Y-72390000D02*
X105283000Y-73152000D01*
X104902000Y-83820000D02*
X104902000Y-83185000D01*
X105537000Y-83185000D02*
X105664000Y-83058000D01*
X104902000Y-83185000D02*
X105537000Y-83185000D01*
D19*
X124460000Y-81534000D02*
X126492000Y-81534000D01*
X126492000Y-80264000D02*
X125476000Y-80264000D01*
X125476000Y-80264000D02*
X124460000Y-80264000D01*
X125476000Y-80264000D02*
X125476000Y-80899000D01*
X125476000Y-80899000D02*
X125476000Y-81534000D01*
X119345000Y-82931000D02*
X119345000Y-82331000D01*
X119761000Y-81915000D02*
X120396000Y-81915000D01*
X119345000Y-82331000D02*
X119761000Y-81915000D01*
X126829820Y-75100180D02*
X127127000Y-74803000D01*
X125476000Y-75100180D02*
X126829820Y-75100180D01*
X107442000Y-81026000D02*
X107442000Y-81534000D01*
X107442000Y-81026000D02*
X107442000Y-80264000D01*
X107442000Y-81534000D02*
X105664000Y-81534000D01*
X103822500Y-81534000D02*
X103632000Y-81343500D01*
X105664000Y-81534000D02*
X103822500Y-81534000D01*
X108839000Y-81534000D02*
X107442000Y-81534000D01*
X111725000Y-81556000D02*
X111322000Y-81153000D01*
X111725000Y-82931000D02*
X111725000Y-81556000D01*
X111322000Y-81153000D02*
X109093000Y-81153000D01*
X109093000Y-81153000D02*
X108839000Y-81407000D01*
X108839000Y-81407000D02*
X108839000Y-81534000D01*
X118046500Y-78342000D02*
X118046500Y-76581000D01*
X101623000Y-81532370D02*
X101623000Y-82610000D01*
X101811870Y-81343500D02*
X101623000Y-81532370D01*
X103632000Y-81343500D02*
X101811870Y-81343500D01*
X120188500Y-76581000D02*
X121094500Y-75675000D01*
X120476500Y-75057000D02*
X121094500Y-75675000D01*
X118046500Y-75057000D02*
X120476500Y-75057000D01*
X118206000Y-99346500D02*
X118237000Y-99377500D01*
X118206000Y-97646000D02*
X118206000Y-99346500D01*
X110934500Y-76835000D02*
X110871000Y-76771500D01*
X110934500Y-78342000D02*
X110934500Y-76835000D01*
D21*
X122682000Y-78740000D02*
X124460000Y-78740000D01*
X124523500Y-78676500D02*
X124460000Y-78740000D01*
X124523500Y-77299820D02*
X124523500Y-78676500D01*
D19*
X113474500Y-78342000D02*
X113474500Y-74104500D01*
X113474500Y-74104500D02*
X114935000Y-72644000D01*
X114935000Y-72644000D02*
X115189000Y-72390000D01*
X115189000Y-72390000D02*
X123698000Y-72390000D01*
X123698000Y-72390000D02*
X123952000Y-72644000D01*
X123952000Y-76728320D02*
X124523500Y-77299820D01*
X123952000Y-74803000D02*
X123952000Y-76728320D01*
D21*
X126428500Y-78676500D02*
X126492000Y-78740000D01*
X126428500Y-77299820D02*
X126428500Y-78676500D01*
X128270000Y-78740000D02*
X126492000Y-78740000D01*
D19*
X125095000Y-73660000D02*
X126238000Y-73660000D01*
X128397000Y-78613000D02*
X128270000Y-78740000D01*
X128397000Y-74168000D02*
X128397000Y-78613000D01*
X127889000Y-73660000D02*
X128397000Y-74168000D01*
X125095000Y-73660000D02*
X127889000Y-73660000D01*
X115506500Y-73850500D02*
X115506500Y-78342000D01*
X123190000Y-73406000D02*
X115951000Y-73406000D01*
X115951000Y-73406000D02*
X115506500Y-73850500D01*
X123444000Y-73660000D02*
X123190000Y-73406000D01*
X125095000Y-73660000D02*
X123444000Y-73660000D01*
X126047500Y-92964000D02*
X126238000Y-92773500D01*
X124206000Y-92964000D02*
X126047500Y-92964000D01*
X122174000Y-89916000D02*
X122428000Y-90170000D01*
X109982000Y-89916000D02*
X122174000Y-89916000D01*
X108966000Y-88900000D02*
X109982000Y-89916000D01*
X107823000Y-88900000D02*
X108966000Y-88900000D01*
X123499500Y-90170000D02*
X122428000Y-90170000D01*
X124206000Y-90876500D02*
X123499500Y-90170000D01*
X124206000Y-92964000D02*
X124206000Y-90876500D01*
X115535000Y-82931000D02*
X114265000Y-82931000D01*
X114265000Y-82931000D02*
X112995000Y-82931000D01*
X108513500Y-78740000D02*
X107442000Y-78740000D01*
X108712000Y-78938500D02*
X108513500Y-78740000D01*
X108712000Y-79629000D02*
X108712000Y-78938500D01*
X109220000Y-80137000D02*
X108712000Y-79629000D01*
X112995000Y-81499000D02*
X111633000Y-80137000D01*
X111633000Y-80137000D02*
X109220000Y-80137000D01*
X112995000Y-82931000D02*
X112995000Y-81499000D01*
X102870000Y-92964000D02*
X102870000Y-92146500D01*
X101092000Y-95758000D02*
X101092000Y-92456000D01*
X101092000Y-92456000D02*
X101727000Y-91821000D01*
X101727000Y-91821000D02*
X103505000Y-91821000D01*
X102870000Y-92146500D02*
X102870000Y-91821000D01*
X105029000Y-91821000D02*
X105537000Y-91821000D01*
X103195500Y-91821000D02*
X104013000Y-91821000D01*
X104013000Y-91821000D02*
X105029000Y-91821000D01*
X118110000Y-92364000D02*
X118075000Y-92329000D01*
X118110000Y-94615000D02*
X118110000Y-92364000D01*
X105029000Y-91821000D02*
X105791000Y-91821000D01*
X105791000Y-91821000D02*
X106045000Y-91821000D01*
X106045000Y-91821000D02*
X107442000Y-93218000D01*
X107442000Y-93218000D02*
X107442000Y-94820998D01*
X107442000Y-94820998D02*
X107932992Y-95311990D01*
X107932992Y-95311990D02*
X114111010Y-95311990D01*
X114111010Y-95311990D02*
X114808000Y-94615000D01*
X106680000Y-94940500D02*
X106680000Y-95758000D01*
X106680000Y-93670500D02*
X106680000Y-94940500D01*
X105973500Y-92964000D02*
X106680000Y-93670500D01*
X104902000Y-92964000D02*
X105973500Y-92964000D01*
X106680000Y-95758000D02*
X106680000Y-95885000D01*
X106680000Y-95885000D02*
X106807000Y-96012000D01*
X106807000Y-96012000D02*
X115824000Y-96012000D01*
X116805000Y-95031000D02*
X116805000Y-92329000D01*
X115824000Y-96012000D02*
X116805000Y-95031000D01*
X128270000Y-80264000D02*
X128270000Y-83439000D01*
X128270000Y-83439000D02*
X127635000Y-84074000D01*
X126492000Y-83058000D02*
X126492000Y-84074000D01*
X127635000Y-84074000D02*
X122936000Y-84074000D01*
X122936000Y-84074000D02*
X121666000Y-82804000D01*
X121666000Y-82804000D02*
X121666000Y-81788000D01*
X118075000Y-82931000D02*
X118075000Y-81061000D01*
X118075000Y-81061000D02*
X118364000Y-80772000D01*
X118364000Y-80772000D02*
X121412000Y-80772000D01*
X121412000Y-80772000D02*
X121666000Y-81026000D01*
X121666000Y-81026000D02*
X121666000Y-81788000D01*
X122682000Y-81081500D02*
X122682000Y-80264000D01*
X122682000Y-82351500D02*
X122682000Y-81081500D01*
X123388500Y-83058000D02*
X122682000Y-82351500D01*
X124460000Y-83058000D02*
X123388500Y-83058000D01*
X122428000Y-80010000D02*
X122682000Y-80264000D01*
X117729000Y-80010000D02*
X122428000Y-80010000D01*
X116805000Y-80934000D02*
X117729000Y-80010000D01*
X116805000Y-82931000D02*
X116805000Y-80934000D01*
X101092000Y-97282000D02*
X102870000Y-97282000D01*
X102933500Y-97345500D02*
X102870000Y-97282000D01*
X102933500Y-98722180D02*
X102933500Y-97345500D01*
X107061000Y-102616000D02*
X106553000Y-102616000D01*
X106299000Y-102616000D02*
X105918000Y-102235000D01*
X105156000Y-102235000D02*
X105090001Y-102300999D01*
X105537000Y-102235000D02*
X105156000Y-102235000D01*
X105090001Y-102300999D02*
X104709001Y-102300999D01*
X105918000Y-102235000D02*
X105537000Y-102235000D01*
X104709001Y-102300999D02*
X103632000Y-103378000D01*
X103632000Y-103378000D02*
X102235000Y-103378000D01*
X101092000Y-97282000D02*
X101092000Y-102235000D01*
X101092000Y-102235000D02*
X101092000Y-102362000D01*
X101092000Y-102362000D02*
X102108000Y-103378000D01*
X102108000Y-103378000D02*
X102362000Y-103378000D01*
X107061000Y-102616000D02*
X106299000Y-102616000D01*
X111506000Y-102616000D02*
X112903000Y-102616000D01*
X111887000Y-102616000D02*
X111506000Y-102616000D01*
X111506000Y-102616000D02*
X107061000Y-102616000D01*
X113634000Y-101885000D02*
X113634000Y-97646000D01*
X112903000Y-102616000D02*
X113634000Y-101885000D01*
X104902000Y-97282000D02*
X106680000Y-97282000D01*
X104838500Y-97345500D02*
X104902000Y-97282000D01*
X104838500Y-98722180D02*
X104838500Y-97345500D01*
X115666000Y-97646000D02*
X115666000Y-101250000D01*
X115666000Y-101250000D02*
X113411000Y-103505000D01*
X113411000Y-103505000D02*
X105537000Y-103505000D01*
X105537000Y-103505000D02*
X105283000Y-103251000D01*
X105283000Y-99166680D02*
X104838500Y-98722180D01*
X105283000Y-100965000D02*
X105283000Y-99166680D01*
D22*
G36*
X122773000Y-71613000D02*
G01*
X115227155Y-71613000D01*
X115188999Y-71609242D01*
X115150843Y-71613000D01*
X115150834Y-71613000D01*
X115036681Y-71624243D01*
X114890216Y-71668673D01*
X114755234Y-71740823D01*
X114636920Y-71837920D01*
X114612587Y-71867570D01*
X114412571Y-72067586D01*
X114412565Y-72067591D01*
X112952065Y-73528092D01*
X112922421Y-73552420D01*
X112898093Y-73582064D01*
X112898091Y-73582066D01*
X112825323Y-73670734D01*
X112753173Y-73805717D01*
X112708744Y-73952182D01*
X112693741Y-74104500D01*
X112697501Y-74142673D01*
X112697500Y-77265206D01*
X112628587Y-77311252D01*
X112443752Y-77496087D01*
X112298528Y-77713430D01*
X112204500Y-77940433D01*
X112110472Y-77713430D01*
X111990443Y-77533794D01*
X112009804Y-77510202D01*
X112058739Y-77418650D01*
X112088874Y-77319310D01*
X112099049Y-77216000D01*
X112099049Y-76327000D01*
X112088874Y-76223690D01*
X112058739Y-76124350D01*
X112009804Y-76032798D01*
X111943948Y-75952552D01*
X111863702Y-75886696D01*
X111772150Y-75837761D01*
X111710304Y-75819000D01*
X111772150Y-75800239D01*
X111863702Y-75751304D01*
X111943948Y-75685448D01*
X112009804Y-75605202D01*
X112058739Y-75513650D01*
X112088874Y-75414310D01*
X112099049Y-75311000D01*
X112099049Y-74422000D01*
X112088874Y-74318690D01*
X112058739Y-74219350D01*
X112009804Y-74127798D01*
X111943948Y-74047552D01*
X111863702Y-73981696D01*
X111772150Y-73932761D01*
X111748000Y-73925435D01*
X111748000Y-73576076D01*
X111752243Y-73532999D01*
X111748000Y-73489921D01*
X111735310Y-73361078D01*
X111685162Y-73195763D01*
X111603727Y-73043408D01*
X111575019Y-73008427D01*
X111521594Y-72943328D01*
X111521592Y-72943326D01*
X111494133Y-72909867D01*
X111460674Y-72882408D01*
X110378596Y-71800331D01*
X110351133Y-71766867D01*
X110217592Y-71657273D01*
X110065237Y-71575838D01*
X109899922Y-71525690D01*
X109771079Y-71513000D01*
X109728000Y-71508757D01*
X109684921Y-71513000D01*
X106088079Y-71513000D01*
X106045000Y-71508757D01*
X105873077Y-71525690D01*
X105707763Y-71575838D01*
X105555408Y-71657273D01*
X105555406Y-71657274D01*
X105555407Y-71657274D01*
X105462056Y-71733885D01*
X105421867Y-71766867D01*
X105394408Y-71800327D01*
X104693331Y-72501404D01*
X104659867Y-72528867D01*
X104550273Y-72662409D01*
X104515622Y-72727237D01*
X104468838Y-72814764D01*
X104418690Y-72980078D01*
X104401757Y-73152000D01*
X104406000Y-73195080D01*
X104406000Y-73823194D01*
X104357201Y-73774395D01*
X103982798Y-73524227D01*
X103566784Y-73351908D01*
X103125145Y-73264061D01*
X102674855Y-73264061D01*
X102233216Y-73351908D01*
X101817202Y-73524227D01*
X101442799Y-73774395D01*
X101124395Y-74092799D01*
X100874227Y-74467202D01*
X100701908Y-74883216D01*
X100614061Y-75324855D01*
X100614061Y-75775145D01*
X100701908Y-76216784D01*
X100874227Y-76632798D01*
X101124395Y-77007201D01*
X101442799Y-77325605D01*
X101817202Y-77575773D01*
X102233216Y-77748092D01*
X102674855Y-77835939D01*
X103125145Y-77835939D01*
X103566784Y-77748092D01*
X103982798Y-77575773D01*
X104357201Y-77325605D01*
X104406001Y-77276805D01*
X104406001Y-77642975D01*
X104284266Y-77825165D01*
X104199310Y-78030266D01*
X104156000Y-78248000D01*
X104156000Y-78470000D01*
X104199310Y-78687734D01*
X104284266Y-78892835D01*
X104407602Y-79077421D01*
X104564579Y-79234398D01*
X104749165Y-79357734D01*
X104954266Y-79442690D01*
X105172000Y-79486000D01*
X105394000Y-79486000D01*
X105611734Y-79442690D01*
X105816835Y-79357734D01*
X106001421Y-79234398D01*
X106158398Y-79077421D01*
X106281734Y-78892835D01*
X106340951Y-78749873D01*
X106340951Y-79057500D01*
X106351126Y-79160810D01*
X106381261Y-79260150D01*
X106430196Y-79351702D01*
X106496052Y-79431948D01*
X106496290Y-79432143D01*
X106419315Y-79495315D01*
X106339963Y-79592006D01*
X106280998Y-79702320D01*
X106244688Y-79822018D01*
X106232428Y-79946500D01*
X106235500Y-79978250D01*
X106394250Y-80137000D01*
X107315000Y-80137000D01*
X107315000Y-80117000D01*
X107569000Y-80117000D01*
X107569000Y-80137000D01*
X107589000Y-80137000D01*
X107589000Y-80391000D01*
X107569000Y-80391000D01*
X107569000Y-81407000D01*
X108489750Y-81407000D01*
X108648500Y-81248250D01*
X108651572Y-81216500D01*
X108639312Y-81092018D01*
X108603002Y-80972320D01*
X108563811Y-80899000D01*
X108603002Y-80825680D01*
X108639312Y-80705982D01*
X108643864Y-80659767D01*
X108667920Y-80689080D01*
X108730271Y-80740250D01*
X108786233Y-80786177D01*
X108842176Y-80816079D01*
X108921216Y-80858327D01*
X109067681Y-80902757D01*
X109181834Y-80914000D01*
X109181846Y-80914000D01*
X109219999Y-80917758D01*
X109258152Y-80914000D01*
X111311157Y-80914000D01*
X111914453Y-81517297D01*
X111852000Y-81579750D01*
X111852000Y-82804000D01*
X111872000Y-82804000D01*
X111872000Y-83058000D01*
X111852000Y-83058000D01*
X111852000Y-83078000D01*
X111598000Y-83078000D01*
X111598000Y-83058000D01*
X111578000Y-83058000D01*
X111578000Y-82804000D01*
X111598000Y-82804000D01*
X111598000Y-81579750D01*
X111439250Y-81421000D01*
X111407500Y-81417928D01*
X111283018Y-81430188D01*
X111163320Y-81466498D01*
X111053006Y-81525463D01*
X110991824Y-81575673D01*
X110975150Y-81566761D01*
X110875810Y-81536626D01*
X110772500Y-81526451D01*
X110137500Y-81526451D01*
X110034190Y-81536626D01*
X109934850Y-81566761D01*
X109843298Y-81615696D01*
X109763052Y-81681552D01*
X109697196Y-81761798D01*
X109648261Y-81853350D01*
X109618126Y-81952690D01*
X109607951Y-82056000D01*
X109607951Y-82281000D01*
X108482481Y-82281000D01*
X108544037Y-82205994D01*
X108603002Y-82095680D01*
X108639312Y-81975982D01*
X108651572Y-81851500D01*
X108648500Y-81819750D01*
X108489750Y-81661000D01*
X107569000Y-81661000D01*
X107569000Y-81681000D01*
X107315000Y-81681000D01*
X107315000Y-81661000D01*
X105791000Y-81661000D01*
X105791000Y-81681000D01*
X105537000Y-81681000D01*
X105537000Y-81661000D01*
X105517000Y-81661000D01*
X105517000Y-81407000D01*
X105537000Y-81407000D01*
X105537000Y-80740250D01*
X105791000Y-80740250D01*
X105791000Y-81407000D01*
X107315000Y-81407000D01*
X107315000Y-80391000D01*
X106394250Y-80391000D01*
X106235500Y-80549750D01*
X106232722Y-80578458D01*
X105949750Y-80581500D01*
X105791000Y-80740250D01*
X105537000Y-80740250D01*
X105378250Y-80581500D01*
X105092500Y-80578428D01*
X104968018Y-80590688D01*
X104897204Y-80612169D01*
X104861037Y-80544506D01*
X104781685Y-80447815D01*
X104684994Y-80368463D01*
X104574680Y-80309498D01*
X104454982Y-80273188D01*
X104330500Y-80260928D01*
X103917750Y-80264000D01*
X103759000Y-80422750D01*
X103759000Y-81216500D01*
X103779000Y-81216500D01*
X103779000Y-81470500D01*
X103759000Y-81470500D01*
X103759000Y-81490500D01*
X103505000Y-81490500D01*
X103505000Y-81470500D01*
X102457250Y-81470500D01*
X102381554Y-81546196D01*
X102341980Y-81404344D01*
X102092952Y-81287244D01*
X101825865Y-81220977D01*
X101550983Y-81208090D01*
X101278867Y-81249078D01*
X101019977Y-81342364D01*
X100904020Y-81404344D01*
X100837040Y-81644435D01*
X101623000Y-82430395D01*
X101637143Y-82416253D01*
X101816748Y-82595858D01*
X101802605Y-82610000D01*
X101816748Y-82624143D01*
X101637143Y-82803748D01*
X101623000Y-82789605D01*
X100837040Y-83575565D01*
X100904020Y-83815656D01*
X101153048Y-83932756D01*
X101420135Y-83999023D01*
X101695017Y-84011910D01*
X101967133Y-83970922D01*
X102226023Y-83877636D01*
X102341980Y-83815656D01*
X102403951Y-83593520D01*
X102403951Y-83693000D01*
X102414126Y-83796310D01*
X102444261Y-83895650D01*
X102493196Y-83987202D01*
X102559052Y-84067448D01*
X102639298Y-84133304D01*
X102730850Y-84182239D01*
X102830190Y-84212374D01*
X102933500Y-84222549D01*
X103848885Y-84222549D01*
X103892565Y-84328000D01*
X100782606Y-84328000D01*
X100527000Y-84072394D01*
X100527000Y-83359572D01*
X100657435Y-83395960D01*
X101443395Y-82610000D01*
X100657435Y-81824040D01*
X100527000Y-81860428D01*
X100527000Y-80899000D01*
X102295428Y-80899000D01*
X102298500Y-81057750D01*
X102457250Y-81216500D01*
X103505000Y-81216500D01*
X103505000Y-80422750D01*
X103346250Y-80264000D01*
X102933500Y-80260928D01*
X102809018Y-80273188D01*
X102689320Y-80309498D01*
X102579006Y-80368463D01*
X102482315Y-80447815D01*
X102402963Y-80544506D01*
X102343998Y-80654820D01*
X102307688Y-80774518D01*
X102295428Y-80899000D01*
X100527000Y-80899000D01*
X100527000Y-66427000D01*
X122773001Y-66427000D01*
X122773000Y-71613000D01*
G37*
X122773000Y-71613000D02*
X115227155Y-71613000D01*
X115188999Y-71609242D01*
X115150843Y-71613000D01*
X115150834Y-71613000D01*
X115036681Y-71624243D01*
X114890216Y-71668673D01*
X114755234Y-71740823D01*
X114636920Y-71837920D01*
X114612587Y-71867570D01*
X114412571Y-72067586D01*
X114412565Y-72067591D01*
X112952065Y-73528092D01*
X112922421Y-73552420D01*
X112898093Y-73582064D01*
X112898091Y-73582066D01*
X112825323Y-73670734D01*
X112753173Y-73805717D01*
X112708744Y-73952182D01*
X112693741Y-74104500D01*
X112697501Y-74142673D01*
X112697500Y-77265206D01*
X112628587Y-77311252D01*
X112443752Y-77496087D01*
X112298528Y-77713430D01*
X112204500Y-77940433D01*
X112110472Y-77713430D01*
X111990443Y-77533794D01*
X112009804Y-77510202D01*
X112058739Y-77418650D01*
X112088874Y-77319310D01*
X112099049Y-77216000D01*
X112099049Y-76327000D01*
X112088874Y-76223690D01*
X112058739Y-76124350D01*
X112009804Y-76032798D01*
X111943948Y-75952552D01*
X111863702Y-75886696D01*
X111772150Y-75837761D01*
X111710304Y-75819000D01*
X111772150Y-75800239D01*
X111863702Y-75751304D01*
X111943948Y-75685448D01*
X112009804Y-75605202D01*
X112058739Y-75513650D01*
X112088874Y-75414310D01*
X112099049Y-75311000D01*
X112099049Y-74422000D01*
X112088874Y-74318690D01*
X112058739Y-74219350D01*
X112009804Y-74127798D01*
X111943948Y-74047552D01*
X111863702Y-73981696D01*
X111772150Y-73932761D01*
X111748000Y-73925435D01*
X111748000Y-73576076D01*
X111752243Y-73532999D01*
X111748000Y-73489921D01*
X111735310Y-73361078D01*
X111685162Y-73195763D01*
X111603727Y-73043408D01*
X111575019Y-73008427D01*
X111521594Y-72943328D01*
X111521592Y-72943326D01*
X111494133Y-72909867D01*
X111460674Y-72882408D01*
X110378596Y-71800331D01*
X110351133Y-71766867D01*
X110217592Y-71657273D01*
X110065237Y-71575838D01*
X109899922Y-71525690D01*
X109771079Y-71513000D01*
X109728000Y-71508757D01*
X109684921Y-71513000D01*
X106088079Y-71513000D01*
X106045000Y-71508757D01*
X105873077Y-71525690D01*
X105707763Y-71575838D01*
X105555408Y-71657273D01*
X105555406Y-71657274D01*
X105555407Y-71657274D01*
X105462056Y-71733885D01*
X105421867Y-71766867D01*
X105394408Y-71800327D01*
X104693331Y-72501404D01*
X104659867Y-72528867D01*
X104550273Y-72662409D01*
X104515622Y-72727237D01*
X104468838Y-72814764D01*
X104418690Y-72980078D01*
X104401757Y-73152000D01*
X104406000Y-73195080D01*
X104406000Y-73823194D01*
X104357201Y-73774395D01*
X103982798Y-73524227D01*
X103566784Y-73351908D01*
X103125145Y-73264061D01*
X102674855Y-73264061D01*
X102233216Y-73351908D01*
X101817202Y-73524227D01*
X101442799Y-73774395D01*
X101124395Y-74092799D01*
X100874227Y-74467202D01*
X100701908Y-74883216D01*
X100614061Y-75324855D01*
X100614061Y-75775145D01*
X100701908Y-76216784D01*
X100874227Y-76632798D01*
X101124395Y-77007201D01*
X101442799Y-77325605D01*
X101817202Y-77575773D01*
X102233216Y-77748092D01*
X102674855Y-77835939D01*
X103125145Y-77835939D01*
X103566784Y-77748092D01*
X103982798Y-77575773D01*
X104357201Y-77325605D01*
X104406001Y-77276805D01*
X104406001Y-77642975D01*
X104284266Y-77825165D01*
X104199310Y-78030266D01*
X104156000Y-78248000D01*
X104156000Y-78470000D01*
X104199310Y-78687734D01*
X104284266Y-78892835D01*
X104407602Y-79077421D01*
X104564579Y-79234398D01*
X104749165Y-79357734D01*
X104954266Y-79442690D01*
X105172000Y-79486000D01*
X105394000Y-79486000D01*
X105611734Y-79442690D01*
X105816835Y-79357734D01*
X106001421Y-79234398D01*
X106158398Y-79077421D01*
X106281734Y-78892835D01*
X106340951Y-78749873D01*
X106340951Y-79057500D01*
X106351126Y-79160810D01*
X106381261Y-79260150D01*
X106430196Y-79351702D01*
X106496052Y-79431948D01*
X106496290Y-79432143D01*
X106419315Y-79495315D01*
X106339963Y-79592006D01*
X106280998Y-79702320D01*
X106244688Y-79822018D01*
X106232428Y-79946500D01*
X106235500Y-79978250D01*
X106394250Y-80137000D01*
X107315000Y-80137000D01*
X107315000Y-80117000D01*
X107569000Y-80117000D01*
X107569000Y-80137000D01*
X107589000Y-80137000D01*
X107589000Y-80391000D01*
X107569000Y-80391000D01*
X107569000Y-81407000D01*
X108489750Y-81407000D01*
X108648500Y-81248250D01*
X108651572Y-81216500D01*
X108639312Y-81092018D01*
X108603002Y-80972320D01*
X108563811Y-80899000D01*
X108603002Y-80825680D01*
X108639312Y-80705982D01*
X108643864Y-80659767D01*
X108667920Y-80689080D01*
X108730271Y-80740250D01*
X108786233Y-80786177D01*
X108842176Y-80816079D01*
X108921216Y-80858327D01*
X109067681Y-80902757D01*
X109181834Y-80914000D01*
X109181846Y-80914000D01*
X109219999Y-80917758D01*
X109258152Y-80914000D01*
X111311157Y-80914000D01*
X111914453Y-81517297D01*
X111852000Y-81579750D01*
X111852000Y-82804000D01*
X111872000Y-82804000D01*
X111872000Y-83058000D01*
X111852000Y-83058000D01*
X111852000Y-83078000D01*
X111598000Y-83078000D01*
X111598000Y-83058000D01*
X111578000Y-83058000D01*
X111578000Y-82804000D01*
X111598000Y-82804000D01*
X111598000Y-81579750D01*
X111439250Y-81421000D01*
X111407500Y-81417928D01*
X111283018Y-81430188D01*
X111163320Y-81466498D01*
X111053006Y-81525463D01*
X110991824Y-81575673D01*
X110975150Y-81566761D01*
X110875810Y-81536626D01*
X110772500Y-81526451D01*
X110137500Y-81526451D01*
X110034190Y-81536626D01*
X109934850Y-81566761D01*
X109843298Y-81615696D01*
X109763052Y-81681552D01*
X109697196Y-81761798D01*
X109648261Y-81853350D01*
X109618126Y-81952690D01*
X109607951Y-82056000D01*
X109607951Y-82281000D01*
X108482481Y-82281000D01*
X108544037Y-82205994D01*
X108603002Y-82095680D01*
X108639312Y-81975982D01*
X108651572Y-81851500D01*
X108648500Y-81819750D01*
X108489750Y-81661000D01*
X107569000Y-81661000D01*
X107569000Y-81681000D01*
X107315000Y-81681000D01*
X107315000Y-81661000D01*
X105791000Y-81661000D01*
X105791000Y-81681000D01*
X105537000Y-81681000D01*
X105537000Y-81661000D01*
X105517000Y-81661000D01*
X105517000Y-81407000D01*
X105537000Y-81407000D01*
X105537000Y-80740250D01*
X105791000Y-80740250D01*
X105791000Y-81407000D01*
X107315000Y-81407000D01*
X107315000Y-80391000D01*
X106394250Y-80391000D01*
X106235500Y-80549750D01*
X106232722Y-80578458D01*
X105949750Y-80581500D01*
X105791000Y-80740250D01*
X105537000Y-80740250D01*
X105378250Y-80581500D01*
X105092500Y-80578428D01*
X104968018Y-80590688D01*
X104897204Y-80612169D01*
X104861037Y-80544506D01*
X104781685Y-80447815D01*
X104684994Y-80368463D01*
X104574680Y-80309498D01*
X104454982Y-80273188D01*
X104330500Y-80260928D01*
X103917750Y-80264000D01*
X103759000Y-80422750D01*
X103759000Y-81216500D01*
X103779000Y-81216500D01*
X103779000Y-81470500D01*
X103759000Y-81470500D01*
X103759000Y-81490500D01*
X103505000Y-81490500D01*
X103505000Y-81470500D01*
X102457250Y-81470500D01*
X102381554Y-81546196D01*
X102341980Y-81404344D01*
X102092952Y-81287244D01*
X101825865Y-81220977D01*
X101550983Y-81208090D01*
X101278867Y-81249078D01*
X101019977Y-81342364D01*
X100904020Y-81404344D01*
X100837040Y-81644435D01*
X101623000Y-82430395D01*
X101637143Y-82416253D01*
X101816748Y-82595858D01*
X101802605Y-82610000D01*
X101816748Y-82624143D01*
X101637143Y-82803748D01*
X101623000Y-82789605D01*
X100837040Y-83575565D01*
X100904020Y-83815656D01*
X101153048Y-83932756D01*
X101420135Y-83999023D01*
X101695017Y-84011910D01*
X101967133Y-83970922D01*
X102226023Y-83877636D01*
X102341980Y-83815656D01*
X102403951Y-83593520D01*
X102403951Y-83693000D01*
X102414126Y-83796310D01*
X102444261Y-83895650D01*
X102493196Y-83987202D01*
X102559052Y-84067448D01*
X102639298Y-84133304D01*
X102730850Y-84182239D01*
X102830190Y-84212374D01*
X102933500Y-84222549D01*
X103848885Y-84222549D01*
X103892565Y-84328000D01*
X100782606Y-84328000D01*
X100527000Y-84072394D01*
X100527000Y-83359572D01*
X100657435Y-83395960D01*
X101443395Y-82610000D01*
X100657435Y-81824040D01*
X100527000Y-81860428D01*
X100527000Y-80899000D01*
X102295428Y-80899000D01*
X102298500Y-81057750D01*
X102457250Y-81216500D01*
X103505000Y-81216500D01*
X103505000Y-80422750D01*
X103346250Y-80264000D01*
X102933500Y-80260928D01*
X102809018Y-80273188D01*
X102689320Y-80309498D01*
X102579006Y-80368463D01*
X102482315Y-80447815D01*
X102402963Y-80544506D01*
X102343998Y-80654820D01*
X102307688Y-80774518D01*
X102295428Y-80899000D01*
X100527000Y-80899000D01*
X100527000Y-66427000D01*
X122773001Y-66427000D01*
X122773000Y-71613000D01*
G36*
X120889000Y-81826166D02*
G01*
X120889001Y-81826175D01*
X120889000Y-82765836D01*
X120885241Y-82804000D01*
X120889000Y-82842163D01*
X120889000Y-82842165D01*
X120900243Y-82956318D01*
X120935586Y-83072827D01*
X120944673Y-83102783D01*
X121016823Y-83237766D01*
X121056543Y-83286165D01*
X121113920Y-83356080D01*
X121143569Y-83380412D01*
X122091156Y-84328000D01*
X120027396Y-84328000D01*
X120113685Y-84257185D01*
X120193037Y-84160494D01*
X120252002Y-84050180D01*
X120288312Y-83930482D01*
X120300572Y-83806000D01*
X120297500Y-83216750D01*
X120138750Y-83058000D01*
X119472000Y-83058000D01*
X119472000Y-83078000D01*
X119218000Y-83078000D01*
X119218000Y-83058000D01*
X119198000Y-83058000D01*
X119198000Y-82804000D01*
X119218000Y-82804000D01*
X119218000Y-82784000D01*
X119472000Y-82784000D01*
X119472000Y-82804000D01*
X120138750Y-82804000D01*
X120297500Y-82645250D01*
X120300572Y-82056000D01*
X120288312Y-81931518D01*
X120252002Y-81811820D01*
X120193037Y-81701506D01*
X120113685Y-81604815D01*
X120045674Y-81549000D01*
X120889000Y-81549000D01*
X120889000Y-81826166D01*
G37*
X120889000Y-81826166D02*
X120889001Y-81826175D01*
X120889000Y-82765836D01*
X120885241Y-82804000D01*
X120889000Y-82842163D01*
X120889000Y-82842165D01*
X120900243Y-82956318D01*
X120935586Y-83072827D01*
X120944673Y-83102783D01*
X121016823Y-83237766D01*
X121056543Y-83286165D01*
X121113920Y-83356080D01*
X121143569Y-83380412D01*
X122091156Y-84328000D01*
X120027396Y-84328000D01*
X120113685Y-84257185D01*
X120193037Y-84160494D01*
X120252002Y-84050180D01*
X120288312Y-83930482D01*
X120300572Y-83806000D01*
X120297500Y-83216750D01*
X120138750Y-83058000D01*
X119472000Y-83058000D01*
X119472000Y-83078000D01*
X119218000Y-83078000D01*
X119218000Y-83058000D01*
X119198000Y-83058000D01*
X119198000Y-82804000D01*
X119218000Y-82804000D01*
X119218000Y-82784000D01*
X119472000Y-82784000D01*
X119472000Y-82804000D01*
X120138750Y-82804000D01*
X120297500Y-82645250D01*
X120300572Y-82056000D01*
X120288312Y-81931518D01*
X120252002Y-81811820D01*
X120193037Y-81701506D01*
X120113685Y-81604815D01*
X120045674Y-81549000D01*
X120889000Y-81549000D01*
X120889000Y-81826166D01*
G36*
X124587000Y-80137000D02*
G01*
X126365000Y-80137000D01*
X126365000Y-80117000D01*
X126619000Y-80117000D01*
X126619000Y-80137000D01*
X126639000Y-80137000D01*
X126639000Y-80391000D01*
X126619000Y-80391000D01*
X126619000Y-81407000D01*
X126639000Y-81407000D01*
X126639000Y-81661000D01*
X126619000Y-81661000D01*
X126619000Y-81681000D01*
X126365000Y-81681000D01*
X126365000Y-81661000D01*
X124587000Y-81661000D01*
X124587000Y-81681000D01*
X124333000Y-81681000D01*
X124333000Y-81661000D01*
X124313000Y-81661000D01*
X124313000Y-81407000D01*
X124333000Y-81407000D01*
X124333000Y-80391000D01*
X124587000Y-80391000D01*
X124587000Y-81407000D01*
X126365000Y-81407000D01*
X126365000Y-80391000D01*
X124587000Y-80391000D01*
X124333000Y-80391000D01*
X124313000Y-80391000D01*
X124313000Y-80137000D01*
X124333000Y-80137000D01*
X124333000Y-80117000D01*
X124587000Y-80117000D01*
X124587000Y-80137000D01*
G37*
X124587000Y-80137000D02*
X126365000Y-80137000D01*
X126365000Y-80117000D01*
X126619000Y-80117000D01*
X126619000Y-80137000D01*
X126639000Y-80137000D01*
X126639000Y-80391000D01*
X126619000Y-80391000D01*
X126619000Y-81407000D01*
X126639000Y-81407000D01*
X126639000Y-81661000D01*
X126619000Y-81661000D01*
X126619000Y-81681000D01*
X126365000Y-81681000D01*
X126365000Y-81661000D01*
X124587000Y-81661000D01*
X124587000Y-81681000D01*
X124333000Y-81681000D01*
X124333000Y-81661000D01*
X124313000Y-81661000D01*
X124313000Y-81407000D01*
X124333000Y-81407000D01*
X124333000Y-80391000D01*
X124587000Y-80391000D01*
X124587000Y-81407000D01*
X126365000Y-81407000D01*
X126365000Y-80391000D01*
X124587000Y-80391000D01*
X124333000Y-80391000D01*
X124313000Y-80391000D01*
X124313000Y-80137000D01*
X124333000Y-80137000D01*
X124333000Y-80117000D01*
X124587000Y-80117000D01*
X124587000Y-80137000D01*
G36*
X118240248Y-78327858D02*
G01*
X118226105Y-78342000D01*
X118240248Y-78356143D01*
X118060643Y-78535748D01*
X118046500Y-78521605D01*
X117233403Y-79334702D01*
X117251579Y-79396649D01*
X117228045Y-79415963D01*
X117176920Y-79457920D01*
X117152592Y-79487564D01*
X116282565Y-80357592D01*
X116252921Y-80381920D01*
X116228593Y-80411564D01*
X116228591Y-80411566D01*
X116155823Y-80500234D01*
X116083673Y-80635217D01*
X116067334Y-80689080D01*
X116045149Y-80762217D01*
X116039244Y-80781682D01*
X116024241Y-80934000D01*
X116028001Y-80972173D01*
X116028001Y-81558525D01*
X115955810Y-81536626D01*
X115852500Y-81526451D01*
X115217500Y-81526451D01*
X115114190Y-81536626D01*
X115014850Y-81566761D01*
X114923298Y-81615696D01*
X114900000Y-81634816D01*
X114876702Y-81615696D01*
X114785150Y-81566761D01*
X114685810Y-81536626D01*
X114582500Y-81526451D01*
X113947500Y-81526451D01*
X113844190Y-81536626D01*
X113772000Y-81558525D01*
X113772000Y-81537163D01*
X113775759Y-81499000D01*
X113772000Y-81460834D01*
X113760757Y-81346681D01*
X113716327Y-81200216D01*
X113663227Y-81100874D01*
X113644177Y-81065233D01*
X113571409Y-80976565D01*
X113571408Y-80976564D01*
X113547080Y-80946920D01*
X113517436Y-80922592D01*
X112209412Y-79614569D01*
X112185080Y-79584920D01*
X112066766Y-79487823D01*
X111931784Y-79415673D01*
X111785319Y-79371243D01*
X111782223Y-79370938D01*
X111965248Y-79187913D01*
X112110472Y-78970570D01*
X112204500Y-78743567D01*
X112298528Y-78970570D01*
X112443752Y-79187913D01*
X112628587Y-79372748D01*
X112845930Y-79517972D01*
X113087428Y-79618004D01*
X113343802Y-79669000D01*
X113605198Y-79669000D01*
X113861572Y-79618004D01*
X114103070Y-79517972D01*
X114320413Y-79372748D01*
X114490500Y-79202661D01*
X114660587Y-79372748D01*
X114877930Y-79517972D01*
X115119428Y-79618004D01*
X115375802Y-79669000D01*
X115637198Y-79669000D01*
X115893572Y-79618004D01*
X116135070Y-79517972D01*
X116352413Y-79372748D01*
X116537248Y-79187913D01*
X116682472Y-78970570D01*
X116717256Y-78886593D01*
X116742897Y-78958292D01*
X116809829Y-79083514D01*
X117053798Y-79155097D01*
X117866895Y-78342000D01*
X117852753Y-78327858D01*
X118032358Y-78148253D01*
X118046500Y-78162395D01*
X118060643Y-78148253D01*
X118240248Y-78327858D01*
G37*
X118240248Y-78327858D02*
X118226105Y-78342000D01*
X118240248Y-78356143D01*
X118060643Y-78535748D01*
X118046500Y-78521605D01*
X117233403Y-79334702D01*
X117251579Y-79396649D01*
X117228045Y-79415963D01*
X117176920Y-79457920D01*
X117152592Y-79487564D01*
X116282565Y-80357592D01*
X116252921Y-80381920D01*
X116228593Y-80411564D01*
X116228591Y-80411566D01*
X116155823Y-80500234D01*
X116083673Y-80635217D01*
X116067334Y-80689080D01*
X116045149Y-80762217D01*
X116039244Y-80781682D01*
X116024241Y-80934000D01*
X116028001Y-80972173D01*
X116028001Y-81558525D01*
X115955810Y-81536626D01*
X115852500Y-81526451D01*
X115217500Y-81526451D01*
X115114190Y-81536626D01*
X115014850Y-81566761D01*
X114923298Y-81615696D01*
X114900000Y-81634816D01*
X114876702Y-81615696D01*
X114785150Y-81566761D01*
X114685810Y-81536626D01*
X114582500Y-81526451D01*
X113947500Y-81526451D01*
X113844190Y-81536626D01*
X113772000Y-81558525D01*
X113772000Y-81537163D01*
X113775759Y-81499000D01*
X113772000Y-81460834D01*
X113760757Y-81346681D01*
X113716327Y-81200216D01*
X113663227Y-81100874D01*
X113644177Y-81065233D01*
X113571409Y-80976565D01*
X113571408Y-80976564D01*
X113547080Y-80946920D01*
X113517436Y-80922592D01*
X112209412Y-79614569D01*
X112185080Y-79584920D01*
X112066766Y-79487823D01*
X111931784Y-79415673D01*
X111785319Y-79371243D01*
X111782223Y-79370938D01*
X111965248Y-79187913D01*
X112110472Y-78970570D01*
X112204500Y-78743567D01*
X112298528Y-78970570D01*
X112443752Y-79187913D01*
X112628587Y-79372748D01*
X112845930Y-79517972D01*
X113087428Y-79618004D01*
X113343802Y-79669000D01*
X113605198Y-79669000D01*
X113861572Y-79618004D01*
X114103070Y-79517972D01*
X114320413Y-79372748D01*
X114490500Y-79202661D01*
X114660587Y-79372748D01*
X114877930Y-79517972D01*
X115119428Y-79618004D01*
X115375802Y-79669000D01*
X115637198Y-79669000D01*
X115893572Y-79618004D01*
X116135070Y-79517972D01*
X116352413Y-79372748D01*
X116537248Y-79187913D01*
X116682472Y-78970570D01*
X116717256Y-78886593D01*
X116742897Y-78958292D01*
X116809829Y-79083514D01*
X117053798Y-79155097D01*
X117866895Y-78342000D01*
X117852753Y-78327858D01*
X118032358Y-78148253D01*
X118046500Y-78162395D01*
X118060643Y-78148253D01*
X118240248Y-78327858D01*
G36*
X119623073Y-74280000D02*
G01*
X118876288Y-74280000D01*
X118820650Y-74250261D01*
X118721310Y-74220126D01*
X118618000Y-74209951D01*
X117475000Y-74209951D01*
X117371690Y-74220126D01*
X117272350Y-74250261D01*
X117180798Y-74299196D01*
X117100552Y-74365052D01*
X117034696Y-74445298D01*
X116985761Y-74536850D01*
X116955626Y-74636190D01*
X116945451Y-74739500D01*
X116945451Y-75374500D01*
X116955626Y-75477810D01*
X116985761Y-75577150D01*
X117034696Y-75668702D01*
X117100552Y-75748948D01*
X117100790Y-75749143D01*
X117023815Y-75812315D01*
X116944463Y-75909006D01*
X116885498Y-76019320D01*
X116849188Y-76139018D01*
X116836928Y-76263500D01*
X116840000Y-76295250D01*
X116998750Y-76454000D01*
X117919500Y-76454000D01*
X117919500Y-76434000D01*
X118173500Y-76434000D01*
X118173500Y-76454000D01*
X119094250Y-76454000D01*
X119185505Y-76362745D01*
X119298311Y-76635083D01*
X119488601Y-76919872D01*
X119539323Y-77014766D01*
X119636421Y-77133079D01*
X119754734Y-77230177D01*
X119849628Y-77280899D01*
X120134417Y-77471189D01*
X120503284Y-77623978D01*
X120894871Y-77701870D01*
X121294129Y-77701870D01*
X121685716Y-77623978D01*
X122054583Y-77471189D01*
X122386554Y-77249373D01*
X122668873Y-76967054D01*
X122890689Y-76635083D01*
X123043478Y-76266216D01*
X123121370Y-75874629D01*
X123121370Y-75475371D01*
X123102409Y-75380048D01*
X123154277Y-75457674D01*
X123175000Y-75478397D01*
X123175001Y-76690147D01*
X123171241Y-76728320D01*
X123186244Y-76880638D01*
X123230673Y-77027103D01*
X123302823Y-77162086D01*
X123358704Y-77230177D01*
X123399921Y-77280400D01*
X123429565Y-77304728D01*
X123593901Y-77469064D01*
X123593901Y-77800200D01*
X123604076Y-77903510D01*
X123606955Y-77913000D01*
X123389360Y-77913000D01*
X123356810Y-77903126D01*
X123253500Y-77892951D01*
X122110500Y-77892951D01*
X122007190Y-77903126D01*
X121907850Y-77933261D01*
X121816298Y-77982196D01*
X121736052Y-78048052D01*
X121670196Y-78128298D01*
X121621261Y-78219850D01*
X121591126Y-78319190D01*
X121580951Y-78422500D01*
X121580951Y-79057500D01*
X121591126Y-79160810D01*
X121613025Y-79233000D01*
X119117107Y-79233000D01*
X119039204Y-79155097D01*
X119283171Y-79083514D01*
X119404071Y-78828004D01*
X119472800Y-78553816D01*
X119486717Y-78271488D01*
X119445287Y-77991870D01*
X119350103Y-77725708D01*
X119283171Y-77600486D01*
X119039204Y-77528903D01*
X119155477Y-77412630D01*
X119079709Y-77336862D01*
X119148537Y-77252994D01*
X119207502Y-77142680D01*
X119243812Y-77022982D01*
X119256072Y-76898500D01*
X119253000Y-76866750D01*
X119094250Y-76708000D01*
X118173500Y-76708000D01*
X118173500Y-76728000D01*
X117919500Y-76728000D01*
X117919500Y-76708000D01*
X116998750Y-76708000D01*
X116840000Y-76866750D01*
X116836928Y-76898500D01*
X116849188Y-77022982D01*
X116885498Y-77142680D01*
X116944463Y-77252994D01*
X117013291Y-77336862D01*
X116937523Y-77412630D01*
X117053796Y-77528903D01*
X116809829Y-77600486D01*
X116716974Y-77796725D01*
X116682472Y-77713430D01*
X116537248Y-77496087D01*
X116352413Y-77311252D01*
X116283500Y-77265206D01*
X116283500Y-74183000D01*
X119720073Y-74183000D01*
X119623073Y-74280000D01*
G37*
X119623073Y-74280000D02*
X118876288Y-74280000D01*
X118820650Y-74250261D01*
X118721310Y-74220126D01*
X118618000Y-74209951D01*
X117475000Y-74209951D01*
X117371690Y-74220126D01*
X117272350Y-74250261D01*
X117180798Y-74299196D01*
X117100552Y-74365052D01*
X117034696Y-74445298D01*
X116985761Y-74536850D01*
X116955626Y-74636190D01*
X116945451Y-74739500D01*
X116945451Y-75374500D01*
X116955626Y-75477810D01*
X116985761Y-75577150D01*
X117034696Y-75668702D01*
X117100552Y-75748948D01*
X117100790Y-75749143D01*
X117023815Y-75812315D01*
X116944463Y-75909006D01*
X116885498Y-76019320D01*
X116849188Y-76139018D01*
X116836928Y-76263500D01*
X116840000Y-76295250D01*
X116998750Y-76454000D01*
X117919500Y-76454000D01*
X117919500Y-76434000D01*
X118173500Y-76434000D01*
X118173500Y-76454000D01*
X119094250Y-76454000D01*
X119185505Y-76362745D01*
X119298311Y-76635083D01*
X119488601Y-76919872D01*
X119539323Y-77014766D01*
X119636421Y-77133079D01*
X119754734Y-77230177D01*
X119849628Y-77280899D01*
X120134417Y-77471189D01*
X120503284Y-77623978D01*
X120894871Y-77701870D01*
X121294129Y-77701870D01*
X121685716Y-77623978D01*
X122054583Y-77471189D01*
X122386554Y-77249373D01*
X122668873Y-76967054D01*
X122890689Y-76635083D01*
X123043478Y-76266216D01*
X123121370Y-75874629D01*
X123121370Y-75475371D01*
X123102409Y-75380048D01*
X123154277Y-75457674D01*
X123175000Y-75478397D01*
X123175001Y-76690147D01*
X123171241Y-76728320D01*
X123186244Y-76880638D01*
X123230673Y-77027103D01*
X123302823Y-77162086D01*
X123358704Y-77230177D01*
X123399921Y-77280400D01*
X123429565Y-77304728D01*
X123593901Y-77469064D01*
X123593901Y-77800200D01*
X123604076Y-77903510D01*
X123606955Y-77913000D01*
X123389360Y-77913000D01*
X123356810Y-77903126D01*
X123253500Y-77892951D01*
X122110500Y-77892951D01*
X122007190Y-77903126D01*
X121907850Y-77933261D01*
X121816298Y-77982196D01*
X121736052Y-78048052D01*
X121670196Y-78128298D01*
X121621261Y-78219850D01*
X121591126Y-78319190D01*
X121580951Y-78422500D01*
X121580951Y-79057500D01*
X121591126Y-79160810D01*
X121613025Y-79233000D01*
X119117107Y-79233000D01*
X119039204Y-79155097D01*
X119283171Y-79083514D01*
X119404071Y-78828004D01*
X119472800Y-78553816D01*
X119486717Y-78271488D01*
X119445287Y-77991870D01*
X119350103Y-77725708D01*
X119283171Y-77600486D01*
X119039204Y-77528903D01*
X119155477Y-77412630D01*
X119079709Y-77336862D01*
X119148537Y-77252994D01*
X119207502Y-77142680D01*
X119243812Y-77022982D01*
X119256072Y-76898500D01*
X119253000Y-76866750D01*
X119094250Y-76708000D01*
X118173500Y-76708000D01*
X118173500Y-76728000D01*
X117919500Y-76728000D01*
X117919500Y-76708000D01*
X116998750Y-76708000D01*
X116840000Y-76866750D01*
X116836928Y-76898500D01*
X116849188Y-77022982D01*
X116885498Y-77142680D01*
X116944463Y-77252994D01*
X117013291Y-77336862D01*
X116937523Y-77412630D01*
X117053796Y-77528903D01*
X116809829Y-77600486D01*
X116716974Y-77796725D01*
X116682472Y-77713430D01*
X116537248Y-77496087D01*
X116352413Y-77311252D01*
X116283500Y-77265206D01*
X116283500Y-74183000D01*
X119720073Y-74183000D01*
X119623073Y-74280000D01*
G36*
X127620000Y-74489843D02*
G01*
X127620001Y-77900682D01*
X127595190Y-77903126D01*
X127562640Y-77913000D01*
X127345045Y-77913000D01*
X127347924Y-77903510D01*
X127358099Y-77800200D01*
X127358099Y-76799440D01*
X127347924Y-76696130D01*
X127317789Y-76596790D01*
X127268854Y-76505238D01*
X127202998Y-76424992D01*
X127122752Y-76359136D01*
X127031200Y-76310201D01*
X126931860Y-76280066D01*
X126828550Y-76269891D01*
X126028450Y-76269891D01*
X125925140Y-76280066D01*
X125825800Y-76310201D01*
X125734248Y-76359136D01*
X125654002Y-76424992D01*
X125588146Y-76505238D01*
X125539211Y-76596790D01*
X125509076Y-76696130D01*
X125498901Y-76799440D01*
X125498901Y-77800200D01*
X125509076Y-77903510D01*
X125539211Y-78002850D01*
X125558091Y-78038172D01*
X125546052Y-78048052D01*
X125480196Y-78128298D01*
X125476000Y-78136148D01*
X125471804Y-78128298D01*
X125405948Y-78048052D01*
X125393909Y-78038172D01*
X125412789Y-78002850D01*
X125442924Y-77903510D01*
X125453099Y-77800200D01*
X125453099Y-76799440D01*
X125442924Y-76696130D01*
X125412789Y-76596790D01*
X125363854Y-76505238D01*
X125297998Y-76424992D01*
X125217752Y-76359136D01*
X125126200Y-76310201D01*
X125026860Y-76280066D01*
X124923550Y-76269891D01*
X124729000Y-76269891D01*
X124729000Y-76135129D01*
X124831770Y-76190062D01*
X124951468Y-76226372D01*
X125075950Y-76238632D01*
X125190250Y-76235560D01*
X125349000Y-76076810D01*
X125349000Y-75227180D01*
X125603000Y-75227180D01*
X125603000Y-76076810D01*
X125761750Y-76235560D01*
X125876050Y-76238632D01*
X126000532Y-76226372D01*
X126120230Y-76190062D01*
X126230544Y-76131097D01*
X126327235Y-76051745D01*
X126406587Y-75955054D01*
X126465552Y-75844740D01*
X126501862Y-75725042D01*
X126514122Y-75600560D01*
X126511050Y-75385930D01*
X126352300Y-75227180D01*
X125603000Y-75227180D01*
X125349000Y-75227180D01*
X125329000Y-75227180D01*
X125329000Y-74973180D01*
X125349000Y-74973180D01*
X125349000Y-74953180D01*
X125603000Y-74953180D01*
X125603000Y-74973180D01*
X126352300Y-74973180D01*
X126511050Y-74814430D01*
X126514122Y-74599800D01*
X126501862Y-74475318D01*
X126490238Y-74437000D01*
X127567157Y-74437000D01*
X127620000Y-74489843D01*
G37*
X127620000Y-74489843D02*
X127620001Y-77900682D01*
X127595190Y-77903126D01*
X127562640Y-77913000D01*
X127345045Y-77913000D01*
X127347924Y-77903510D01*
X127358099Y-77800200D01*
X127358099Y-76799440D01*
X127347924Y-76696130D01*
X127317789Y-76596790D01*
X127268854Y-76505238D01*
X127202998Y-76424992D01*
X127122752Y-76359136D01*
X127031200Y-76310201D01*
X126931860Y-76280066D01*
X126828550Y-76269891D01*
X126028450Y-76269891D01*
X125925140Y-76280066D01*
X125825800Y-76310201D01*
X125734248Y-76359136D01*
X125654002Y-76424992D01*
X125588146Y-76505238D01*
X125539211Y-76596790D01*
X125509076Y-76696130D01*
X125498901Y-76799440D01*
X125498901Y-77800200D01*
X125509076Y-77903510D01*
X125539211Y-78002850D01*
X125558091Y-78038172D01*
X125546052Y-78048052D01*
X125480196Y-78128298D01*
X125476000Y-78136148D01*
X125471804Y-78128298D01*
X125405948Y-78048052D01*
X125393909Y-78038172D01*
X125412789Y-78002850D01*
X125442924Y-77903510D01*
X125453099Y-77800200D01*
X125453099Y-76799440D01*
X125442924Y-76696130D01*
X125412789Y-76596790D01*
X125363854Y-76505238D01*
X125297998Y-76424992D01*
X125217752Y-76359136D01*
X125126200Y-76310201D01*
X125026860Y-76280066D01*
X124923550Y-76269891D01*
X124729000Y-76269891D01*
X124729000Y-76135129D01*
X124831770Y-76190062D01*
X124951468Y-76226372D01*
X125075950Y-76238632D01*
X125190250Y-76235560D01*
X125349000Y-76076810D01*
X125349000Y-75227180D01*
X125603000Y-75227180D01*
X125603000Y-76076810D01*
X125761750Y-76235560D01*
X125876050Y-76238632D01*
X126000532Y-76226372D01*
X126120230Y-76190062D01*
X126230544Y-76131097D01*
X126327235Y-76051745D01*
X126406587Y-75955054D01*
X126465552Y-75844740D01*
X126501862Y-75725042D01*
X126514122Y-75600560D01*
X126511050Y-75385930D01*
X126352300Y-75227180D01*
X125603000Y-75227180D01*
X125349000Y-75227180D01*
X125329000Y-75227180D01*
X125329000Y-74973180D01*
X125349000Y-74973180D01*
X125349000Y-74953180D01*
X125603000Y-74953180D01*
X125603000Y-74973180D01*
X126352300Y-74973180D01*
X126511050Y-74814430D01*
X126514122Y-74599800D01*
X126501862Y-74475318D01*
X126490238Y-74437000D01*
X127567157Y-74437000D01*
X127620000Y-74489843D01*
G36*
X128773001Y-88712607D02*
G01*
X128773000Y-109407394D01*
X128507394Y-109673000D01*
X106527000Y-109673000D01*
X106527000Y-104330794D01*
X106530033Y-104300000D01*
X106528260Y-104282000D01*
X113372837Y-104282000D01*
X113411000Y-104285759D01*
X113449163Y-104282000D01*
X113449166Y-104282000D01*
X113563319Y-104270757D01*
X113709784Y-104226327D01*
X113844766Y-104154177D01*
X113963080Y-104057080D01*
X113987412Y-104027431D01*
X116188436Y-101826408D01*
X116218080Y-101802080D01*
X116264301Y-101745759D01*
X116315178Y-101683766D01*
X116379894Y-101562690D01*
X116387327Y-101548784D01*
X116431757Y-101402319D01*
X116443000Y-101288166D01*
X116443000Y-101288164D01*
X116446759Y-101250000D01*
X116443000Y-101211837D01*
X116443000Y-98722794D01*
X116511913Y-98676748D01*
X116696748Y-98491913D01*
X116841972Y-98274570D01*
X116936000Y-98047567D01*
X117030028Y-98274570D01*
X117175252Y-98491913D01*
X117206805Y-98523466D01*
X117164052Y-98558552D01*
X117098196Y-98638798D01*
X117049261Y-98730350D01*
X117019126Y-98829690D01*
X117008951Y-98933000D01*
X117008951Y-99822000D01*
X117019126Y-99925310D01*
X117049261Y-100024650D01*
X117098196Y-100116202D01*
X117164052Y-100196448D01*
X117244298Y-100262304D01*
X117335850Y-100311239D01*
X117397696Y-100330000D01*
X117335850Y-100348761D01*
X117244298Y-100397696D01*
X117164052Y-100463552D01*
X117098196Y-100543798D01*
X117049261Y-100635350D01*
X117019126Y-100734690D01*
X117008951Y-100838000D01*
X117008951Y-101727000D01*
X117019126Y-101830310D01*
X117049261Y-101929650D01*
X117098196Y-102021202D01*
X117164052Y-102101448D01*
X117244298Y-102167304D01*
X117335850Y-102216239D01*
X117360000Y-102223565D01*
X117360000Y-102383920D01*
X117355757Y-102427000D01*
X117372690Y-102598922D01*
X117413515Y-102733502D01*
X117422838Y-102764236D01*
X117504273Y-102916591D01*
X117613867Y-103050133D01*
X117647331Y-103077596D01*
X118537408Y-103967674D01*
X118564867Y-104001133D01*
X118598326Y-104028592D01*
X118598328Y-104028594D01*
X118633039Y-104057080D01*
X118698408Y-104110727D01*
X118850763Y-104192162D01*
X119016078Y-104242310D01*
X119144921Y-104255000D01*
X119144922Y-104255000D01*
X119187999Y-104259243D01*
X119231076Y-104255000D01*
X123400921Y-104255000D01*
X123444000Y-104259243D01*
X123487079Y-104255000D01*
X123615922Y-104242310D01*
X123781237Y-104192162D01*
X123933592Y-104110727D01*
X124067133Y-104001133D01*
X124094596Y-103967669D01*
X124678171Y-103384095D01*
X124711631Y-103356635D01*
X124821225Y-103223094D01*
X124902660Y-103070739D01*
X124917346Y-103022326D01*
X124952808Y-102905425D01*
X124969741Y-102733502D01*
X124965498Y-102690423D01*
X124965498Y-102340772D01*
X125317202Y-102575773D01*
X125733216Y-102748092D01*
X126174855Y-102835939D01*
X126625145Y-102835939D01*
X127066784Y-102748092D01*
X127482798Y-102575773D01*
X127857201Y-102325605D01*
X128175605Y-102007201D01*
X128425773Y-101632798D01*
X128598092Y-101216784D01*
X128685939Y-100775145D01*
X128685939Y-100324855D01*
X128598092Y-99883216D01*
X128425773Y-99467202D01*
X128175605Y-99092799D01*
X127857201Y-98774395D01*
X127482798Y-98524227D01*
X127066784Y-98351908D01*
X126625145Y-98264061D01*
X126174855Y-98264061D01*
X125733216Y-98351908D01*
X125317202Y-98524227D01*
X124965498Y-98759228D01*
X124965498Y-98237809D01*
X125077734Y-98069835D01*
X125162690Y-97864734D01*
X125206000Y-97647000D01*
X125206000Y-97425000D01*
X125162690Y-97207266D01*
X125077734Y-97002165D01*
X124954398Y-96817579D01*
X124797421Y-96660602D01*
X124612835Y-96537266D01*
X124407734Y-96452310D01*
X124190000Y-96409000D01*
X123968000Y-96409000D01*
X123750266Y-96452310D01*
X123545165Y-96537266D01*
X123360579Y-96660602D01*
X123203602Y-96817579D01*
X123080266Y-97002165D01*
X122995310Y-97207266D01*
X122952000Y-97425000D01*
X122952000Y-97647000D01*
X122995310Y-97864734D01*
X123080266Y-98069835D01*
X123203602Y-98254421D01*
X123211498Y-98262317D01*
X123211498Y-98896071D01*
X123054054Y-98738627D01*
X122722083Y-98516811D01*
X122353216Y-98364022D01*
X121961629Y-98286130D01*
X121562371Y-98286130D01*
X121170784Y-98364022D01*
X120801917Y-98516811D01*
X120469946Y-98738627D01*
X120187627Y-99020946D01*
X119965811Y-99352917D01*
X119813022Y-99721784D01*
X119735130Y-100113371D01*
X119735130Y-100512629D01*
X119813022Y-100904216D01*
X119965811Y-101273083D01*
X120187627Y-101605054D01*
X120469946Y-101887373D01*
X120801917Y-102109189D01*
X121170784Y-102261978D01*
X121562371Y-102339870D01*
X121961629Y-102339870D01*
X122353216Y-102261978D01*
X122722083Y-102109189D01*
X123054054Y-101887373D01*
X123211499Y-101729928D01*
X123211499Y-102370235D01*
X123080735Y-102501000D01*
X119551266Y-102501000D01*
X119221795Y-102171530D01*
X119229702Y-102167304D01*
X119309948Y-102101448D01*
X119375804Y-102021202D01*
X119424739Y-101929650D01*
X119454874Y-101830310D01*
X119465049Y-101727000D01*
X119465049Y-100838000D01*
X119454874Y-100734690D01*
X119424739Y-100635350D01*
X119375804Y-100543798D01*
X119309948Y-100463552D01*
X119229702Y-100397696D01*
X119138150Y-100348761D01*
X119076304Y-100330000D01*
X119138150Y-100311239D01*
X119229702Y-100262304D01*
X119309948Y-100196448D01*
X119375804Y-100116202D01*
X119424739Y-100024650D01*
X119454874Y-99925310D01*
X119465049Y-99822000D01*
X119465049Y-98933000D01*
X119454874Y-98829690D01*
X119424739Y-98730350D01*
X119375804Y-98638798D01*
X119309948Y-98558552D01*
X119233142Y-98495519D01*
X119236748Y-98491913D01*
X119381972Y-98274570D01*
X119482004Y-98033072D01*
X119533000Y-97776698D01*
X119533000Y-97515302D01*
X119482004Y-97258928D01*
X119381972Y-97017430D01*
X119236748Y-96800087D01*
X119051913Y-96615252D01*
X118834570Y-96470028D01*
X118593072Y-96369996D01*
X118336698Y-96319000D01*
X118075302Y-96319000D01*
X117818928Y-96369996D01*
X117577430Y-96470028D01*
X117360087Y-96615252D01*
X117175252Y-96800087D01*
X117030028Y-97017430D01*
X116936000Y-97244433D01*
X116841972Y-97017430D01*
X116696748Y-96800087D01*
X116511913Y-96615252D01*
X116397063Y-96538512D01*
X116400412Y-96534431D01*
X117327437Y-95607407D01*
X117357080Y-95583080D01*
X117381409Y-95553435D01*
X117454178Y-95464766D01*
X117474977Y-95425853D01*
X117623533Y-95525115D01*
X117810435Y-95602533D01*
X118008849Y-95642000D01*
X118211151Y-95642000D01*
X118409565Y-95602533D01*
X118596467Y-95525115D01*
X118764674Y-95412723D01*
X118907723Y-95269674D01*
X119020115Y-95101467D01*
X119097533Y-94914565D01*
X119119227Y-94805500D01*
X121218428Y-94805500D01*
X121230688Y-94929982D01*
X121266998Y-95049680D01*
X121325963Y-95159994D01*
X121405315Y-95256685D01*
X121502006Y-95336037D01*
X121612320Y-95395002D01*
X121732018Y-95431312D01*
X121856500Y-95443572D01*
X122142250Y-95440500D01*
X122301000Y-95281750D01*
X122301000Y-94615000D01*
X122555000Y-94615000D01*
X122555000Y-95281750D01*
X122713750Y-95440500D01*
X122999500Y-95443572D01*
X123123982Y-95431312D01*
X123243680Y-95395002D01*
X123317000Y-95355811D01*
X123390320Y-95395002D01*
X123510018Y-95431312D01*
X123634500Y-95443572D01*
X123920250Y-95440500D01*
X124079000Y-95281750D01*
X124079000Y-94615000D01*
X122555000Y-94615000D01*
X122301000Y-94615000D01*
X121380250Y-94615000D01*
X121221500Y-94773750D01*
X121218428Y-94805500D01*
X119119227Y-94805500D01*
X119137000Y-94716151D01*
X119137000Y-94513849D01*
X119097533Y-94315435D01*
X119020115Y-94128533D01*
X118907723Y-93960326D01*
X118887000Y-93939603D01*
X118887000Y-93824953D01*
X118903018Y-93829812D01*
X119027500Y-93842072D01*
X119059250Y-93839000D01*
X119218000Y-93680250D01*
X119218000Y-92456000D01*
X119198000Y-92456000D01*
X119198000Y-92202000D01*
X119218000Y-92202000D01*
X119218000Y-92182000D01*
X119472000Y-92182000D01*
X119472000Y-92202000D01*
X119492000Y-92202000D01*
X119492000Y-92456000D01*
X119472000Y-92456000D01*
X119472000Y-93680250D01*
X119630750Y-93839000D01*
X119662500Y-93842072D01*
X119786982Y-93829812D01*
X119906680Y-93793502D01*
X120016994Y-93734537D01*
X120113685Y-93655185D01*
X120126759Y-93639254D01*
X120155602Y-93682421D01*
X120312579Y-93839398D01*
X120497165Y-93962734D01*
X120702266Y-94047690D01*
X120920000Y-94091000D01*
X121142000Y-94091000D01*
X121227941Y-94073905D01*
X121218428Y-94170500D01*
X121221500Y-94202250D01*
X121380250Y-94361000D01*
X122301000Y-94361000D01*
X122301000Y-94341000D01*
X122555000Y-94341000D01*
X122555000Y-94361000D01*
X124079000Y-94361000D01*
X124079000Y-94341000D01*
X124333000Y-94341000D01*
X124333000Y-94361000D01*
X124353000Y-94361000D01*
X124353000Y-94615000D01*
X124333000Y-94615000D01*
X124333000Y-95281750D01*
X124491750Y-95440500D01*
X124777500Y-95443572D01*
X124901982Y-95431312D01*
X124972796Y-95409831D01*
X125008963Y-95477494D01*
X125088315Y-95574185D01*
X125185006Y-95653537D01*
X125295320Y-95712502D01*
X125415018Y-95748812D01*
X125539500Y-95761072D01*
X125952250Y-95758000D01*
X126111000Y-95599250D01*
X126111000Y-94805500D01*
X126365000Y-94805500D01*
X126365000Y-95599250D01*
X126523750Y-95758000D01*
X126936500Y-95761072D01*
X127060982Y-95748812D01*
X127180680Y-95712502D01*
X127290994Y-95653537D01*
X127387685Y-95574185D01*
X127467037Y-95477494D01*
X127526002Y-95367180D01*
X127562312Y-95247482D01*
X127574572Y-95123000D01*
X127571500Y-94964250D01*
X127412750Y-94805500D01*
X126365000Y-94805500D01*
X126111000Y-94805500D01*
X126091000Y-94805500D01*
X126091000Y-94551500D01*
X126111000Y-94551500D01*
X126111000Y-94531500D01*
X126365000Y-94531500D01*
X126365000Y-94551500D01*
X127412750Y-94551500D01*
X127571500Y-94392750D01*
X127574572Y-94234000D01*
X127562312Y-94109518D01*
X127526002Y-93989820D01*
X127467037Y-93879506D01*
X127387685Y-93782815D01*
X127290994Y-93703463D01*
X127218605Y-93664770D01*
X127230702Y-93658304D01*
X127310948Y-93592448D01*
X127376804Y-93512202D01*
X127425739Y-93420650D01*
X127455874Y-93321310D01*
X127466049Y-93218000D01*
X127466049Y-92329000D01*
X127455874Y-92225690D01*
X127425739Y-92126350D01*
X127376804Y-92034798D01*
X127310948Y-91954552D01*
X127230702Y-91888696D01*
X127139150Y-91839761D01*
X127039810Y-91809626D01*
X126936500Y-91799451D01*
X125539500Y-91799451D01*
X125436190Y-91809626D01*
X125336850Y-91839761D01*
X125245298Y-91888696D01*
X125165052Y-91954552D01*
X125099196Y-92034798D01*
X125050261Y-92126350D01*
X125032410Y-92185194D01*
X124983000Y-92158784D01*
X124983000Y-90914663D01*
X124986759Y-90876500D01*
X124983000Y-90838334D01*
X124971757Y-90724181D01*
X124927327Y-90577716D01*
X124868725Y-90468080D01*
X124855177Y-90442733D01*
X124782409Y-90354065D01*
X124782408Y-90354064D01*
X124758080Y-90324420D01*
X124728436Y-90300092D01*
X124075912Y-89647569D01*
X124051580Y-89617920D01*
X123933266Y-89520823D01*
X123798284Y-89448673D01*
X123651819Y-89404243D01*
X123537666Y-89393000D01*
X123537663Y-89393000D01*
X123499500Y-89389241D01*
X123461337Y-89393000D01*
X123257788Y-89393000D01*
X123202150Y-89363261D01*
X123102810Y-89333126D01*
X122999500Y-89322951D01*
X122676159Y-89322951D01*
X122607766Y-89266823D01*
X122472784Y-89194673D01*
X122326319Y-89150243D01*
X122212166Y-89139000D01*
X122212163Y-89139000D01*
X122174000Y-89135241D01*
X122135837Y-89139000D01*
X110303844Y-89139000D01*
X109556843Y-88392000D01*
X128452394Y-88392000D01*
X128773001Y-88712607D01*
G37*
X128773001Y-88712607D02*
X128773000Y-109407394D01*
X128507394Y-109673000D01*
X106527000Y-109673000D01*
X106527000Y-104330794D01*
X106530033Y-104300000D01*
X106528260Y-104282000D01*
X113372837Y-104282000D01*
X113411000Y-104285759D01*
X113449163Y-104282000D01*
X113449166Y-104282000D01*
X113563319Y-104270757D01*
X113709784Y-104226327D01*
X113844766Y-104154177D01*
X113963080Y-104057080D01*
X113987412Y-104027431D01*
X116188436Y-101826408D01*
X116218080Y-101802080D01*
X116264301Y-101745759D01*
X116315178Y-101683766D01*
X116379894Y-101562690D01*
X116387327Y-101548784D01*
X116431757Y-101402319D01*
X116443000Y-101288166D01*
X116443000Y-101288164D01*
X116446759Y-101250000D01*
X116443000Y-101211837D01*
X116443000Y-98722794D01*
X116511913Y-98676748D01*
X116696748Y-98491913D01*
X116841972Y-98274570D01*
X116936000Y-98047567D01*
X117030028Y-98274570D01*
X117175252Y-98491913D01*
X117206805Y-98523466D01*
X117164052Y-98558552D01*
X117098196Y-98638798D01*
X117049261Y-98730350D01*
X117019126Y-98829690D01*
X117008951Y-98933000D01*
X117008951Y-99822000D01*
X117019126Y-99925310D01*
X117049261Y-100024650D01*
X117098196Y-100116202D01*
X117164052Y-100196448D01*
X117244298Y-100262304D01*
X117335850Y-100311239D01*
X117397696Y-100330000D01*
X117335850Y-100348761D01*
X117244298Y-100397696D01*
X117164052Y-100463552D01*
X117098196Y-100543798D01*
X117049261Y-100635350D01*
X117019126Y-100734690D01*
X117008951Y-100838000D01*
X117008951Y-101727000D01*
X117019126Y-101830310D01*
X117049261Y-101929650D01*
X117098196Y-102021202D01*
X117164052Y-102101448D01*
X117244298Y-102167304D01*
X117335850Y-102216239D01*
X117360000Y-102223565D01*
X117360000Y-102383920D01*
X117355757Y-102427000D01*
X117372690Y-102598922D01*
X117413515Y-102733502D01*
X117422838Y-102764236D01*
X117504273Y-102916591D01*
X117613867Y-103050133D01*
X117647331Y-103077596D01*
X118537408Y-103967674D01*
X118564867Y-104001133D01*
X118598326Y-104028592D01*
X118598328Y-104028594D01*
X118633039Y-104057080D01*
X118698408Y-104110727D01*
X118850763Y-104192162D01*
X119016078Y-104242310D01*
X119144921Y-104255000D01*
X119144922Y-104255000D01*
X119187999Y-104259243D01*
X119231076Y-104255000D01*
X123400921Y-104255000D01*
X123444000Y-104259243D01*
X123487079Y-104255000D01*
X123615922Y-104242310D01*
X123781237Y-104192162D01*
X123933592Y-104110727D01*
X124067133Y-104001133D01*
X124094596Y-103967669D01*
X124678171Y-103384095D01*
X124711631Y-103356635D01*
X124821225Y-103223094D01*
X124902660Y-103070739D01*
X124917346Y-103022326D01*
X124952808Y-102905425D01*
X124969741Y-102733502D01*
X124965498Y-102690423D01*
X124965498Y-102340772D01*
X125317202Y-102575773D01*
X125733216Y-102748092D01*
X126174855Y-102835939D01*
X126625145Y-102835939D01*
X127066784Y-102748092D01*
X127482798Y-102575773D01*
X127857201Y-102325605D01*
X128175605Y-102007201D01*
X128425773Y-101632798D01*
X128598092Y-101216784D01*
X128685939Y-100775145D01*
X128685939Y-100324855D01*
X128598092Y-99883216D01*
X128425773Y-99467202D01*
X128175605Y-99092799D01*
X127857201Y-98774395D01*
X127482798Y-98524227D01*
X127066784Y-98351908D01*
X126625145Y-98264061D01*
X126174855Y-98264061D01*
X125733216Y-98351908D01*
X125317202Y-98524227D01*
X124965498Y-98759228D01*
X124965498Y-98237809D01*
X125077734Y-98069835D01*
X125162690Y-97864734D01*
X125206000Y-97647000D01*
X125206000Y-97425000D01*
X125162690Y-97207266D01*
X125077734Y-97002165D01*
X124954398Y-96817579D01*
X124797421Y-96660602D01*
X124612835Y-96537266D01*
X124407734Y-96452310D01*
X124190000Y-96409000D01*
X123968000Y-96409000D01*
X123750266Y-96452310D01*
X123545165Y-96537266D01*
X123360579Y-96660602D01*
X123203602Y-96817579D01*
X123080266Y-97002165D01*
X122995310Y-97207266D01*
X122952000Y-97425000D01*
X122952000Y-97647000D01*
X122995310Y-97864734D01*
X123080266Y-98069835D01*
X123203602Y-98254421D01*
X123211498Y-98262317D01*
X123211498Y-98896071D01*
X123054054Y-98738627D01*
X122722083Y-98516811D01*
X122353216Y-98364022D01*
X121961629Y-98286130D01*
X121562371Y-98286130D01*
X121170784Y-98364022D01*
X120801917Y-98516811D01*
X120469946Y-98738627D01*
X120187627Y-99020946D01*
X119965811Y-99352917D01*
X119813022Y-99721784D01*
X119735130Y-100113371D01*
X119735130Y-100512629D01*
X119813022Y-100904216D01*
X119965811Y-101273083D01*
X120187627Y-101605054D01*
X120469946Y-101887373D01*
X120801917Y-102109189D01*
X121170784Y-102261978D01*
X121562371Y-102339870D01*
X121961629Y-102339870D01*
X122353216Y-102261978D01*
X122722083Y-102109189D01*
X123054054Y-101887373D01*
X123211499Y-101729928D01*
X123211499Y-102370235D01*
X123080735Y-102501000D01*
X119551266Y-102501000D01*
X119221795Y-102171530D01*
X119229702Y-102167304D01*
X119309948Y-102101448D01*
X119375804Y-102021202D01*
X119424739Y-101929650D01*
X119454874Y-101830310D01*
X119465049Y-101727000D01*
X119465049Y-100838000D01*
X119454874Y-100734690D01*
X119424739Y-100635350D01*
X119375804Y-100543798D01*
X119309948Y-100463552D01*
X119229702Y-100397696D01*
X119138150Y-100348761D01*
X119076304Y-100330000D01*
X119138150Y-100311239D01*
X119229702Y-100262304D01*
X119309948Y-100196448D01*
X119375804Y-100116202D01*
X119424739Y-100024650D01*
X119454874Y-99925310D01*
X119465049Y-99822000D01*
X119465049Y-98933000D01*
X119454874Y-98829690D01*
X119424739Y-98730350D01*
X119375804Y-98638798D01*
X119309948Y-98558552D01*
X119233142Y-98495519D01*
X119236748Y-98491913D01*
X119381972Y-98274570D01*
X119482004Y-98033072D01*
X119533000Y-97776698D01*
X119533000Y-97515302D01*
X119482004Y-97258928D01*
X119381972Y-97017430D01*
X119236748Y-96800087D01*
X119051913Y-96615252D01*
X118834570Y-96470028D01*
X118593072Y-96369996D01*
X118336698Y-96319000D01*
X118075302Y-96319000D01*
X117818928Y-96369996D01*
X117577430Y-96470028D01*
X117360087Y-96615252D01*
X117175252Y-96800087D01*
X117030028Y-97017430D01*
X116936000Y-97244433D01*
X116841972Y-97017430D01*
X116696748Y-96800087D01*
X116511913Y-96615252D01*
X116397063Y-96538512D01*
X116400412Y-96534431D01*
X117327437Y-95607407D01*
X117357080Y-95583080D01*
X117381409Y-95553435D01*
X117454178Y-95464766D01*
X117474977Y-95425853D01*
X117623533Y-95525115D01*
X117810435Y-95602533D01*
X118008849Y-95642000D01*
X118211151Y-95642000D01*
X118409565Y-95602533D01*
X118596467Y-95525115D01*
X118764674Y-95412723D01*
X118907723Y-95269674D01*
X119020115Y-95101467D01*
X119097533Y-94914565D01*
X119119227Y-94805500D01*
X121218428Y-94805500D01*
X121230688Y-94929982D01*
X121266998Y-95049680D01*
X121325963Y-95159994D01*
X121405315Y-95256685D01*
X121502006Y-95336037D01*
X121612320Y-95395002D01*
X121732018Y-95431312D01*
X121856500Y-95443572D01*
X122142250Y-95440500D01*
X122301000Y-95281750D01*
X122301000Y-94615000D01*
X122555000Y-94615000D01*
X122555000Y-95281750D01*
X122713750Y-95440500D01*
X122999500Y-95443572D01*
X123123982Y-95431312D01*
X123243680Y-95395002D01*
X123317000Y-95355811D01*
X123390320Y-95395002D01*
X123510018Y-95431312D01*
X123634500Y-95443572D01*
X123920250Y-95440500D01*
X124079000Y-95281750D01*
X124079000Y-94615000D01*
X122555000Y-94615000D01*
X122301000Y-94615000D01*
X121380250Y-94615000D01*
X121221500Y-94773750D01*
X121218428Y-94805500D01*
X119119227Y-94805500D01*
X119137000Y-94716151D01*
X119137000Y-94513849D01*
X119097533Y-94315435D01*
X119020115Y-94128533D01*
X118907723Y-93960326D01*
X118887000Y-93939603D01*
X118887000Y-93824953D01*
X118903018Y-93829812D01*
X119027500Y-93842072D01*
X119059250Y-93839000D01*
X119218000Y-93680250D01*
X119218000Y-92456000D01*
X119198000Y-92456000D01*
X119198000Y-92202000D01*
X119218000Y-92202000D01*
X119218000Y-92182000D01*
X119472000Y-92182000D01*
X119472000Y-92202000D01*
X119492000Y-92202000D01*
X119492000Y-92456000D01*
X119472000Y-92456000D01*
X119472000Y-93680250D01*
X119630750Y-93839000D01*
X119662500Y-93842072D01*
X119786982Y-93829812D01*
X119906680Y-93793502D01*
X120016994Y-93734537D01*
X120113685Y-93655185D01*
X120126759Y-93639254D01*
X120155602Y-93682421D01*
X120312579Y-93839398D01*
X120497165Y-93962734D01*
X120702266Y-94047690D01*
X120920000Y-94091000D01*
X121142000Y-94091000D01*
X121227941Y-94073905D01*
X121218428Y-94170500D01*
X121221500Y-94202250D01*
X121380250Y-94361000D01*
X122301000Y-94361000D01*
X122301000Y-94341000D01*
X122555000Y-94341000D01*
X122555000Y-94361000D01*
X124079000Y-94361000D01*
X124079000Y-94341000D01*
X124333000Y-94341000D01*
X124333000Y-94361000D01*
X124353000Y-94361000D01*
X124353000Y-94615000D01*
X124333000Y-94615000D01*
X124333000Y-95281750D01*
X124491750Y-95440500D01*
X124777500Y-95443572D01*
X124901982Y-95431312D01*
X124972796Y-95409831D01*
X125008963Y-95477494D01*
X125088315Y-95574185D01*
X125185006Y-95653537D01*
X125295320Y-95712502D01*
X125415018Y-95748812D01*
X125539500Y-95761072D01*
X125952250Y-95758000D01*
X126111000Y-95599250D01*
X126111000Y-94805500D01*
X126365000Y-94805500D01*
X126365000Y-95599250D01*
X126523750Y-95758000D01*
X126936500Y-95761072D01*
X127060982Y-95748812D01*
X127180680Y-95712502D01*
X127290994Y-95653537D01*
X127387685Y-95574185D01*
X127467037Y-95477494D01*
X127526002Y-95367180D01*
X127562312Y-95247482D01*
X127574572Y-95123000D01*
X127571500Y-94964250D01*
X127412750Y-94805500D01*
X126365000Y-94805500D01*
X126111000Y-94805500D01*
X126091000Y-94805500D01*
X126091000Y-94551500D01*
X126111000Y-94551500D01*
X126111000Y-94531500D01*
X126365000Y-94531500D01*
X126365000Y-94551500D01*
X127412750Y-94551500D01*
X127571500Y-94392750D01*
X127574572Y-94234000D01*
X127562312Y-94109518D01*
X127526002Y-93989820D01*
X127467037Y-93879506D01*
X127387685Y-93782815D01*
X127290994Y-93703463D01*
X127218605Y-93664770D01*
X127230702Y-93658304D01*
X127310948Y-93592448D01*
X127376804Y-93512202D01*
X127425739Y-93420650D01*
X127455874Y-93321310D01*
X127466049Y-93218000D01*
X127466049Y-92329000D01*
X127455874Y-92225690D01*
X127425739Y-92126350D01*
X127376804Y-92034798D01*
X127310948Y-91954552D01*
X127230702Y-91888696D01*
X127139150Y-91839761D01*
X127039810Y-91809626D01*
X126936500Y-91799451D01*
X125539500Y-91799451D01*
X125436190Y-91809626D01*
X125336850Y-91839761D01*
X125245298Y-91888696D01*
X125165052Y-91954552D01*
X125099196Y-92034798D01*
X125050261Y-92126350D01*
X125032410Y-92185194D01*
X124983000Y-92158784D01*
X124983000Y-90914663D01*
X124986759Y-90876500D01*
X124983000Y-90838334D01*
X124971757Y-90724181D01*
X124927327Y-90577716D01*
X124868725Y-90468080D01*
X124855177Y-90442733D01*
X124782409Y-90354065D01*
X124782408Y-90354064D01*
X124758080Y-90324420D01*
X124728436Y-90300092D01*
X124075912Y-89647569D01*
X124051580Y-89617920D01*
X123933266Y-89520823D01*
X123798284Y-89448673D01*
X123651819Y-89404243D01*
X123537666Y-89393000D01*
X123537663Y-89393000D01*
X123499500Y-89389241D01*
X123461337Y-89393000D01*
X123257788Y-89393000D01*
X123202150Y-89363261D01*
X123102810Y-89333126D01*
X122999500Y-89322951D01*
X122676159Y-89322951D01*
X122607766Y-89266823D01*
X122472784Y-89194673D01*
X122326319Y-89150243D01*
X122212166Y-89139000D01*
X122212163Y-89139000D01*
X122174000Y-89135241D01*
X122135837Y-89139000D01*
X110303844Y-89139000D01*
X109556843Y-88392000D01*
X128452394Y-88392000D01*
X128773001Y-88712607D01*
G36*
X103890196Y-97893702D02*
G01*
X103956052Y-97973948D01*
X103968091Y-97983828D01*
X103949211Y-98019150D01*
X103919076Y-98118490D01*
X103908901Y-98221800D01*
X103908901Y-99222560D01*
X103919076Y-99325870D01*
X103949211Y-99425210D01*
X103998146Y-99516762D01*
X104064002Y-99597008D01*
X104144248Y-99662864D01*
X104235800Y-99711799D01*
X104335140Y-99741934D01*
X104438450Y-99752109D01*
X104506001Y-99752109D01*
X104506001Y-99824588D01*
X104410532Y-99795628D01*
X104286050Y-99783368D01*
X104171750Y-99786440D01*
X104013000Y-99945190D01*
X104013000Y-100794820D01*
X104033000Y-100794820D01*
X104033000Y-101048820D01*
X104013000Y-101048820D01*
X104013000Y-101068820D01*
X103759000Y-101068820D01*
X103759000Y-101048820D01*
X103009700Y-101048820D01*
X102850950Y-101207570D01*
X102847878Y-101422200D01*
X102860138Y-101546682D01*
X102896448Y-101666380D01*
X102955413Y-101776694D01*
X103034765Y-101873385D01*
X103131456Y-101952737D01*
X103241770Y-102011702D01*
X103361468Y-102048012D01*
X103485950Y-102060272D01*
X103600250Y-102057200D01*
X103758998Y-101898452D01*
X103758998Y-102057200D01*
X103853956Y-102057200D01*
X103310157Y-102601000D01*
X102429844Y-102601000D01*
X101869000Y-102040157D01*
X101869000Y-100421440D01*
X102847878Y-100421440D01*
X102850950Y-100636070D01*
X103009700Y-100794820D01*
X103759000Y-100794820D01*
X103759000Y-99945190D01*
X103600250Y-99786440D01*
X103485950Y-99783368D01*
X103361468Y-99795628D01*
X103241770Y-99831938D01*
X103131456Y-99890903D01*
X103034765Y-99970255D01*
X102955413Y-100066946D01*
X102896448Y-100177260D01*
X102860138Y-100296958D01*
X102847878Y-100421440D01*
X101869000Y-100421440D01*
X101869000Y-98087216D01*
X101921788Y-98059000D01*
X102032122Y-98059000D01*
X102014076Y-98118490D01*
X102003901Y-98221800D01*
X102003901Y-99222560D01*
X102014076Y-99325870D01*
X102044211Y-99425210D01*
X102093146Y-99516762D01*
X102159002Y-99597008D01*
X102239248Y-99662864D01*
X102330800Y-99711799D01*
X102430140Y-99741934D01*
X102533450Y-99752109D01*
X103333550Y-99752109D01*
X103436860Y-99741934D01*
X103536200Y-99711799D01*
X103627752Y-99662864D01*
X103707998Y-99597008D01*
X103773854Y-99516762D01*
X103822789Y-99425210D01*
X103852924Y-99325870D01*
X103863099Y-99222560D01*
X103863099Y-98221800D01*
X103852924Y-98118490D01*
X103822789Y-98019150D01*
X103803909Y-97983828D01*
X103815948Y-97973948D01*
X103881804Y-97893702D01*
X103886000Y-97885852D01*
X103890196Y-97893702D01*
G37*
X103890196Y-97893702D02*
X103956052Y-97973948D01*
X103968091Y-97983828D01*
X103949211Y-98019150D01*
X103919076Y-98118490D01*
X103908901Y-98221800D01*
X103908901Y-99222560D01*
X103919076Y-99325870D01*
X103949211Y-99425210D01*
X103998146Y-99516762D01*
X104064002Y-99597008D01*
X104144248Y-99662864D01*
X104235800Y-99711799D01*
X104335140Y-99741934D01*
X104438450Y-99752109D01*
X104506001Y-99752109D01*
X104506001Y-99824588D01*
X104410532Y-99795628D01*
X104286050Y-99783368D01*
X104171750Y-99786440D01*
X104013000Y-99945190D01*
X104013000Y-100794820D01*
X104033000Y-100794820D01*
X104033000Y-101048820D01*
X104013000Y-101048820D01*
X104013000Y-101068820D01*
X103759000Y-101068820D01*
X103759000Y-101048820D01*
X103009700Y-101048820D01*
X102850950Y-101207570D01*
X102847878Y-101422200D01*
X102860138Y-101546682D01*
X102896448Y-101666380D01*
X102955413Y-101776694D01*
X103034765Y-101873385D01*
X103131456Y-101952737D01*
X103241770Y-102011702D01*
X103361468Y-102048012D01*
X103485950Y-102060272D01*
X103600250Y-102057200D01*
X103758998Y-101898452D01*
X103758998Y-102057200D01*
X103853956Y-102057200D01*
X103310157Y-102601000D01*
X102429844Y-102601000D01*
X101869000Y-102040157D01*
X101869000Y-100421440D01*
X102847878Y-100421440D01*
X102850950Y-100636070D01*
X103009700Y-100794820D01*
X103759000Y-100794820D01*
X103759000Y-99945190D01*
X103600250Y-99786440D01*
X103485950Y-99783368D01*
X103361468Y-99795628D01*
X103241770Y-99831938D01*
X103131456Y-99890903D01*
X103034765Y-99970255D01*
X102955413Y-100066946D01*
X102896448Y-100177260D01*
X102860138Y-100296958D01*
X102847878Y-100421440D01*
X101869000Y-100421440D01*
X101869000Y-98087216D01*
X101921788Y-98059000D01*
X102032122Y-98059000D01*
X102014076Y-98118490D01*
X102003901Y-98221800D01*
X102003901Y-99222560D01*
X102014076Y-99325870D01*
X102044211Y-99425210D01*
X102093146Y-99516762D01*
X102159002Y-99597008D01*
X102239248Y-99662864D01*
X102330800Y-99711799D01*
X102430140Y-99741934D01*
X102533450Y-99752109D01*
X103333550Y-99752109D01*
X103436860Y-99741934D01*
X103536200Y-99711799D01*
X103627752Y-99662864D01*
X103707998Y-99597008D01*
X103773854Y-99516762D01*
X103822789Y-99425210D01*
X103852924Y-99325870D01*
X103863099Y-99222560D01*
X103863099Y-98221800D01*
X103852924Y-98118490D01*
X103822789Y-98019150D01*
X103803909Y-97983828D01*
X103815948Y-97973948D01*
X103881804Y-97893702D01*
X103886000Y-97885852D01*
X103890196Y-97893702D01*
G36*
X110101296Y-96832903D02*
G01*
X109857329Y-96904486D01*
X109736429Y-97159996D01*
X109667700Y-97434184D01*
X109653783Y-97716512D01*
X109695213Y-97996130D01*
X109790397Y-98262292D01*
X109857329Y-98387514D01*
X110101298Y-98459097D01*
X110914395Y-97646000D01*
X110900253Y-97631858D01*
X111079858Y-97452253D01*
X111094000Y-97466395D01*
X111108143Y-97452253D01*
X111287748Y-97631858D01*
X111273605Y-97646000D01*
X112086702Y-98459097D01*
X112330671Y-98387514D01*
X112423526Y-98191275D01*
X112458028Y-98274570D01*
X112603252Y-98491913D01*
X112788087Y-98676748D01*
X112857001Y-98722795D01*
X112857000Y-101563156D01*
X112581157Y-101839000D01*
X111930110Y-101839000D01*
X111941702Y-101832804D01*
X112021948Y-101766948D01*
X112087804Y-101686702D01*
X112136739Y-101595150D01*
X112166874Y-101495810D01*
X112177049Y-101392500D01*
X112177049Y-100757500D01*
X112166874Y-100654190D01*
X112136739Y-100554850D01*
X112087804Y-100463298D01*
X112021948Y-100383052D01*
X112021710Y-100382857D01*
X112098685Y-100319685D01*
X112178037Y-100222994D01*
X112237002Y-100112680D01*
X112273312Y-99992982D01*
X112285572Y-99868500D01*
X112282500Y-99836750D01*
X112123750Y-99678000D01*
X111203000Y-99678000D01*
X111203000Y-99698000D01*
X110949000Y-99698000D01*
X110949000Y-99678000D01*
X110929000Y-99678000D01*
X110929000Y-99424000D01*
X110949000Y-99424000D01*
X110949000Y-99404000D01*
X111203000Y-99404000D01*
X111203000Y-99424000D01*
X112123750Y-99424000D01*
X112282500Y-99265250D01*
X112285572Y-99233500D01*
X112273312Y-99109018D01*
X112237002Y-98989320D01*
X112178037Y-98879006D01*
X112098685Y-98782315D01*
X112001994Y-98702963D01*
X111903664Y-98650404D01*
X111907097Y-98638702D01*
X111094000Y-97825605D01*
X110282263Y-98637342D01*
X110260320Y-98643998D01*
X110150006Y-98702963D01*
X110053315Y-98782315D01*
X109973963Y-98879006D01*
X109914998Y-98989320D01*
X109878688Y-99109018D01*
X109866428Y-99233500D01*
X109869500Y-99265250D01*
X110028248Y-99423998D01*
X109871632Y-99423998D01*
X109842189Y-99352917D01*
X109620373Y-99020946D01*
X109338054Y-98738627D01*
X109006083Y-98516811D01*
X108637216Y-98364022D01*
X108245629Y-98286130D01*
X107846371Y-98286130D01*
X107454784Y-98364022D01*
X107085917Y-98516811D01*
X106753946Y-98738627D01*
X106471627Y-99020946D01*
X106249811Y-99352917D01*
X106097022Y-99721784D01*
X106060000Y-99907905D01*
X106060000Y-99204843D01*
X106063759Y-99166680D01*
X106058889Y-99117234D01*
X106048757Y-99014361D01*
X106004327Y-98867896D01*
X105968252Y-98800405D01*
X105932177Y-98732913D01*
X105886083Y-98676748D01*
X105835080Y-98614600D01*
X105805430Y-98590267D01*
X105768099Y-98552936D01*
X105768099Y-98221800D01*
X105757924Y-98118490D01*
X105739878Y-98059000D01*
X105850212Y-98059000D01*
X105905850Y-98088739D01*
X106005190Y-98118874D01*
X106108500Y-98129049D01*
X107251500Y-98129049D01*
X107354810Y-98118874D01*
X107454150Y-98088739D01*
X107545702Y-98039804D01*
X107625948Y-97973948D01*
X107691804Y-97893702D01*
X107740739Y-97802150D01*
X107770874Y-97702810D01*
X107781049Y-97599500D01*
X107781049Y-96964500D01*
X107770874Y-96861190D01*
X107748975Y-96789000D01*
X110057393Y-96789000D01*
X110101296Y-96832903D01*
G37*
X110101296Y-96832903D02*
X109857329Y-96904486D01*
X109736429Y-97159996D01*
X109667700Y-97434184D01*
X109653783Y-97716512D01*
X109695213Y-97996130D01*
X109790397Y-98262292D01*
X109857329Y-98387514D01*
X110101298Y-98459097D01*
X110914395Y-97646000D01*
X110900253Y-97631858D01*
X111079858Y-97452253D01*
X111094000Y-97466395D01*
X111108143Y-97452253D01*
X111287748Y-97631858D01*
X111273605Y-97646000D01*
X112086702Y-98459097D01*
X112330671Y-98387514D01*
X112423526Y-98191275D01*
X112458028Y-98274570D01*
X112603252Y-98491913D01*
X112788087Y-98676748D01*
X112857001Y-98722795D01*
X112857000Y-101563156D01*
X112581157Y-101839000D01*
X111930110Y-101839000D01*
X111941702Y-101832804D01*
X112021948Y-101766948D01*
X112087804Y-101686702D01*
X112136739Y-101595150D01*
X112166874Y-101495810D01*
X112177049Y-101392500D01*
X112177049Y-100757500D01*
X112166874Y-100654190D01*
X112136739Y-100554850D01*
X112087804Y-100463298D01*
X112021948Y-100383052D01*
X112021710Y-100382857D01*
X112098685Y-100319685D01*
X112178037Y-100222994D01*
X112237002Y-100112680D01*
X112273312Y-99992982D01*
X112285572Y-99868500D01*
X112282500Y-99836750D01*
X112123750Y-99678000D01*
X111203000Y-99678000D01*
X111203000Y-99698000D01*
X110949000Y-99698000D01*
X110949000Y-99678000D01*
X110929000Y-99678000D01*
X110929000Y-99424000D01*
X110949000Y-99424000D01*
X110949000Y-99404000D01*
X111203000Y-99404000D01*
X111203000Y-99424000D01*
X112123750Y-99424000D01*
X112282500Y-99265250D01*
X112285572Y-99233500D01*
X112273312Y-99109018D01*
X112237002Y-98989320D01*
X112178037Y-98879006D01*
X112098685Y-98782315D01*
X112001994Y-98702963D01*
X111903664Y-98650404D01*
X111907097Y-98638702D01*
X111094000Y-97825605D01*
X110282263Y-98637342D01*
X110260320Y-98643998D01*
X110150006Y-98702963D01*
X110053315Y-98782315D01*
X109973963Y-98879006D01*
X109914998Y-98989320D01*
X109878688Y-99109018D01*
X109866428Y-99233500D01*
X109869500Y-99265250D01*
X110028248Y-99423998D01*
X109871632Y-99423998D01*
X109842189Y-99352917D01*
X109620373Y-99020946D01*
X109338054Y-98738627D01*
X109006083Y-98516811D01*
X108637216Y-98364022D01*
X108245629Y-98286130D01*
X107846371Y-98286130D01*
X107454784Y-98364022D01*
X107085917Y-98516811D01*
X106753946Y-98738627D01*
X106471627Y-99020946D01*
X106249811Y-99352917D01*
X106097022Y-99721784D01*
X106060000Y-99907905D01*
X106060000Y-99204843D01*
X106063759Y-99166680D01*
X106058889Y-99117234D01*
X106048757Y-99014361D01*
X106004327Y-98867896D01*
X105968252Y-98800405D01*
X105932177Y-98732913D01*
X105886083Y-98676748D01*
X105835080Y-98614600D01*
X105805430Y-98590267D01*
X105768099Y-98552936D01*
X105768099Y-98221800D01*
X105757924Y-98118490D01*
X105739878Y-98059000D01*
X105850212Y-98059000D01*
X105905850Y-98088739D01*
X106005190Y-98118874D01*
X106108500Y-98129049D01*
X107251500Y-98129049D01*
X107354810Y-98118874D01*
X107454150Y-98088739D01*
X107545702Y-98039804D01*
X107625948Y-97973948D01*
X107691804Y-97893702D01*
X107740739Y-97802150D01*
X107770874Y-97702810D01*
X107781049Y-97599500D01*
X107781049Y-96964500D01*
X107770874Y-96861190D01*
X107748975Y-96789000D01*
X110057393Y-96789000D01*
X110101296Y-96832903D01*
G36*
X102997000Y-94361000D02*
G01*
X104775000Y-94361000D01*
X104775000Y-94341000D01*
X105029000Y-94341000D01*
X105029000Y-94361000D01*
X105049000Y-94361000D01*
X105049000Y-94615000D01*
X105029000Y-94615000D01*
X105029000Y-95631000D01*
X105049000Y-95631000D01*
X105049000Y-95885000D01*
X105029000Y-95885000D01*
X105029000Y-95905000D01*
X104775000Y-95905000D01*
X104775000Y-95885000D01*
X102997000Y-95885000D01*
X102997000Y-95905000D01*
X102743000Y-95905000D01*
X102743000Y-95885000D01*
X102723000Y-95885000D01*
X102723000Y-95631000D01*
X102743000Y-95631000D01*
X102743000Y-94615000D01*
X102997000Y-94615000D01*
X102997000Y-95631000D01*
X104775000Y-95631000D01*
X104775000Y-94615000D01*
X102997000Y-94615000D01*
X102743000Y-94615000D01*
X102723000Y-94615000D01*
X102723000Y-94361000D01*
X102743000Y-94361000D01*
X102743000Y-94341000D01*
X102997000Y-94341000D01*
X102997000Y-94361000D01*
G37*
X102997000Y-94361000D02*
X104775000Y-94361000D01*
X104775000Y-94341000D01*
X105029000Y-94341000D01*
X105029000Y-94361000D01*
X105049000Y-94361000D01*
X105049000Y-94615000D01*
X105029000Y-94615000D01*
X105029000Y-95631000D01*
X105049000Y-95631000D01*
X105049000Y-95885000D01*
X105029000Y-95885000D01*
X105029000Y-95905000D01*
X104775000Y-95905000D01*
X104775000Y-95885000D01*
X102997000Y-95885000D01*
X102997000Y-95905000D01*
X102743000Y-95905000D01*
X102743000Y-95885000D01*
X102723000Y-95885000D01*
X102723000Y-95631000D01*
X102743000Y-95631000D01*
X102743000Y-94615000D01*
X102997000Y-94615000D01*
X102997000Y-95631000D01*
X104775000Y-95631000D01*
X104775000Y-94615000D01*
X102997000Y-94615000D01*
X102743000Y-94615000D01*
X102723000Y-94615000D01*
X102723000Y-94361000D01*
X102743000Y-94361000D01*
X102743000Y-94341000D01*
X102997000Y-94341000D01*
X102997000Y-94361000D01*
G36*
X103799963Y-88482006D02*
G01*
X103740998Y-88592320D01*
X103704688Y-88712018D01*
X103692428Y-88836500D01*
X103695500Y-88868250D01*
X103854250Y-89027000D01*
X104775000Y-89027000D01*
X104775000Y-89007000D01*
X105029000Y-89007000D01*
X105029000Y-89027000D01*
X105949750Y-89027000D01*
X106108500Y-88868250D01*
X106111572Y-88836500D01*
X106099312Y-88712018D01*
X106063002Y-88592320D01*
X106004037Y-88482006D01*
X105930171Y-88392000D01*
X106927273Y-88392000D01*
X106912885Y-88413533D01*
X106835467Y-88600435D01*
X106796000Y-88798849D01*
X106796000Y-89001151D01*
X106835467Y-89199565D01*
X106912885Y-89386467D01*
X107025277Y-89554674D01*
X107168326Y-89697723D01*
X107336533Y-89810115D01*
X107523435Y-89887533D01*
X107721849Y-89927000D01*
X107924151Y-89927000D01*
X108122565Y-89887533D01*
X108309467Y-89810115D01*
X108477674Y-89697723D01*
X108498397Y-89677000D01*
X108644157Y-89677000D01*
X109405590Y-90438434D01*
X109429920Y-90468080D01*
X109459564Y-90492408D01*
X109459565Y-90492409D01*
X109548233Y-90565177D01*
X109620426Y-90603765D01*
X109683216Y-90637327D01*
X109734861Y-90652994D01*
X109733673Y-90655217D01*
X109689244Y-90801682D01*
X109674241Y-90954000D01*
X109678001Y-90992173D01*
X109678001Y-91195710D01*
X109648261Y-91251350D01*
X109618126Y-91350690D01*
X109607951Y-91454000D01*
X109607951Y-93204000D01*
X109618126Y-93307310D01*
X109648261Y-93406650D01*
X109697196Y-93498202D01*
X109763052Y-93578448D01*
X109843298Y-93644304D01*
X109934850Y-93693239D01*
X110034190Y-93723374D01*
X110137500Y-93733549D01*
X110772500Y-93733549D01*
X110875810Y-93723374D01*
X110975150Y-93693239D01*
X110991824Y-93684327D01*
X111053006Y-93734537D01*
X111163320Y-93793502D01*
X111283018Y-93829812D01*
X111335491Y-93834980D01*
X109284824Y-93834980D01*
X109108000Y-93658157D01*
X109108000Y-92875155D01*
X109111758Y-92836999D01*
X109108000Y-92798843D01*
X109108000Y-92798834D01*
X109096757Y-92684681D01*
X109052327Y-92538216D01*
X109048403Y-92530874D01*
X108980177Y-92403233D01*
X108907409Y-92314565D01*
X108907408Y-92314564D01*
X108883080Y-92284920D01*
X108853437Y-92260593D01*
X106748412Y-90155569D01*
X106724080Y-90125920D01*
X106605766Y-90028823D01*
X106470784Y-89956673D01*
X106324319Y-89912243D01*
X106210166Y-89901000D01*
X106210163Y-89901000D01*
X106172000Y-89897241D01*
X106133837Y-89901000D01*
X105942481Y-89901000D01*
X106004037Y-89825994D01*
X106063002Y-89715680D01*
X106099312Y-89595982D01*
X106111572Y-89471500D01*
X106108500Y-89439750D01*
X105949750Y-89281000D01*
X105029000Y-89281000D01*
X105029000Y-89301000D01*
X104775000Y-89301000D01*
X104775000Y-89281000D01*
X103854250Y-89281000D01*
X103695500Y-89439750D01*
X103692428Y-89471500D01*
X103704688Y-89595982D01*
X103740998Y-89715680D01*
X103799963Y-89825994D01*
X103879315Y-89922685D01*
X103956290Y-89985857D01*
X103956052Y-89986052D01*
X103890196Y-90066298D01*
X103841261Y-90157850D01*
X103811126Y-90257190D01*
X103800951Y-90360500D01*
X103800951Y-90995500D01*
X103805728Y-91044000D01*
X102908166Y-91044000D01*
X102870000Y-91040241D01*
X102831834Y-91044000D01*
X102373346Y-91044000D01*
X102404977Y-91012369D01*
X102288567Y-90895959D01*
X102528656Y-90828980D01*
X102645756Y-90579952D01*
X102712023Y-90312865D01*
X102724910Y-90037983D01*
X102683922Y-89765867D01*
X102590636Y-89506977D01*
X102528656Y-89391020D01*
X102288565Y-89324040D01*
X101502605Y-90110000D01*
X101516748Y-90124143D01*
X101337143Y-90303748D01*
X101323000Y-90289605D01*
X101308858Y-90303748D01*
X101129253Y-90124143D01*
X101143395Y-90110000D01*
X101129253Y-90095858D01*
X101308858Y-89916253D01*
X101323000Y-89930395D01*
X102108960Y-89144435D01*
X102041980Y-88904344D01*
X101792952Y-88787244D01*
X101525865Y-88720977D01*
X101250983Y-88708090D01*
X100978867Y-88749078D01*
X100719977Y-88842364D01*
X100604020Y-88904344D01*
X100537041Y-89144433D01*
X100527000Y-89134392D01*
X100527000Y-88647606D01*
X100782606Y-88392000D01*
X103873829Y-88392000D01*
X103799963Y-88482006D01*
G37*
X103799963Y-88482006D02*
X103740998Y-88592320D01*
X103704688Y-88712018D01*
X103692428Y-88836500D01*
X103695500Y-88868250D01*
X103854250Y-89027000D01*
X104775000Y-89027000D01*
X104775000Y-89007000D01*
X105029000Y-89007000D01*
X105029000Y-89027000D01*
X105949750Y-89027000D01*
X106108500Y-88868250D01*
X106111572Y-88836500D01*
X106099312Y-88712018D01*
X106063002Y-88592320D01*
X106004037Y-88482006D01*
X105930171Y-88392000D01*
X106927273Y-88392000D01*
X106912885Y-88413533D01*
X106835467Y-88600435D01*
X106796000Y-88798849D01*
X106796000Y-89001151D01*
X106835467Y-89199565D01*
X106912885Y-89386467D01*
X107025277Y-89554674D01*
X107168326Y-89697723D01*
X107336533Y-89810115D01*
X107523435Y-89887533D01*
X107721849Y-89927000D01*
X107924151Y-89927000D01*
X108122565Y-89887533D01*
X108309467Y-89810115D01*
X108477674Y-89697723D01*
X108498397Y-89677000D01*
X108644157Y-89677000D01*
X109405590Y-90438434D01*
X109429920Y-90468080D01*
X109459564Y-90492408D01*
X109459565Y-90492409D01*
X109548233Y-90565177D01*
X109620426Y-90603765D01*
X109683216Y-90637327D01*
X109734861Y-90652994D01*
X109733673Y-90655217D01*
X109689244Y-90801682D01*
X109674241Y-90954000D01*
X109678001Y-90992173D01*
X109678001Y-91195710D01*
X109648261Y-91251350D01*
X109618126Y-91350690D01*
X109607951Y-91454000D01*
X109607951Y-93204000D01*
X109618126Y-93307310D01*
X109648261Y-93406650D01*
X109697196Y-93498202D01*
X109763052Y-93578448D01*
X109843298Y-93644304D01*
X109934850Y-93693239D01*
X110034190Y-93723374D01*
X110137500Y-93733549D01*
X110772500Y-93733549D01*
X110875810Y-93723374D01*
X110975150Y-93693239D01*
X110991824Y-93684327D01*
X111053006Y-93734537D01*
X111163320Y-93793502D01*
X111283018Y-93829812D01*
X111335491Y-93834980D01*
X109284824Y-93834980D01*
X109108000Y-93658157D01*
X109108000Y-92875155D01*
X109111758Y-92836999D01*
X109108000Y-92798843D01*
X109108000Y-92798834D01*
X109096757Y-92684681D01*
X109052327Y-92538216D01*
X109048403Y-92530874D01*
X108980177Y-92403233D01*
X108907409Y-92314565D01*
X108907408Y-92314564D01*
X108883080Y-92284920D01*
X108853437Y-92260593D01*
X106748412Y-90155569D01*
X106724080Y-90125920D01*
X106605766Y-90028823D01*
X106470784Y-89956673D01*
X106324319Y-89912243D01*
X106210166Y-89901000D01*
X106210163Y-89901000D01*
X106172000Y-89897241D01*
X106133837Y-89901000D01*
X105942481Y-89901000D01*
X106004037Y-89825994D01*
X106063002Y-89715680D01*
X106099312Y-89595982D01*
X106111572Y-89471500D01*
X106108500Y-89439750D01*
X105949750Y-89281000D01*
X105029000Y-89281000D01*
X105029000Y-89301000D01*
X104775000Y-89301000D01*
X104775000Y-89281000D01*
X103854250Y-89281000D01*
X103695500Y-89439750D01*
X103692428Y-89471500D01*
X103704688Y-89595982D01*
X103740998Y-89715680D01*
X103799963Y-89825994D01*
X103879315Y-89922685D01*
X103956290Y-89985857D01*
X103956052Y-89986052D01*
X103890196Y-90066298D01*
X103841261Y-90157850D01*
X103811126Y-90257190D01*
X103800951Y-90360500D01*
X103800951Y-90995500D01*
X103805728Y-91044000D01*
X102908166Y-91044000D01*
X102870000Y-91040241D01*
X102831834Y-91044000D01*
X102373346Y-91044000D01*
X102404977Y-91012369D01*
X102288567Y-90895959D01*
X102528656Y-90828980D01*
X102645756Y-90579952D01*
X102712023Y-90312865D01*
X102724910Y-90037983D01*
X102683922Y-89765867D01*
X102590636Y-89506977D01*
X102528656Y-89391020D01*
X102288565Y-89324040D01*
X101502605Y-90110000D01*
X101516748Y-90124143D01*
X101337143Y-90303748D01*
X101323000Y-90289605D01*
X101308858Y-90303748D01*
X101129253Y-90124143D01*
X101143395Y-90110000D01*
X101129253Y-90095858D01*
X101308858Y-89916253D01*
X101323000Y-89930395D01*
X102108960Y-89144435D01*
X102041980Y-88904344D01*
X101792952Y-88787244D01*
X101525865Y-88720977D01*
X101250983Y-88708090D01*
X100978867Y-88749078D01*
X100719977Y-88842364D01*
X100604020Y-88904344D01*
X100537041Y-89144433D01*
X100527000Y-89134392D01*
X100527000Y-88647606D01*
X100782606Y-88392000D01*
X103873829Y-88392000D01*
X103799963Y-88482006D01*
G36*
X111852000Y-92202000D02*
G01*
X111872000Y-92202000D01*
X111872000Y-92456000D01*
X111852000Y-92456000D01*
X111852000Y-92476000D01*
X111598000Y-92476000D01*
X111598000Y-92456000D01*
X111578000Y-92456000D01*
X111578000Y-92202000D01*
X111598000Y-92202000D01*
X111598000Y-92182000D01*
X111852000Y-92182000D01*
X111852000Y-92202000D01*
G37*
X111852000Y-92202000D02*
X111872000Y-92202000D01*
X111872000Y-92456000D01*
X111852000Y-92456000D01*
X111852000Y-92476000D01*
X111598000Y-92476000D01*
X111598000Y-92456000D01*
X111578000Y-92456000D01*
X111578000Y-92202000D01*
X111598000Y-92202000D01*
X111598000Y-92182000D01*
X111852000Y-92182000D01*
X111852000Y-92202000D01*
M02*
